<svg width="1060" height="463" viewBox="0 0 1060 463" fill="none" xmlns="http://www.w3.org/2000/svg">
<mask id="mask0_3196_31818" style="mask-type:alpha" maskUnits="userSpaceOnUse" x="0" y="0" width="1060" height="463">
<rect width="1060" height="462.61" fill="url(#paint0_linear_3196_31818)"/>
</mask>
<g mask="url(#mask0_3196_31818)">
<path fill-rule="evenodd" clip-rule="evenodd" d="M767.548 387.229L767.534 387.204C754.214 363.685 747.611 336.713 747.611 306.411V156.195C747.611 125.893 754.214 98.9213 767.535 75.4018L767.548 75.3776L767.548 75.3776C781.041 51.9215 799.545 33.519 823.008 20.229C846.72 6.7101 873.691 0 903.807 0C934.115 0 961.091 6.70627 984.612 20.2332C1008.07 33.524 1026.48 51.9292 1039.77 75.391C1053.3 98.9116 1060 125.888 1060 156.195V306.411C1060 336.718 1053.3 363.693 1039.77 387.214C1026.48 410.675 1008.08 429.178 984.624 442.669L984.6 442.683C961.08 456.004 934.109 462.606 903.807 462.606C873.7 462.606 846.736 456.001 823.027 442.691L822.989 442.669C799.537 429.179 781.039 410.681 767.548 387.229ZM1036.15 385.153C1049.28 362.338 1055.84 336.091 1055.84 306.411V156.195C1055.84 126.515 1049.28 100.268 1036.15 77.453C1023.23 54.6379 1005.36 36.7695 982.549 23.8477C959.734 10.724 933.486 4.16216 903.807 4.16216C874.329 4.16216 848.081 10.724 825.064 23.8477C802.249 36.7695 784.28 54.6379 771.156 77.453C758.234 100.268 751.773 126.515 751.773 156.195V306.411C751.773 336.091 758.234 362.338 771.156 385.153C784.28 407.968 802.249 425.938 825.064 439.061C848.081 451.983 874.329 458.444 903.807 458.444C933.486 458.444 959.734 451.983 982.549 439.061C1005.36 425.938 1023.23 407.968 1036.15 385.153ZM975.932 109.848L975.913 109.815C968.607 97.1257 958.636 87.1546 945.946 79.8485L945.914 79.8298L945.882 79.8105C933.45 72.3512 919.46 68.5924 903.807 68.5924C888.365 68.5924 874.363 72.3464 861.707 79.8248L861.69 79.8347C849.193 87.1409 839.201 97.1241 831.681 109.847C824.408 122.291 820.747 136.194 820.747 151.652V310.348C820.747 326.008 824.408 340.113 831.681 352.759C839.195 365.27 849.187 375.262 861.699 382.776C874.352 390.054 888.358 393.711 903.807 393.711C919.478 393.711 933.48 390.044 945.916 382.775C958.638 375.256 968.621 365.264 975.927 352.767L975.937 352.75C983.41 340.103 987.169 326.001 987.169 310.348V151.652C987.169 136.211 983.415 122.32 975.951 109.88L975.932 109.848ZM948.023 386.365C934.9 394.037 920.161 397.873 903.807 397.873C887.654 397.873 872.915 394.037 859.59 386.365C846.466 378.49 835.967 367.991 828.093 354.868C820.421 341.542 816.584 326.702 816.584 310.348V151.652C816.584 135.5 820.421 120.862 828.093 107.738C835.967 94.4128 846.466 83.9139 859.59 76.2415C872.915 68.3673 887.654 64.4302 903.807 64.4302C920.161 64.4302 934.9 68.3673 948.023 76.2415C961.349 83.9139 971.848 94.4128 979.52 107.738C987.394 120.862 991.331 135.5 991.331 151.652V310.348C991.331 326.702 987.394 341.542 979.52 354.868C971.848 367.991 961.349 378.49 948.023 386.365Z" fill="url(#paint1_linear_3196_31818)" fill-opacity="0.5"/>
<path fill-rule="evenodd" clip-rule="evenodd" d="M391.939 387.229L391.925 387.204C378.604 363.685 372.002 336.713 372.002 306.411V156.195C372.002 125.893 378.604 98.9213 391.925 75.4018L391.939 75.3776L391.939 75.3776C405.431 51.9215 423.936 33.519 447.399 20.229C471.111 6.7101 498.082 0 528.197 0C558.506 0 585.482 6.70627 609.003 20.2332C632.465 33.524 650.87 51.9292 664.16 75.391C677.686 98.9116 684.392 125.888 684.392 156.195V306.411C684.392 336.718 677.687 363.693 664.161 387.214C650.871 410.675 632.469 429.178 609.015 442.669L608.991 442.683C585.471 456.004 558.499 462.606 528.197 462.606C498.091 462.606 471.127 456.001 447.417 442.691L447.38 442.669C423.927 429.179 405.429 410.681 391.939 387.229ZM660.545 385.153C673.668 362.338 680.23 336.091 680.23 306.411V156.195C680.23 126.515 673.668 100.268 660.545 77.453C647.623 54.6379 629.754 36.7695 606.939 23.8477C584.124 10.724 557.877 4.16216 528.197 4.16216C498.719 4.16216 472.472 10.724 449.455 23.8477C426.64 36.7695 408.671 54.6379 395.547 77.453C382.625 100.268 376.164 126.515 376.164 156.195V306.411C376.164 336.091 382.625 362.338 395.547 385.153C408.671 407.968 426.64 425.938 449.455 439.061C472.472 451.983 498.719 458.444 528.197 458.444C557.877 458.444 584.124 451.983 606.939 439.061C629.754 425.938 647.623 407.968 660.545 385.153ZM600.322 109.848L600.304 109.815C592.998 97.1257 583.027 87.1546 570.337 79.8485L570.305 79.8298L570.272 79.8105C557.84 72.3512 543.851 68.5924 528.197 68.5924C512.756 68.5924 498.754 72.3464 486.098 79.8248L486.081 79.8347C473.584 87.1409 463.592 97.1241 456.072 109.847C448.799 122.291 445.137 136.194 445.137 151.652V310.348C445.137 326.008 448.799 340.113 456.072 352.759C463.586 365.27 473.577 375.262 486.089 382.776C498.742 390.054 512.749 393.711 528.197 393.711C543.868 393.711 557.87 390.044 570.307 382.775C583.029 375.256 593.012 365.264 600.318 352.767L600.327 352.75C607.801 340.103 611.56 326.001 611.56 310.348V151.652C611.56 136.211 607.806 122.32 600.342 109.88L600.322 109.848ZM572.414 386.365C559.29 394.037 544.551 397.873 528.197 397.873C512.045 397.873 497.306 394.037 483.98 386.365C470.857 378.49 460.358 367.991 452.483 354.868C444.811 341.542 440.975 326.702 440.975 310.348V151.652C440.975 135.5 444.811 120.862 452.483 107.738C460.358 94.4128 470.857 83.9139 483.98 76.2415C497.306 68.3673 512.045 64.4302 528.197 64.4302C544.551 64.4302 559.29 68.3673 572.414 76.2415C585.739 83.9139 596.238 94.4128 603.911 107.738C611.785 120.862 615.722 135.5 615.722 151.652V310.348C615.722 326.702 611.785 341.542 603.911 354.868C596.238 367.991 585.739 378.49 572.414 386.365Z" fill="url(#paint2_linear_3196_31818)" fill-opacity="0.5"/>
<path fill-rule="evenodd" clip-rule="evenodd" d="M0 453.218L0.335271 390.857L191.625 219.398C206.731 206.081 216.65 193.627 221.765 182.07L221.788 182.018C227.217 170.192 229.889 158.466 229.889 146.807C229.889 131.895 226.603 118.674 220.119 107.039L220.105 107.014C213.591 95.1359 204.619 85.7867 193.144 78.902C181.749 72.0649 168.575 68.5924 153.492 68.5924C138.029 68.5924 124.348 72.2556 112.333 79.5027L112.317 79.5128C100.411 86.6177 91.1368 96.089 84.4313 107.967C77.7311 119.836 74.4797 132.637 74.6715 146.446L74.7301 150.666H1.53671V146.504C1.53671 117.593 8.04864 92.0981 21.2097 70.163L21.2156 70.1531C34.53 48.1012 52.7529 30.9244 75.8118 18.6651C98.905 6.1852 125.239 0 154.703 0C182.815 0 208.169 6.41432 230.66 19.3224C253.099 31.9993 270.792 49.4828 283.68 71.7205C296.809 94.0255 303.327 119.396 303.327 147.715C303.327 168.044 300.661 185.532 295.186 200.062C289.747 214.496 281.6 227.847 270.791 240.112C260.15 252.185 246.899 265.227 231.064 279.235C231.061 279.238 231.058 279.24 231.055 279.243L112.988 384.625H303.327V453.218H0ZM102.074 388.788L228.297 276.126C244.045 262.194 257.169 249.272 267.668 237.36C278.167 225.448 286.041 212.526 291.291 198.595C296.54 184.664 299.165 167.704 299.165 147.715C299.165 120.055 292.805 95.4223 280.085 73.8187C267.567 52.2151 250.405 35.2552 228.6 22.9391C206.794 10.4211 182.162 4.16216 154.703 4.16216C125.831 4.16216 100.19 10.2192 77.7783 22.3334C55.367 34.2457 37.7005 50.9027 24.7787 72.3044C12.687 92.4572 6.34258 115.803 5.74541 142.342C5.71438 143.72 5.69887 145.108 5.69887 146.504H70.5098C70.4985 145.696 70.4985 144.892 70.5098 144.09C70.7004 130.467 74.1328 117.744 80.8068 105.921C87.8734 93.4033 97.6657 83.4091 110.184 75.9387C122.904 68.2664 137.34 64.4302 153.492 64.4302C169.24 64.4302 183.172 68.0645 195.286 75.333C207.4 82.6015 216.889 92.4947 223.754 105.013C230.619 117.329 234.051 131.26 234.051 146.807C234.051 159.123 231.225 171.439 225.571 183.755C220.12 196.071 209.722 208.993 194.377 222.52L4.48745 392.725L4.1846 449.056H299.165V388.788H102.074Z" fill="url(#paint3_linear_3196_31818)" fill-opacity="0.5"/>
<g filter="url(#filter0_b_3196_31818)">
<path fill-rule="evenodd" clip-rule="evenodd" d="M660.545 385.153C673.668 362.338 680.23 336.091 680.23 306.411V156.195C680.23 126.515 673.668 100.268 660.545 77.4529C647.623 54.6379 629.754 36.7694 606.939 23.8476C584.124 10.7239 557.877 4.16211 528.197 4.16211C498.719 4.16211 472.472 10.7239 449.455 23.8476C426.64 36.7694 408.67 54.6379 395.547 77.4529C382.625 100.268 376.164 126.515 376.164 156.195V306.411C376.164 336.091 382.625 362.338 395.547 385.153C408.67 407.968 426.64 425.938 449.455 439.061C472.472 451.983 498.719 458.444 528.197 458.444C557.877 458.444 584.124 451.983 606.939 439.061C629.754 425.938 647.623 407.968 660.545 385.153ZM572.414 386.365C559.29 394.037 544.551 397.873 528.197 397.873C512.045 397.873 497.306 394.037 483.98 386.365C470.857 378.49 460.358 367.991 452.483 354.868C444.811 341.542 440.975 326.702 440.975 310.348V151.652C440.975 135.5 444.811 120.862 452.483 107.738C460.358 94.4128 470.857 83.9138 483.98 76.2415C497.306 68.3673 512.045 64.4302 528.197 64.4302C544.551 64.4302 559.29 68.3673 572.414 76.2415C585.739 83.9138 596.238 94.4128 603.911 107.738C611.785 120.862 615.722 135.5 615.722 151.652V310.348C615.722 326.702 611.785 341.542 603.911 354.868C596.238 367.991 585.739 378.49 572.414 386.365Z" fill="url(#paint4_linear_3196_31818)" fill-opacity="0.6"/>
</g>
<g filter="url(#filter1_b_3196_31818)">
<path fill-rule="evenodd" clip-rule="evenodd" d="M1036.15 385.153C1049.28 362.338 1055.84 336.091 1055.84 306.411V156.195C1055.84 126.515 1049.28 100.268 1036.15 77.4529C1023.23 54.6379 1005.36 36.7694 982.549 23.8476C959.734 10.7239 933.486 4.16211 903.806 4.16211C874.329 4.16211 848.081 10.7239 825.064 23.8476C802.249 36.7694 784.28 54.6379 771.156 77.4529C758.234 100.268 751.773 126.515 751.773 156.195V306.411C751.773 336.091 758.234 362.338 771.156 385.153C784.28 407.968 802.249 425.938 825.064 439.061C848.081 451.983 874.329 458.444 903.806 458.444C933.486 458.444 959.734 451.983 982.549 439.061C1005.36 425.938 1023.23 407.968 1036.15 385.153ZM948.023 386.365C934.9 394.037 920.161 397.873 903.806 397.873C887.654 397.873 872.915 394.037 859.59 386.365C846.466 378.49 835.967 367.991 828.093 354.868C820.42 341.542 816.584 326.702 816.584 310.348V151.652C816.584 135.5 820.42 120.862 828.093 107.738C835.967 94.4128 846.466 83.9138 859.59 76.2415C872.915 68.3673 887.654 64.4302 903.806 64.4302C920.161 64.4302 934.9 68.3673 948.023 76.2415C961.349 83.9138 971.848 94.4128 979.52 107.738C987.394 120.862 991.331 135.5 991.331 151.652V310.348C991.331 326.702 987.394 341.542 979.52 354.868C971.848 367.991 961.349 378.49 948.023 386.365Z" fill="url(#paint5_linear_3196_31818)" fill-opacity="0.6"/>
</g>
<g filter="url(#filter2_b_3196_31818)">
<path fill-rule="evenodd" clip-rule="evenodd" d="M102.161 388.752L228.384 276.09C244.133 262.159 257.256 249.237 267.755 237.325C278.254 225.413 286.128 212.491 291.378 198.56C296.627 184.628 299.252 167.668 299.252 147.68C299.252 120.019 292.892 95.3871 280.172 73.7835C267.654 52.1799 250.492 35.22 228.687 22.9039C206.881 10.3859 182.249 4.12695 154.79 4.12695C125.918 4.12695 100.277 10.184 77.8654 22.2982C55.4541 34.2105 37.7876 50.8675 24.8658 72.2692C12.7742 92.422 6.4297 115.768 5.83252 142.306C5.80149 143.685 5.78601 145.073 5.78601 146.469H70.5969C70.5856 145.661 70.5856 144.856 70.5969 144.055C70.7876 130.432 74.2199 117.709 80.8939 105.886C87.9605 93.3681 97.7528 83.3739 110.271 75.9035C122.991 68.2312 137.427 64.395 153.579 64.395C169.327 64.395 183.259 68.0293 195.373 75.2978C207.487 82.5663 216.977 92.4595 223.841 104.978C230.706 117.294 234.138 131.225 234.138 146.771C234.138 159.088 231.312 171.404 225.658 183.72C220.207 196.036 209.809 208.958 194.464 222.485L4.57458 392.689L4.27173 449.02H299.252V388.752H102.161Z" fill="url(#paint6_linear_3196_31818)" fill-opacity="0.6"/>
</g>
</g>
<defs>
<filter id="filter0_b_3196_31818" x="359.364" y="-12.6379" width="337.666" height="487.882" filterUnits="userSpaceOnUse" color-interpolation-filters="sRGB">
<feFlood flood-opacity="0" result="BackgroundImageFix"/>
<feGaussianBlur in="BackgroundImageFix" stdDeviation="8.4"/>
<feComposite in2="SourceAlpha" operator="in" result="effect1_backgroundBlur_3196_31818"/>
<feBlend mode="normal" in="SourceGraphic" in2="effect1_backgroundBlur_3196_31818" result="shape"/>
</filter>
<filter id="filter1_b_3196_31818" x="734.973" y="-12.6379" width="337.666" height="487.882" filterUnits="userSpaceOnUse" color-interpolation-filters="sRGB">
<feFlood flood-opacity="0" result="BackgroundImageFix"/>
<feGaussianBlur in="BackgroundImageFix" stdDeviation="8.4"/>
<feComposite in2="SourceAlpha" operator="in" result="effect1_backgroundBlur_3196_31818"/>
<feBlend mode="normal" in="SourceGraphic" in2="effect1_backgroundBlur_3196_31818" result="shape"/>
</filter>
<filter id="filter2_b_3196_31818" x="-12.5283" y="-12.673" width="328.58" height="478.494" filterUnits="userSpaceOnUse" color-interpolation-filters="sRGB">
<feFlood flood-opacity="0" result="BackgroundImageFix"/>
<feGaussianBlur in="BackgroundImageFix" stdDeviation="8.4"/>
<feComposite in2="SourceAlpha" operator="in" result="effect1_backgroundBlur_3196_31818"/>
<feBlend mode="normal" in="SourceGraphic" in2="effect1_backgroundBlur_3196_31818" result="shape"/>
</filter>
<linearGradient id="paint0_linear_3196_31818" x1="530" y1="-107" x2="530" y2="541" gradientUnits="userSpaceOnUse">
<stop offset="0.160494" stop-color="#D9D9D9"/>
<stop offset="0.709877" stop-color="#D9D9D9" stop-opacity="0.54"/>
<stop offset="0.884945" stop-color="#D9D9D9" stop-opacity="0"/>
</linearGradient>
<linearGradient id="paint1_linear_3196_31818" x1="903.807" y1="0" x2="903.807" y2="409" gradientUnits="userSpaceOnUse">
<stop stop-color="#BDA6FF"/>
<stop offset="1" stop-color="#2F028F" stop-opacity="0.46"/>
</linearGradient>
<linearGradient id="paint2_linear_3196_31818" x1="528.197" y1="0" x2="528.197" y2="409" gradientUnits="userSpaceOnUse">
<stop stop-color="#BDA6FF"/>
<stop offset="1" stop-color="#2F028F" stop-opacity="0.46"/>
</linearGradient>
<linearGradient id="paint3_linear_3196_31818" x1="151.664" y1="0" x2="151.664" y2="400.699" gradientUnits="userSpaceOnUse">
<stop stop-color="#BDA6FF"/>
<stop offset="1" stop-color="#2F028F" stop-opacity="0.46"/>
</linearGradient>
<linearGradient id="paint4_linear_3196_31818" x1="528.197" y1="4.16211" x2="528.197" y2="458.444" gradientUnits="userSpaceOnUse">
<stop stop-color="#6B10FF"/>
<stop offset="1" stop-color="#4102C8"/>
</linearGradient>
<linearGradient id="paint5_linear_3196_31818" x1="903.806" y1="4.16211" x2="903.806" y2="458.444" gradientUnits="userSpaceOnUse">
<stop stop-color="#6B10FF"/>
<stop offset="1" stop-color="#4102C8"/>
</linearGradient>
<linearGradient id="paint6_linear_3196_31818" x1="151.762" y1="4.12695" x2="151.762" y2="449.02" gradientUnits="userSpaceOnUse">
<stop stop-color="#6B10FF"/>
<stop offset="1" stop-color="#4102C8"/>
</linearGradient>
</defs>
</svg>
