<svg width="113" height="80" viewBox="0 0 113 80" fill="none" xmlns="http://www.w3.org/2000/svg">
  <g clip-path="url(#clip0_3070_2496)">
    <path
      d="M56.5997 39.8364C56.623 39.8493 56.7056 39.9174 56.801 39.9422C58.9997 40.5224 60.4524 42.7609 60.3856 45.2068C60.2892 48.772 57.7886 50.6647 54.8164 50.937C52.4884 51.1498 50.1319 51.058 47.7891 51.0731C47.1141 51.0774 46.7655 50.6658 46.7655 49.9809C46.7634 43.7083 46.7634 37.4358 46.7655 31.1622C46.7655 30.3897 47.041 30.0354 47.7912 30.0408C50.063 30.0581 52.3443 29.9943 54.6023 30.1974C58.5006 30.5475 60.4884 35.1012 58.1923 38.3012C57.7695 38.89 57.139 39.3253 56.5997 39.8342V39.8364ZM49.4823 48.7784C50.9191 48.7784 52.2924 48.7839 53.6646 48.7741C53.9443 48.772 54.2251 48.7201 54.5027 48.6747C56.09 48.4111 57.3456 47.1979 57.4558 45.828C57.6296 43.6608 56.9059 42.3017 55.1395 41.7075C53.3138 41.0939 51.4203 41.3359 49.5459 41.4018C49.5311 41.4018 49.5173 41.4212 49.4823 41.4461V48.7784V48.7784ZM49.4548 39.1006C50.6203 39.1006 51.7244 39.1114 52.8275 39.0985C54.8778 39.0736 56.1387 37.8355 56.2479 35.758C56.3507 33.8047 55.2572 32.5018 53.3308 32.3635C52.2087 32.2825 51.0802 32.302 49.956 32.2523C49.5554 32.235 49.4442 32.3916 49.4474 32.7816C49.4622 34.642 49.4537 36.5035 49.4537 38.3638C49.4537 38.5907 49.4537 38.8187 49.4537 39.1017L49.4548 39.1006Z"
      fill="rgba(255,255,255,0.5)" />
    <path
      d="M106.278 37.452C106.295 37.0717 106.312 36.8632 106.313 36.6558C106.315 34.2369 106.313 31.818 106.315 29.399C106.315 28.6612 106.351 28.5823 107.062 28.5131C107.545 28.4667 108.048 28.4991 108.527 28.5855C108.691 28.6158 108.824 28.9064 108.939 29.0987C108.985 29.1776 108.947 29.3094 108.947 29.4163C108.947 36.3684 108.947 43.3205 108.947 50.2737C108.947 50.9953 108.823 51.1271 108.101 51.179C108.066 51.1812 108.03 51.1812 107.995 51.1822C106.717 51.2276 106.597 51.112 106.597 49.8296C106.597 49.5455 106.597 49.2614 106.597 48.8389C106.172 49.2128 105.839 49.5077 105.506 49.8005C103.835 51.2622 101.926 51.7462 99.7996 51.1444C98.1784 50.6864 97.0478 49.5747 96.4873 48.0028C95.4086 44.9788 95.3641 41.9096 96.5265 38.8867C98.0597 34.897 103.063 34.1839 105.732 36.9453C105.864 37.0814 106.011 37.2035 106.28 37.452H106.278ZM106.314 43.2611C106.314 42.9391 106.314 42.6161 106.314 42.2942C106.314 40.8278 105.766 39.616 104.67 38.6588C104.656 38.6469 104.642 38.6361 104.629 38.6242C103.69 37.828 102.622 37.4066 101.404 37.6864C100.026 38.0041 99.3027 39.052 98.8862 40.3268C98.2484 42.2834 98.3066 44.2734 98.8036 46.245C99.4658 48.8768 101.774 49.8955 103.964 48.4608C104.788 47.9206 105.44 47.1007 106.142 46.3801C106.268 46.2515 106.301 45.9879 106.306 45.7859C106.323 44.9443 106.313 44.1027 106.314 43.26V43.2611Z"
      fill="rgba(255,255,255,0.5)" />
    <path
      d="M74.1817 48.88C73.3774 49.5131 72.711 50.1321 71.9586 50.6118C69.9104 51.919 67.059 51.5625 65.5067 49.8545C64.6813 48.9459 64.2839 47.8137 64.2532 46.6253C64.1631 43.1509 64.1684 39.6743 64.1292 36.1988C64.1239 35.7537 64.3729 35.5787 64.7459 35.5581C65.2206 35.5322 65.6985 35.5311 66.1743 35.5571C66.6564 35.583 66.8132 35.8833 66.8121 36.3587C66.8037 39.3523 66.791 42.346 66.828 45.3397C66.8439 46.5832 67.1237 47.777 68.1949 48.5656C69.3181 49.3921 70.8069 49.2354 72.0794 48.1464C72.6696 47.6419 73.2058 47.065 73.7144 46.474C73.8733 46.2893 73.9136 45.9501 73.9147 45.6821C73.9284 42.6345 73.9221 39.5879 73.9242 36.5402C73.9242 35.6348 74.0068 35.5581 74.8863 35.5473C76.8773 35.5247 76.5499 35.5808 76.5531 37.2143C76.5626 41.5887 76.5467 45.962 76.569 50.3363C76.5721 50.8981 76.3581 51.1239 75.8548 51.1639C75.8018 51.1682 75.7499 51.1758 75.6969 51.1801C74.3279 51.287 74.1838 51.1531 74.1838 49.7778C74.1838 49.499 74.1838 49.2203 74.1838 48.8822L74.1817 48.88Z"
      fill="rgba(255,255,255,0.5)" />
    <path
      d="M89.0012 39.7542C89.0012 36.2614 89.0012 32.7687 89.0012 29.2759C89.0012 28.5769 89.0818 28.4818 89.7832 28.4494C90.2039 28.43 90.6277 28.4343 91.0484 28.4548C91.4182 28.4732 91.6333 28.672 91.6174 29.0749C91.6121 29.2002 91.6195 29.3256 91.6195 29.4509C91.6195 36.3295 91.6195 43.207 91.6195 50.0857C91.6195 51.0223 91.4945 51.1509 90.562 51.1811C89.0669 51.2298 89.0012 51.1682 89.0012 49.6946V39.7542Z"
      fill="rgba(255,255,255,0.5)" />
    <path
      d="M81.4854 43.3691C81.4854 41.0215 81.4854 38.675 81.4854 36.3274C81.4854 35.7148 81.6158 35.5603 82.2208 35.5517C84.4449 35.5214 84.0942 35.4858 84.0995 37.3299C84.1111 41.6125 84.1037 45.8939 84.1026 50.1764C84.1026 50.9921 83.9766 51.1239 83.1681 51.1779C81.5967 51.2827 81.4844 51.1779 81.4844 49.6028C81.4844 47.5242 81.4844 45.4456 81.4844 43.368L81.4854 43.3691Z"
      fill="rgba(255,255,255,0.5)" />
    <path
      d="M84.3876 31.092C84.3876 32.3344 84.0252 32.6887 82.7569 32.6876C81.5362 32.6876 81.1675 32.3192 81.1675 31.1017C81.1675 29.8301 81.5267 29.4833 82.8385 29.4909C84.0719 29.4974 84.3876 29.8236 84.3866 31.092H84.3876Z"
      fill="rgba(255,255,255,0.5)" />
    <path
      d="M15.5591 30.1153H12.1281L4.89844 51.2957H7.52095L9.47592 45.6929H18.0926L20.0677 51.2957H23.06L15.5591 30.1153ZM10.1742 43.4155L13.6847 33.0441L17.3551 43.4155H10.1742Z"
      fill="rgba(255,255,255,0.5)" />
    <path
      d="M40.4715 33.9992C40.4715 33.9992 41.3096 34.6906 41.4484 33.6329C41.4484 33.6329 41.6879 32.0675 40.96 31.5997C40.96 31.5997 35.2858 27.248 28.285 32.0059C28.285 32.0059 22.6903 36.2668 25.2334 45.0209C25.2334 45.0209 27.5369 53.6616 38.0386 51.0796C38.0386 51.0796 41.7345 50.2974 41.4866 48.3754L41.4983 40.8108C41.4983 40.8108 41.5385 39.7434 40.6707 39.7434H33.6095C33.6095 39.7434 32.622 41.2689 33.7292 42.0316H38.6363V48.1626C38.6363 48.1626 33.76 50.816 29.9899 47.4301C29.9899 47.4301 25.9804 43.5862 28.0455 36.9669C28.0455 36.9669 31.2667 28.6492 40.4715 33.9981V33.9992Z"
      fill="rgba(255,255,255,0.5)" />
  </g>
  <defs>
    <clipPath id="clip0_3070_2496">
      <rect width="104.062" height="23.125" fill="rgba(255,255,255,0.5)"
        transform="translate(4.89844 28.4375)" />
    </clipPath>
  </defs>
</svg>