<svg width="116" height="80" viewBox="0 0 116 80" fill="none" xmlns="http://www.w3.org/2000/svg">
  <g clip-path="url(#clip0_3070_2487)">
    <path
      d="M4.125 49.0029H7.41853L13.4623 34.1735L19.5061 49.0029H22.8029L15.0499 30.3125H11.998L4.125 49.0029Z"
      fill="rgba(255,255,255,0.5)" />
    <path
      d="M29.2749 49.0029H32.3884V35.8042L37.9441 44.2691L43.7431 35.8042V49.0029H46.9798V30.3125H43.5598L38.1274 39.1905L32.6317 30.3125H29.2749V49.0029Z"
      fill="rgba(255,255,255,0.5)" />
    <path
      d="M65.8424 39.2654C68.5895 38.1361 68.4679 35.3778 68.4679 35.3778C68.5895 30.549 62.9122 30.4507 62.9122 30.4507H54.4878V33.4323L62.3024 33.369C65.5376 33.4939 65.2327 35.8775 65.2327 35.8775C65.5376 38.3227 62.2408 38.3227 62.2408 38.3227H54.4878V48.8647L64.0732 48.858C68.0414 49.0462 69.2624 45.3468 69.2624 45.3468C70.4219 40.3931 65.8441 39.2638 65.8441 39.2638L65.8424 39.2654ZM66.2089 43.4979C66.2089 44.8604 65.1241 45.9747 63.7976 45.9747H57.6013V41.021H63.7976C65.1241 41.021 66.2089 42.1354 66.2089 43.4979V43.4979Z"
      fill="rgba(255,255,255,0.5)" />
    <path d="M90.0195 30.3125H76.6492V33.389H90.0195V30.3125Z" fill="rgba(255,255,255,0.5)" />
    <path
      d="M76.6492 38.0462V41.021V45.9747V48.8663H79.534H90.0195V45.9747H79.534V41.021H90.0195V38.0462H79.534H76.6492Z"
      fill="rgba(255,255,255,0.5)" />
    <path
      d="M111.898 48.0452L107.823 42.1604C108.924 41.8522 109.816 41.2942 110.483 40.4897C111.751 38.959 111.705 37.1184 111.666 36.6204C111.673 34.7465 111.136 33.2357 110.072 32.1297C108.486 30.4824 106.372 30.4358 106.135 30.4358H97.3442V33.2674H106.135C106.146 33.2674 107.325 33.304 108.112 34.1219C108.653 34.6849 108.921 35.541 108.908 36.667L108.902 36.7286L108.916 36.8369C108.916 36.8469 109.01 37.9146 108.368 38.6741C107.888 39.2405 107.066 39.5536 105.924 39.6052H97.5551V48.8663H100.312V42.4369H104.633L109.654 49.6875L111.9 48.0468L111.898 48.0452Z"
      fill="rgba(255,255,255,0.5)" />
  </g>
  <defs>
    <clipPath id="clip0_3070_2487">
      <rect width="107.773" height="19.375" fill="rgba(255,255,255,0.5)"
        transform="translate(4.125 30.3125)" />
    </clipPath>
  </defs>
</svg>