<svg width="118" height="80" viewBox="0 0 118 80" fill="none" xmlns="http://www.w3.org/2000/svg">
  <g clip-path="url(#clip0_3070_2515)">
    <path
      d="M57.1947 36.3914H58.5911L61.7964 44.6322H61.8254L65.1333 36.3914H66.4416L62.3687 46.417H61.1776L57.1929 36.3914H57.1947Z"
      fill="rgba(255,255,255,0.5)" />
    <path
      d="M72.8584 44.9604C72.4468 45.501 71.9953 45.8784 71.5056 46.0935C71.015 46.3086 70.4471 46.4161 69.8003 46.4161C69.2615 46.4161 68.7755 46.3188 68.3448 46.1231C67.9133 45.9284 67.548 45.6651 67.2491 45.335C66.9502 45.0049 66.7195 44.6146 66.5578 44.1649C66.396 43.7152 66.3152 43.2349 66.3152 42.7241C66.3152 42.1835 66.4033 41.6866 66.5796 41.2313C66.7558 40.7761 67.0011 40.3857 67.3146 40.0612C67.628 39.7367 68.0005 39.4836 68.432 39.3037C68.8636 39.1238 69.3333 39.0339 69.8439 39.0339C70.3245 39.0339 70.7651 39.1164 71.1667 39.2814C71.5683 39.4465 71.9144 39.6866 72.2033 40.0019C72.4922 40.3171 72.7157 40.7019 72.872 41.1571C73.0282 41.6124 73.1073 42.1297 73.1073 42.7102V43.0857H67.5499C67.5689 43.3861 67.6407 43.6735 67.7634 43.9489C67.886 44.2243 68.045 44.4644 68.2413 44.6693C68.4375 44.8742 68.6673 45.0365 68.9326 45.157C69.197 45.2766 69.4859 45.3369 69.8003 45.3369C70.3 45.3369 70.7215 45.2469 71.0649 45.0671C71.4084 44.8872 71.7163 44.622 71.9916 44.2715L72.8593 44.9614L72.8584 44.9604ZM71.8735 42.0945C71.8535 41.4946 71.6627 41.0143 71.3002 40.6537C70.9377 40.2939 70.4371 40.1131 69.8003 40.1131C69.1634 40.1131 68.6483 40.293 68.2567 40.6537C67.8642 41.0134 67.6289 41.4937 67.5508 42.0945H71.8735V42.0945Z"
      fill="rgba(255,255,255,0.5)" />
    <path
      d="M74.5838 41.0598C74.5838 40.7399 74.5738 40.4395 74.5547 40.1595C74.5347 39.8795 74.5256 39.6245 74.5256 39.3945H75.614C75.614 39.5846 75.6186 39.7747 75.6286 39.9648C75.6386 40.1548 75.6431 40.3495 75.6431 40.5498H75.6722C75.7503 40.3801 75.8612 40.2151 76.0029 40.0547C76.1446 39.8952 76.3136 39.7524 76.5098 39.6273C76.7061 39.5021 76.9259 39.402 77.1712 39.3268C77.4165 39.2517 77.6809 39.2147 77.9653 39.2147C78.4159 39.2147 78.8057 39.2851 79.1346 39.4251C79.4625 39.5651 79.7351 39.7608 79.9504 40.0102C80.1657 40.2605 80.3256 40.5628 80.4283 40.9179C80.531 41.273 80.5827 41.6606 80.5827 42.0806V46.417H79.4362V42.2002C79.4362 41.6105 79.309 41.1451 79.0537 40.8048C78.7984 40.4645 78.4014 40.2948 77.8626 40.2948C77.4901 40.2948 77.1694 40.3597 76.8996 40.4895C76.6298 40.6193 76.409 40.8048 76.2382 41.0449C76.0665 41.2851 75.9393 41.5697 75.8557 41.8998C75.7721 42.2299 75.7303 42.5952 75.7303 42.9948V46.4161H74.5838V41.0598V41.0598Z"
      fill="rgba(255,255,255,0.5)" />
    <path
      d="M86.2799 40.204H83.9895V43.7152C83.9895 43.9452 83.9941 44.1575 84.0041 44.3531C84.0141 44.5478 84.0531 44.7184 84.1213 44.8631C84.1894 45.0086 84.293 45.1236 84.4302 45.208C84.5673 45.2933 84.7636 45.3359 85.018 45.3359C85.1842 45.3359 85.3559 45.3165 85.5322 45.2757C85.7084 45.2358 85.8756 45.1755 86.0319 45.0958L86.0764 46.1611C85.8802 46.2511 85.6621 46.316 85.4223 46.3559C85.1824 46.3957 84.9544 46.4161 84.7381 46.4161C84.3266 46.4161 83.9977 46.3614 83.7533 46.2511C83.508 46.1407 83.3172 45.9859 83.18 45.7856C83.0428 45.5854 82.952 45.3378 82.9084 45.043C82.8639 44.7481 82.8421 44.4199 82.8421 44.0601V40.204H81.9099V39.2137H82.8421V36.9347H83.9886V39.2137H86.279V40.204H86.2799Z"
      fill="rgba(255,255,255,0.5)" />
    <path
      d="M93.551 44.571C93.551 44.8909 93.561 45.1913 93.58 45.4713C93.5991 45.7513 93.6091 46.0063 93.6091 46.2362H92.5207C92.5207 46.0462 92.5153 45.8561 92.5062 45.666C92.4962 45.476 92.4916 45.2812 92.4916 45.081H92.4626C92.3835 45.2516 92.2736 45.4166 92.1319 45.5761C91.9892 45.7365 91.8202 45.8784 91.6249 46.0035C91.4287 46.1287 91.2079 46.2288 90.9635 46.3039C90.7182 46.379 90.4538 46.4161 90.1695 46.4161C89.7188 46.4161 89.3291 46.3457 89.0002 46.2056C88.6713 46.0656 88.3996 45.8709 88.1843 45.6206C87.969 45.3703 87.8091 45.068 87.7065 44.7129C87.6038 44.3578 87.552 43.9702 87.552 43.5502V39.2137H88.6986V43.4306C88.6986 44.0212 88.8258 44.4857 89.081 44.826C89.3354 45.1663 89.7325 45.3359 90.2721 45.3359C90.6446 45.3359 90.9653 45.271 91.2351 45.1412C91.505 45.0114 91.7248 44.826 91.8966 44.5859C92.0683 44.3457 92.1955 44.0611 92.279 43.731C92.3626 43.4009 92.4044 43.0356 92.4044 42.636V39.2147H93.551V44.571V44.571Z"
      fill="rgba(255,255,255,0.5)" />
    <path
      d="M95.7723 41.0598C95.7723 40.7399 95.7623 40.4395 95.7432 40.1595C95.7232 39.8795 95.7141 39.6245 95.7141 39.3945H96.8025C96.8025 39.5846 96.8071 39.7747 96.8171 39.9648C96.8271 40.1548 96.8316 40.3495 96.8316 40.5498H96.8607C96.9388 40.3801 97.0496 40.2151 97.1914 40.0547C97.3331 39.8952 97.5021 39.7524 97.6983 39.6273C97.8946 39.5021 98.1144 39.402 98.3597 39.3268C98.605 39.2517 98.8694 39.2147 99.1538 39.2147C99.2319 39.2147 99.31 39.2202 99.3891 39.2295C99.4672 39.2397 99.5453 39.2592 99.6244 39.2898L99.5508 40.4756C99.3546 40.4154 99.1492 40.3857 98.933 40.3857C98.2271 40.3857 97.7147 40.6184 97.3967 41.0839C97.0778 41.5493 96.9188 42.1863 96.9188 42.9966V46.418H95.7723V41.0616V41.0598Z"
      fill="rgba(255,255,255,0.5)" />
    <path
      d="M106.541 44.9604C106.129 45.501 105.678 45.8784 105.188 46.0935C104.698 46.3086 104.13 46.4161 103.483 46.4161C102.944 46.4161 102.458 46.3188 102.027 46.1231C101.596 45.9284 101.231 45.6651 100.932 45.335C100.633 45.0049 100.402 44.6146 100.24 44.1649C100.079 43.7152 99.9978 43.2349 99.9978 42.7241C99.9978 42.1835 100.086 41.6866 100.262 41.2313C100.438 40.7761 100.684 40.3857 100.997 40.0612C101.311 39.7367 101.683 39.4836 102.115 39.3037C102.546 39.1238 103.016 39.0339 103.527 39.0339C104.007 39.0339 104.448 39.1164 104.849 39.2814C105.251 39.4465 105.597 39.6866 105.886 40.0019C106.175 40.3171 106.398 40.7019 106.555 41.1571C106.711 41.6124 106.79 42.1297 106.79 42.7102V43.0857H101.232C101.252 43.3861 101.323 43.6735 101.446 43.9489C101.569 44.2243 101.728 44.4644 101.924 44.6693C102.12 44.8742 102.35 45.0365 102.615 45.157C102.88 45.2766 103.169 45.3369 103.483 45.3369C103.983 45.3369 104.404 45.2469 104.748 45.0671C105.091 44.8872 105.399 44.622 105.674 44.2715L106.542 44.9614L106.541 44.9604ZM105.556 42.0945C105.536 41.4946 105.345 41.0143 104.983 40.6537C104.62 40.2939 104.12 40.1131 103.483 40.1131C102.846 40.1131 102.331 40.293 101.939 40.6537C101.547 41.0134 101.312 41.4937 101.233 42.0945H105.556Z"
      fill="rgba(255,255,255,0.5)" />
    <path
      d="M108.572 44.3902C108.798 44.6804 109.045 44.9104 109.315 45.08C109.585 45.2506 109.925 45.335 110.337 45.335C110.513 45.335 110.692 45.3155 110.874 45.2748C111.055 45.2349 111.219 45.17 111.366 45.08C111.513 44.9901 111.631 44.8779 111.719 44.7425C111.807 44.6072 111.851 44.4449 111.851 44.2548C111.851 44.0648 111.81 43.9099 111.726 43.7894C111.642 43.6698 111.532 43.5669 111.395 43.4816C111.258 43.3963 111.101 43.3295 110.925 43.2794C110.748 43.2294 110.567 43.1849 110.38 43.1441C110.057 43.0745 109.748 42.9939 109.454 42.9039C109.159 42.814 108.902 42.6962 108.682 42.5516C108.461 42.407 108.284 42.2197 108.152 41.9888C108.019 41.7589 107.954 41.464 107.954 41.1033C107.954 40.7631 108.027 40.4636 108.175 40.203C108.322 39.9434 108.518 39.7283 108.762 39.5577C109.008 39.3881 109.282 39.2573 109.585 39.1674C109.889 39.0774 110.203 39.032 110.527 39.032C111.016 39.032 111.47 39.1321 111.887 39.3324C112.303 39.5327 112.629 39.8572 112.864 40.3078L111.909 40.9531C111.761 40.7028 111.568 40.5007 111.328 40.3458C111.088 40.191 110.797 40.1131 110.453 40.1131C110.296 40.1131 110.137 40.1335 109.975 40.1734C109.814 40.2132 109.669 40.2735 109.542 40.3533C109.415 40.433 109.309 40.5359 109.226 40.6611C109.142 40.7862 109.1 40.929 109.1 41.0885C109.1 41.2387 109.147 41.3657 109.24 41.4714C109.333 41.5762 109.461 41.6689 109.623 41.7487C109.784 41.8284 109.971 41.8989 110.181 41.9591C110.392 42.0194 110.61 42.0695 110.836 42.1093C111.139 42.1696 111.429 42.2466 111.703 42.3421C111.978 42.4376 112.217 42.5646 112.424 42.725C112.63 42.8854 112.792 43.0847 112.909 43.3249C113.026 43.565 113.085 43.8599 113.085 44.2103C113.085 44.6109 113.007 44.9512 112.85 45.2302C112.693 45.5103 112.485 45.7383 112.225 45.9127C111.965 46.0879 111.671 46.2149 111.343 46.2956C111.014 46.3753 110.678 46.4152 110.335 46.4152C109.747 46.4152 109.239 46.3225 108.813 46.138C108.387 45.9525 108.002 45.6104 107.659 45.1097L108.571 44.3893L108.572 44.3902Z"
      fill="rgba(255,255,255,0.5)" />
    <path
      d="M37.4426 41.7589C37.4426 40.0167 36.0589 38.6037 34.3509 38.6037C32.6428 38.6037 31.2592 40.0167 31.2592 41.7589C31.2592 43.5011 32.6428 44.9141 34.3509 44.9141C36.0589 44.9141 37.4426 43.5011 37.4426 41.7589V41.7589ZM52.2905 41.7589C52.2887 44.5145 50.3672 46.8788 47.7134 47.3906C45.0605 47.9024 42.4258 46.4161 41.4382 43.8515L43.5778 41.668V41.7589C43.5796 43.2609 44.6208 44.5525 46.0653 44.8445C47.509 45.1357 48.9535 44.3457 49.5159 42.9577C50.0783 41.5697 49.6022 39.9694 48.3775 39.1349C47.1537 38.3005 45.5229 38.4646 44.4818 39.5262L38.3456 45.7875C36.7457 47.4462 34.3218 47.9525 32.2113 47.0679C30.1017 46.1843 28.7253 44.0852 28.7289 41.7579V33.71C28.7716 33.0294 29.3249 32.5 29.9936 32.5C30.6623 32.5 31.2146 33.0294 31.2583 33.71V36.9292C32.8146 35.8824 34.7779 35.6923 36.5004 36.4201C38.2221 37.148 39.4786 38.6992 39.8547 40.5619L42.6938 37.6644C44.3055 36.0187 46.7331 35.53 48.8363 36.4276C50.9405 37.3251 52.3042 39.4316 52.2887 41.7589H52.2905ZM27.8895 41.7589C27.894 44.5172 25.9734 46.8881 23.3169 47.3999C20.6613 47.9126 18.0247 46.4208 17.0426 43.8515L19.1822 41.668V41.7589C19.184 43.2609 20.2261 44.5525 21.6697 44.8445C23.1134 45.1357 24.5579 44.3457 25.1203 42.9577C25.6827 41.5697 25.2066 39.9694 23.9819 39.1349C22.7581 38.3005 21.1273 38.4646 20.0862 39.5262L13.9291 45.8144C11.7341 48.0545 8.17546 48.0535 5.98047 45.8144C3.78548 43.5743 3.78548 39.9425 5.98047 37.7024C8.17546 35.4624 11.7332 35.4624 13.9291 37.7024C14.2707 38.0251 14.4125 38.5137 14.2962 38.9745C14.1799 39.4353 13.8256 39.7932 13.374 39.9073C12.9216 40.0213 12.4446 39.8739 12.1312 39.5216C10.9228 38.2931 8.96678 38.2949 7.76117 39.5271C6.55556 40.7584 6.55556 42.7547 7.76117 43.986C8.96678 45.2182 10.9219 45.2201 12.1312 43.9915L18.2991 37.6802C19.9081 36.0344 22.3311 35.5439 24.4334 36.4378C26.5358 37.3316 27.9013 39.4335 27.8885 41.7579L27.8895 41.7589Z"
      fill="rgba(255,255,255,0.5)" />
  </g>
  <defs>
    <clipPath id="clip0_3070_2515">
      <rect width="108.75" height="15" fill="rgba(255,255,255,0.5)"
        transform="translate(4.33594 32.5)" />
    </clipPath>
  </defs>
</svg>