<svg width="179" height="80" viewBox="0 0 179 80" fill="none" xmlns="http://www.w3.org/2000/svg">
  <g clip-path="url(#clip0_3070_2778)">
    <path
      d="M82.8732 47.7265C82.7625 47.7265 82.6846 47.7265 82.6053 47.7265C81.1367 47.7265 79.6693 47.7227 78.2007 47.7317C77.9857 47.733 77.8587 47.6687 77.7405 47.4784C76.8691 46.0864 75.9851 44.7033 75.1037 43.3176C75.0446 43.2251 75.0056 43.1158 74.8862 43.0387C74.8258 43.1299 74.763 43.2174 74.7064 43.3086C73.8501 44.6981 72.9913 46.0864 72.1413 47.4784C72.0357 47.652 71.925 47.733 71.7125 47.7317C70.435 47.7201 69.1587 47.7265 67.8812 47.7252C67.8045 47.7252 67.7241 47.7458 67.636 47.6983C67.6486 47.5607 67.7781 47.4797 67.8096 47.3358C67.6926 47.3011 67.6084 47.3833 67.5166 47.4206C65.4834 48.26 63.4137 48.3474 61.3239 47.688C59.9031 47.2394 58.7362 46.391 57.8095 45.202C57.7655 45.1455 57.7202 45.0915 57.6749 45.0362C57.6687 45.0285 57.6573 45.0272 57.646 45.0208C57.5982 45.0066 57.5756 45.0478 57.553 45.076C56.5533 46.2805 55.2519 46.9681 53.782 47.3692C52.8528 47.6224 51.9035 47.7111 50.9466 47.7137C49.1561 47.7188 47.3668 47.715 45.5763 47.715C45.526 47.715 45.4757 47.7124 45.4254 47.715C45.311 47.7214 45.2582 47.67 45.2644 47.5517C45.2682 47.4797 45.2644 47.4078 45.2644 47.3358C45.2644 42.45 45.2644 37.5629 45.2644 32.6771C45.2644 32.2478 45.2292 32.2992 45.6354 32.2992C47.3857 32.2979 49.1347 32.3005 50.885 32.2992C52.0368 32.2979 53.1697 32.4162 54.2749 32.7671C55.5512 33.172 56.6577 33.8442 57.5278 34.8944C57.5542 34.9253 57.5832 34.9535 57.6121 34.9818C57.6184 34.9882 57.6297 34.9895 57.6423 34.9934C57.7303 34.9767 57.7579 34.8893 57.8057 34.8276C59.0769 33.1848 60.7354 32.2401 62.7624 31.9676C64.3429 31.7542 65.8883 31.9136 67.3946 32.4547C67.4789 32.4856 67.5656 32.51 67.6486 32.537C67.7492 32.447 67.5908 32.3956 67.6486 32.303C67.7102 32.2683 67.7995 32.2902 67.885 32.2902C69.3335 32.2889 70.7808 32.2928 72.2293 32.2838C72.433 32.2838 72.5537 32.3429 72.6644 32.5216C73.3798 33.6746 74.1066 34.8199 74.8309 35.9664C74.8849 36.0525 74.9403 36.1374 74.9943 36.2209C75.1125 36.2004 75.1301 36.0963 75.1741 36.023C75.8871 34.8558 76.6 33.6913 77.3029 32.5177C77.4048 32.348 77.5091 32.2812 77.7078 32.2825C79.0255 32.2928 80.342 32.2876 81.6598 32.2876H81.8861C81.8496 32.438 81.7654 32.528 81.7 32.627C80.2704 34.8109 78.8382 36.9935 77.4085 39.1774C77.2161 39.4717 77.2111 39.383 77.4098 39.6761C79.1689 42.252 80.9305 44.8254 82.6908 47.4013C82.7525 47.4913 82.8329 47.5723 82.8694 47.7291L82.8732 47.7265ZM67.8586 37.5886C67.7417 37.5243 67.6989 37.4279 67.6348 37.3508C67.1809 36.8045 66.6603 36.3443 66.019 36.041C65.2482 35.6746 64.4397 35.5988 63.6048 35.7248C62.3198 35.9189 61.3591 36.5898 60.7845 37.7801C60.1508 39.0938 60.1394 40.4499 60.6638 41.8047C61.1278 43.0053 61.9941 43.7559 63.2125 44.0824C63.8852 44.2624 64.5642 44.238 65.2457 44.1351C65.8895 44.0387 66.4516 43.7662 66.9583 43.3575C67.2827 43.0965 67.5857 42.8125 67.8536 42.4898C67.9177 42.4127 67.9655 42.3176 68.0698 42.2674C68.6897 42.8613 69.3109 43.4564 69.932 44.0503C70.049 43.9809 70.0892 43.8716 70.1496 43.7804C70.9556 42.5412 71.7603 41.3021 72.5638 40.0617C72.7335 39.8008 72.7474 39.8689 72.5562 39.5874C71.7364 38.383 70.9166 37.1786 70.0942 35.9767C70.0087 35.852 69.9396 35.7132 69.8051 35.5949C69.1537 36.2621 68.5049 36.9266 67.8586 37.5886ZM49.2667 39.9743C49.2667 40.5283 49.2667 41.0823 49.2667 41.6376C49.2667 42.3561 49.2667 43.0747 49.2667 43.7932C49.2667 44.0991 49.268 44.0991 49.5534 44.1004C49.8653 44.1004 50.1771 44.0966 50.4889 44.1004C51.0019 44.1081 51.515 44.0979 52.0192 43.9847C53.4476 43.6634 54.3994 42.7957 54.8257 41.3651C55.0985 40.4512 55.0784 39.518 54.8383 38.6002C54.4749 37.212 53.6249 36.3173 52.2241 36.0114C51.2899 35.807 50.3418 35.8906 49.3988 35.8752C49.3145 35.8739 49.2667 35.9124 49.268 36.0024C49.268 36.0744 49.268 36.1464 49.268 36.2184C49.268 37.4703 49.268 38.7223 49.268 39.9743H49.2667Z"
      fill="rgba(255,255,255,0.5)" />
    <path
      d="M83.0023 32.0472C83.0715 32.0434 83.1407 32.0382 83.2098 32.0382C84.3163 32.0382 85.4228 32.037 86.5293 32.0382C86.8374 32.0382 86.7682 32.0087 86.8575 32.2799C88.0269 35.8353 89.1925 39.392 90.3594 42.9487C90.3933 43.0515 90.4323 43.1505 90.4952 43.3202C90.6888 42.716 90.8598 42.1865 91.0296 41.6556C92.0229 38.5475 93.0162 35.4394 94.0121 32.3326C94.1215 31.9907 94.0511 32.0395 94.3956 32.0382C95.4116 32.0357 96.4276 32.0382 97.4435 32.0382H97.7177C97.7579 32.1809 97.6799 32.2876 97.641 32.3969C96.2729 36.2068 94.8998 40.0154 93.5293 43.8241C93.1106 44.9873 92.6931 46.1519 92.2744 47.3165C92.1864 47.5607 92.1851 47.562 91.9387 47.562C90.8925 47.562 89.8464 47.562 88.8002 47.562C88.5424 47.562 88.5412 47.562 88.4469 47.2985C87.4158 44.432 86.386 41.5656 85.3537 38.6992C84.5992 36.6027 83.8435 34.5062 83.0916 32.4084C83.0514 32.2966 82.9772 32.1886 83.0036 32.0485L83.0023 32.0472Z"
      fill="rgba(255,255,255,0.5)" />
    <path
      d="M16.007 36.8264C15.9215 36.7775 15.8825 36.6772 15.8234 36.5976C15.5657 36.2544 15.2752 35.9433 14.9634 35.6502C14.1473 34.8841 13.1741 34.5499 12.0801 34.5062C9.84953 34.4162 8.35197 35.8263 7.72201 37.3135C6.96003 39.1105 6.91351 40.9216 7.74968 42.7032C8.40227 44.0927 9.47985 44.9963 10.9862 45.2431C12.4058 45.4758 13.7575 45.2637 14.8967 44.2701C15.201 44.004 15.4713 43.6968 15.758 43.4089C15.8511 43.3163 15.929 43.2084 16.0535 43.1338C16.6747 43.684 17.2971 44.2367 17.922 44.7843C18.01 44.8614 18.0138 44.9192 17.9446 45.0131C17.6944 45.3485 17.4253 45.6686 17.1148 45.9463C15.9806 46.9579 14.6955 47.6854 13.2043 47.945C8.75434 48.7189 5.19968 46.0092 4.36225 42.0862C3.88444 39.8445 4.13969 37.6889 5.29901 35.7029C6.55012 33.5602 8.41735 32.312 10.8416 31.9958C12.2336 31.8146 13.6167 31.9187 14.9307 32.4753C16.1453 32.9907 17.1261 33.8275 17.9283 34.8854C17.9975 34.9767 18.0314 35.0422 17.922 35.1386C17.2921 35.6978 16.6684 36.2634 16.0422 36.8264C16.0372 36.8315 16.0233 36.8264 16.0057 36.8264H16.007Z"
      fill="rgba(255,255,255,0.5)" />
    <path
      d="M100.072 43.1068C100.085 43.549 100.231 43.9012 100.468 44.2174C100.985 44.9077 101.691 45.2187 102.522 45.283C103.748 45.3768 104.874 45.0838 105.897 44.3858C105.955 44.3459 106.015 44.3099 106.073 44.2727C106.165 44.3022 106.19 44.3871 106.233 44.4539C106.606 45.0388 106.972 45.6275 107.353 46.2072C107.445 46.346 107.417 46.4064 107.293 46.4938C106.347 47.1597 105.33 47.661 104.185 47.8319C102.991 48.0106 101.797 48.0119 100.634 47.634C98.6609 46.9926 97.455 45.6133 97.0137 43.5644C96.7182 42.1903 96.7961 40.8214 97.3695 39.5244C98.266 37.496 99.8189 36.4137 101.999 36.2839C102.829 36.2351 103.649 36.3045 104.431 36.6181C105.687 37.122 106.541 38.0475 107.079 39.2943C107.481 40.2275 107.645 41.2147 107.678 42.2276C107.684 42.4435 107.681 42.6582 107.678 42.8742C107.675 43.103 107.673 43.1055 107.44 43.1068C106.474 43.1081 105.509 43.1068 104.544 43.1068C103.166 43.1068 101.789 43.1068 100.411 43.1068C100.312 43.1068 100.212 43.1068 100.074 43.1068H100.072ZM100.092 40.9203C100.158 40.9666 100.23 40.9499 100.299 40.9499C101.633 40.9499 102.967 40.9499 104.302 40.9499C104.568 40.9499 104.593 40.9268 104.538 40.6453C104.374 39.8278 103.913 39.2609 103.131 38.9987C102.736 38.8663 102.326 38.8599 101.911 38.9228C101.035 39.0552 100.311 39.7146 100.108 40.5913C100.083 40.7005 100.057 40.8098 100.093 40.9203H100.092Z"
      fill="rgba(255,255,255,0.5)" />
    <path
      d="M163.045 46.3756C162.577 46.6931 162.12 47.0054 161.62 47.2471C160.28 47.8936 158.868 48.0337 157.413 47.8834C156.717 47.8114 156.051 47.6301 155.422 47.3165C154.204 46.7059 153.33 45.7599 152.865 44.4578C152.233 42.6903 152.271 40.9268 153.096 39.2313C153.903 37.5732 155.23 36.5988 157.035 36.3392C157.921 36.2119 158.803 36.2351 159.665 36.4999C161.153 36.9562 162.133 37.9832 162.72 39.4254C163.123 40.4165 163.271 41.4564 163.266 42.5232C163.266 42.7058 163.34 42.9359 163.229 43.0593C163.115 43.1878 162.887 43.1055 162.709 43.1055C160.466 43.1081 158.224 43.1081 155.981 43.1081C155.623 43.1081 155.613 43.112 155.705 43.459C155.942 44.3537 156.551 44.8781 157.385 45.1493C158 45.3498 158.636 45.3087 159.269 45.2509C160.093 45.1763 160.806 44.8074 161.497 44.3781C161.69 44.2572 161.692 44.2547 161.811 44.4423C162.216 45.0773 162.62 45.7136 163.041 46.3769L163.045 46.3756ZM157.918 40.9499C158.591 40.9499 159.264 40.9499 159.936 40.9499C160.156 40.9499 160.156 40.9448 160.135 40.7314C160.048 39.8432 159.318 39.0694 158.449 38.9293C158.108 38.8753 157.771 38.8779 157.43 38.9331C156.569 39.0732 155.818 39.8226 155.674 40.6928C155.635 40.9268 155.651 40.9486 155.9 40.9499C156.573 40.9512 157.245 40.9499 157.918 40.9499Z"
      fill="rgba(255,255,255,0.5)" />
    <path
      d="M138.757 46.4848C138.65 46.5041 138.617 46.5735 138.568 46.6198C137.6 47.5312 136.463 47.9373 135.147 47.8268C134.507 47.7728 133.902 47.6108 133.35 47.2676C132.39 46.6725 131.896 45.7689 131.7 44.6686C131.621 44.2238 131.592 43.7739 131.592 43.3215C131.592 41.207 131.592 39.0938 131.592 36.9793C131.592 36.6246 131.548 36.6464 131.913 36.6464C132.798 36.6464 133.682 36.6464 134.567 36.6464C134.938 36.6464 134.894 36.6143 134.894 36.969C134.894 38.9396 134.895 40.9101 134.894 42.8806C134.894 43.1904 134.922 43.495 135.016 43.7906C135.24 44.4886 135.754 44.8845 136.473 44.9154C137.68 44.9681 138.566 44.184 138.7 42.9384C138.723 42.7251 138.734 42.5091 138.734 42.2932C138.737 40.5489 138.735 38.8046 138.735 37.059C138.735 36.9973 138.735 36.9356 138.735 36.8739C138.74 36.6515 138.74 36.6464 138.944 36.6464C139.9 36.6451 140.854 36.649 141.81 36.6425C141.968 36.6425 142.017 36.6927 142.012 36.8534C142.002 37.2428 142.008 37.6336 142.008 38.0231C142.008 41.0913 142.008 44.1596 142.008 47.2278C142.008 47.5967 142.061 47.5594 141.694 47.5594C140.819 47.5607 139.945 47.5607 139.07 47.5594C138.84 47.5594 138.84 47.5556 138.823 47.3293C138.802 47.053 138.781 46.7779 138.757 46.4823V46.4848Z"
      fill="rgba(255,255,255,0.5)" />
    <path
      d="M112.808 37.802C113.286 37.2659 113.811 36.9189 114.41 36.6875C115.437 36.2903 116.478 36.2749 117.511 36.6335C118.838 37.095 119.588 38.0847 119.866 39.4678C119.952 39.901 119.99 40.3406 119.99 40.7828C119.989 42.9384 119.99 45.094 119.99 47.2496C119.99 47.3113 119.988 47.373 119.99 47.4347C119.995 47.526 119.954 47.5658 119.866 47.562C119.835 47.5607 119.805 47.562 119.775 47.562C118.819 47.562 117.864 47.562 116.909 47.562C116.691 47.562 116.688 47.5581 116.688 47.3178C116.688 45.3472 116.688 43.3754 116.688 41.4049C116.688 41.1697 116.687 40.9345 116.639 40.7005C116.439 39.7133 115.736 39.1838 114.688 39.3264C113.701 39.4614 113.018 40.1877 112.873 41.2224C112.842 41.4461 112.824 41.671 112.825 41.8972C112.828 43.6737 112.827 45.4488 112.827 47.2252C112.827 47.2972 112.823 47.3692 112.827 47.4412C112.832 47.535 112.786 47.5684 112.7 47.5633C112.659 47.5607 112.619 47.5633 112.579 47.5633C111.654 47.5633 110.728 47.5633 109.804 47.5633C109.561 47.5633 109.559 47.5607 109.559 47.3139C109.559 45.63 109.559 43.9474 109.559 42.2636C109.559 40.5077 109.559 38.7532 109.559 36.9973C109.559 36.9253 109.561 36.8533 109.559 36.7814C109.556 36.6939 109.589 36.6464 109.679 36.6477C109.73 36.6477 109.78 36.6477 109.83 36.6477C110.705 36.6477 111.581 36.6477 112.455 36.6477C112.727 36.6477 112.726 36.6502 112.747 36.9343C112.766 37.2004 112.788 37.4652 112.813 37.8032L112.808 37.802Z"
      fill="rgba(255,255,255,0.5)" />
    <path
      d="M30.2194 42.2919C30.2157 44.6647 28.8552 46.7985 26.7855 47.6584C25.8663 48.0402 24.9069 48.1494 23.9199 48.062C22.743 47.9592 21.6868 47.5517 20.8003 46.7522C19.2663 45.3691 18.5986 43.621 18.8463 41.5502C19.0915 39.4974 20.1527 37.9884 21.9583 37.0526C22.9341 36.5461 23.9928 36.442 25.0717 36.5269C26.8961 36.6708 28.3145 37.5295 29.3191 39.0848C29.9214 40.0193 30.2232 41.1479 30.222 42.2906L30.2194 42.2919ZM27.4909 42.1775C27.506 41.86 27.4343 41.4461 27.2922 41.0489C26.8798 39.892 26.1744 39.0578 24.9032 38.901C23.8281 38.7699 22.9203 39.0899 22.2425 39.9897C21.2655 41.2854 21.263 43.2778 22.2375 44.585C22.6977 45.202 23.2874 45.5941 24.0481 45.6866C25.2502 45.8331 26.2297 45.4527 26.8961 44.3832C27.2935 43.7457 27.4934 43.0438 27.4909 42.1775Z"
      fill="rgba(255,255,255,0.5)" />
    <path
      d="M172.541 39.7236C171.948 39.356 171.372 39.0462 170.722 38.9113C170.215 38.8071 169.706 38.775 169.194 38.8727C168.994 38.9113 168.806 38.9742 168.646 39.1092C168.328 39.3791 168.306 39.8098 168.598 40.1093C168.75 40.2661 168.944 40.3509 169.145 40.4216C169.799 40.6555 170.468 40.8381 171.134 41.0283C171.688 41.1864 172.22 41.3947 172.711 41.7044C173.622 42.2777 174.083 43.1145 174.128 44.1994C174.147 44.6531 174.119 45.1005 173.967 45.5336C173.732 46.2008 173.277 46.6789 172.712 47.0633C172.055 47.5093 171.315 47.7407 170.545 47.8499C169.077 48.0594 167.639 47.9129 166.247 47.3782C165.697 47.1674 165.193 46.8743 164.752 46.4758C164.595 46.3332 164.595 46.3293 164.722 46.1596C165.181 45.5491 165.642 44.9411 166.104 44.3318C166.14 44.2842 166.168 44.2251 166.247 44.2084C166.905 44.7637 167.677 45.0915 168.518 45.2508C169.149 45.3704 169.78 45.3614 170.394 45.148C170.775 45.0156 170.941 44.7624 170.931 44.3896C170.923 44.13 170.799 43.9449 170.594 43.8073C170.349 43.6428 170.077 43.5323 169.8 43.4423C169.322 43.288 168.841 43.1454 168.359 43.004C167.856 42.8562 167.372 42.6595 166.904 42.4217C166.542 42.2379 166.224 41.9924 165.925 41.7121C164.856 40.7095 164.817 38.6619 166.021 37.5475C166.617 36.996 167.304 36.6271 168.085 36.4613C169.924 36.0731 171.7 36.2415 173.38 37.1516C173.522 37.2287 173.653 37.3264 173.794 37.4035C173.926 37.4768 173.921 37.5487 173.842 37.6696C173.542 38.131 173.254 38.6002 172.961 39.0668C172.827 39.2815 172.69 39.4948 172.544 39.7236H172.541Z"
      fill="rgba(255,255,255,0.5)" />
    <path
      d="M129.262 44.6493C129.686 45.3061 130.091 45.9411 130.507 46.5697C130.604 46.7175 130.511 46.765 130.422 46.8345C129.797 47.3178 129.11 47.67 128.342 47.8371C127.401 48.0414 126.46 48.0235 125.54 47.733C124.462 47.3923 123.776 46.6327 123.435 45.5426C123.223 44.8627 123.139 44.1608 123.137 43.45C123.134 42.1775 123.137 40.9049 123.137 39.6311C123.137 39.5694 123.132 39.5077 123.137 39.446C123.149 39.3265 123.1 39.2853 122.983 39.2866C122.621 39.2917 122.259 39.2879 121.896 39.2879C121.826 39.2879 121.756 39.2879 121.685 39.2879C121.451 39.284 121.449 39.2827 121.448 39.0552C121.445 38.6555 121.448 38.2544 121.448 37.8547C121.448 37.5153 121.454 37.1773 121.445 36.8379C121.441 36.6888 121.49 36.6413 121.634 36.6438C122.036 36.6515 122.438 36.6477 122.841 36.6464C123.151 36.6464 123.137 36.6888 123.137 36.3533C123.137 35.3674 123.137 34.3828 123.137 33.3969C123.137 33.3249 123.139 33.2529 123.137 33.181C123.137 33.1051 123.175 33.0691 123.247 33.0666C123.297 33.0653 123.347 33.0653 123.398 33.0653C124.323 33.0653 125.247 33.0653 126.173 33.0653C126.438 33.0653 126.439 33.0678 126.439 33.3596C126.439 34.3661 126.439 35.3713 126.439 36.3777C126.439 36.6438 126.442 36.6451 126.7 36.6464C127.454 36.6464 128.209 36.6464 128.962 36.6464C129.194 36.6464 129.198 36.6503 129.198 36.8791C129.201 37.6079 129.201 38.3367 129.198 39.0655C129.198 39.2802 129.192 39.2853 128.976 39.2866C128.211 39.2892 127.447 39.2866 126.683 39.2879C126.442 39.2879 126.439 39.2905 126.439 39.5373C126.439 40.9023 126.439 42.2674 126.439 43.6325C126.439 43.923 126.475 44.2058 126.575 44.4783C126.75 44.9501 127.092 45.1892 127.584 45.2226C128.074 45.2547 128.518 45.1223 128.929 44.8575C129.031 44.792 129.134 44.729 129.262 44.648V44.6493Z"
      fill="rgba(255,255,255,0.5)" />
    <path
      d="M37.0836 38.0475C37.4344 37.7107 37.7601 37.4408 38.1122 37.2004C38.859 36.6901 39.6952 36.5847 40.5628 36.622C41.067 36.6438 41.5625 36.7287 42.0315 36.9279C43.1417 37.4009 43.7918 38.2827 44.1313 39.4319C44.2885 39.9666 44.3413 40.5167 44.3413 41.0733C44.3413 43.1878 44.3413 45.3023 44.3413 47.4168C44.3413 47.4579 44.3375 47.499 44.3413 47.5401C44.3526 47.6571 44.3073 47.7073 44.1879 47.7034C44.0068 47.697 43.8258 47.7021 43.6447 47.7021C43.0713 47.7021 42.498 47.7021 41.9258 47.7021C41.6065 47.7021 41.6656 47.6751 41.6656 47.4335C41.6656 45.4938 41.6656 43.5541 41.6656 41.6132C41.6656 41.2546 41.6819 40.8959 41.609 40.5399C41.4204 39.6067 40.6735 38.9768 39.7443 38.9794C38.4579 38.9833 37.4369 39.8702 37.198 41.1903C37.1553 41.4229 37.1389 41.6569 37.1389 41.8947C37.1414 43.7007 37.1389 45.5079 37.1389 47.3139C37.1389 47.3756 37.1314 47.4386 37.1402 47.499C37.1653 47.67 37.0836 47.7047 36.934 47.7034C36.1695 47.6983 35.405 47.697 34.6417 47.7034C34.477 47.7047 34.4368 47.643 34.4418 47.4874C34.4506 47.1391 34.4443 46.7895 34.4443 46.4411V37.2672C34.4443 37.2055 34.4431 37.1438 34.4443 37.0822C34.4506 36.8598 34.4506 36.8546 34.6568 36.8533C35.3811 36.8508 36.1053 36.8559 36.8284 36.8495C36.973 36.8482 37.0195 36.8971 37.0232 37.0423C37.032 37.3572 37.0585 37.6721 37.0823 38.0475H37.0836Z"
      fill="rgba(255,255,255,0.5)" />
    <path
      d="M147.698 37.9511C147.92 37.7313 148.106 37.5449 148.293 37.3611C149.055 36.6155 149.979 36.3662 151.008 36.4407C151.298 36.4613 151.586 36.4934 151.868 36.5834C152.005 36.6271 152.03 36.6862 152.004 36.8276C151.844 37.694 151.693 38.5603 151.545 39.4293C151.519 39.5745 151.469 39.5989 151.325 39.5655C150.741 39.4293 150.153 39.392 149.564 39.5398C148.527 39.7995 147.847 40.6041 147.751 41.6929C147.733 41.8972 147.727 42.1029 147.727 42.3073C147.725 43.9282 147.727 45.549 147.727 47.1699C147.727 47.2419 147.722 47.3139 147.727 47.3859C147.738 47.5144 147.696 47.58 147.56 47.5658C147.501 47.5594 147.439 47.5658 147.379 47.5658C146.525 47.5658 145.67 47.5658 144.816 47.5658C144.558 47.5658 144.429 47.439 144.429 47.1854C144.429 44.0876 144.429 40.9885 144.429 37.8906C144.429 37.5423 144.434 37.1927 144.427 36.8443C144.423 36.7017 144.462 36.6464 144.611 36.6477C145.546 36.6541 146.481 36.6528 147.415 36.6477C147.544 36.6477 147.596 36.6927 147.605 36.8199C147.633 37.185 147.664 37.5513 147.698 37.9562V37.9511Z"
      fill="rgba(255,255,255,0.5)" />
    <path
      d="M30.7378 42.2597C30.7378 40.5977 30.7378 38.9357 30.7378 37.2737C30.7378 37.212 30.7378 37.1503 30.7378 37.0886C30.7428 36.8572 30.7428 36.8534 30.9729 36.8534C31.7072 36.8521 32.4403 36.8521 33.1746 36.8534C33.4148 36.8534 33.4173 36.8572 33.4186 37.1117C33.4198 37.8097 33.4186 38.5077 33.4186 39.2043C33.4186 41.923 33.4186 44.6429 33.4186 47.3615C33.4186 47.7471 33.4626 47.6983 33.0778 47.6995C32.3837 47.7021 31.6909 47.6995 30.9968 47.6995C30.7064 47.6995 30.739 47.6931 30.739 47.4283C30.739 45.7046 30.739 43.9809 30.739 42.2572L30.7378 42.2597Z"
      fill="rgba(255,255,255,0.5)" />
    <path
      d="M33.3732 32.2889C33.4348 32.3776 33.4172 32.4624 33.4172 32.5434C33.4172 33.3326 33.4184 34.1219 33.4172 34.9124C33.4172 35.1695 33.4134 35.1733 33.1808 35.1733C32.4477 35.1746 31.7146 35.1746 30.9816 35.1733C30.7439 35.1733 30.7389 35.1695 30.7389 34.9497C30.7364 34.1296 30.7389 33.3095 30.7389 32.4894C30.7389 32.384 30.7301 32.2876 30.886 32.2876C31.7197 32.2927 32.5521 32.2902 33.3744 32.2902L33.3732 32.2889Z"
      fill="rgba(255,255,255,0.5)" />
  </g>
  <defs>
    <clipPath id="clip0_3070_2778">
      <rect width="170" height="16.25" fill="rgba(255,255,255,0.5)"
        transform="translate(4.13477 31.875)" />
    </clipPath>
  </defs>
</svg>