<svg width="147" height="80" viewBox="0 0 147 80" fill="none" xmlns="http://www.w3.org/2000/svg">
  <g clip-path="url(#clip0_3070_2462)">
    <path d="M91.2932 31.875H90.9873V48.125H91.2932V31.875Z" fill="rgba(255,255,255,0.5)" />
    <path
      d="M97.8323 40.3424C97.8008 38.5923 99.193 37.1475 100.941 37.116C100.988 37.116 101.035 37.116 101.082 37.116C102.002 37.0673 102.898 37.4187 103.542 38.0797L102.668 39.0827C102.25 38.6494 101.678 38.397 101.077 38.3808C100.057 38.4013 99.2458 39.2456 99.2662 40.2665C99.2662 40.2861 99.2671 40.3057 99.268 40.3254C99.2092 41.348 99.9905 42.2247 101.012 42.2836C101.033 42.2844 101.055 42.2853 101.077 42.2861C101.7 42.2827 102.293 42.0183 102.713 41.5561L103.614 42.4584C102.413 43.8222 100.334 43.9518 98.9723 42.7493C98.2864 42.1437 97.8834 41.2789 97.8604 40.3637L97.8323 40.3416V40.3424Z"
      fill="rgba(255,255,255,0.5)" />
    <path
      d="M107.354 37.162H108.623L111.294 43.4461H109.858L109.302 42.0482H106.664L106.108 43.4461H104.705L107.354 37.162V37.162ZM108.796 40.8328L107.967 38.8106L107.138 40.8328H108.796Z"
      fill="rgba(255,255,255,0.5)" />
    <path
      d="M112.958 37.2064H115.506C116.992 37.2064 117.894 38.0866 117.894 39.3625C117.894 40.8107 116.781 41.557 115.373 41.557H114.332V43.429H112.958V37.2064ZM115.418 40.3535C115.949 40.4184 116.432 40.0397 116.496 39.5083C116.5 39.4742 116.502 39.4401 116.502 39.4068C116.502 38.7945 116.08 38.4601 115.39 38.4601H114.332V40.3706L115.418 40.3535V40.3535Z"
      fill="rgba(255,255,255,0.5)" />
    <path d="M120.037 37.2064H121.423V43.4452H120.048L120.037 37.2064V37.2064Z"
      fill="rgba(255,255,255,0.5)" />
    <path d="M125.491 38.4704H123.594V37.2055H128.758V38.4704H126.86V43.4452H125.491V38.4704Z"
      fill="rgba(255,255,255,0.5)" />
    <path
      d="M132.035 37.162H133.299L135.97 43.4461H134.54L133.983 42.0482H131.328L130.772 43.4461H129.375L132.035 37.162V37.162ZM133.477 40.8328L132.648 38.8106L131.819 40.8328H133.477Z"
      fill="rgba(255,255,255,0.5)" />
    <path d="M137.645 37.2064H139.014V42.2196H142.125V43.4674H137.673L137.645 37.2055V37.2064Z"
      fill="rgba(255,255,255,0.5)" />
    <path
      d="M10.6781 32.2648L4 36.1309V43.8683L10.6781 47.7344L17.3562 43.8683V36.1309L10.6781 32.2648ZM16.7998 43.5288L10.6781 47.0555L4.55636 43.5288V36.4712L10.6781 32.9445L16.7998 36.4712V43.5297V43.5288Z"
      fill="rgba(255,255,255,0.5)" />
    <path d="M13.3159 35.6072H8.05732L7.45068 38.287H13.9507L13.3159 35.6072Z"
      fill="rgba(255,255,255,0.5)" />
    <path
      d="M8.9918 41.98V40.1974L7.43346 39.2064L5.66895 40.5207L8.07333 44.7041H9.03099L10.1659 43.6457V43.1109L8.9918 41.98Z"
      fill="rgba(255,255,255,0.5)" />
    <path
      d="M12.4034 38.6938H8.99707L9.57047 40.1923L9.3924 41.8742H10.6951L12.003 41.8691L11.8411 40.1923L12.4034 38.6938Z"
      fill="rgba(255,255,255,0.5)" />
    <path
      d="M13.9616 39.1953L12.4194 40.1975V41.98L11.2454 43.1109V43.6457L12.3751 44.6879H13.3268L15.7142 40.5207L13.9616 39.1953Z"
      fill="rgba(255,255,255,0.5)" />
    <path
      d="M24.8855 43.5732C23.2079 43.5945 21.8293 42.2512 21.808 40.571C21.808 40.5429 21.808 40.5147 21.808 40.4866C21.7808 38.7885 23.1329 37.3898 24.8293 37.3616C24.8514 37.3616 24.8744 37.3616 24.8966 37.3616C25.8031 37.3232 26.6781 37.7002 27.2728 38.3868L26.4268 39.3002C26.0502 38.8345 25.4845 38.5625 24.8855 38.5591C23.8997 38.5966 23.1312 39.4273 23.1687 40.4141C23.1687 40.4303 23.1704 40.4474 23.1712 40.4636C23.1065 41.4614 23.8622 42.3228 24.8591 42.3877C24.8898 42.3894 24.9213 42.3911 24.952 42.3911C25.5484 42.374 26.1098 42.1019 26.4932 41.6448L27.3171 42.4585C26.7258 43.1911 25.8253 43.6039 24.8855 43.5723V43.5732Z"
      fill="rgba(255,255,255,0.5)" />
    <path
      d="M29.9055 43.5731H28.5422V37.3735H29.9055V38.8277C30.202 37.9236 31.065 37.3283 32.0142 37.3735V38.8166H31.9367C30.7404 38.8166 29.9055 39.5961 29.9055 41.1731V43.574V43.5731Z"
      fill="rgba(255,255,255,0.5)" />
    <path
      d="M39.1541 37.3625L36.138 45.2508H34.7577L35.4146 43.5791L32.833 37.3625H34.2848L36.0494 41.9527L37.7406 37.3625H39.1541Z"
      fill="rgba(255,255,255,0.5)" />
    <path
      d="M43.5121 43.5732C42.7069 43.58 41.952 43.1851 41.4979 42.5207V45.2448H40.1125V37.3625H41.4758V38.4763C41.9111 37.7821 42.672 37.3616 43.4899 37.3625C44.8983 37.3625 46.2726 38.4763 46.2726 40.4653C46.2726 42.4542 44.9094 43.574 43.5121 43.574V43.5732ZM43.2002 38.5599C42.2136 38.5846 41.4349 39.406 41.4596 40.3928C41.4596 40.4209 41.4613 40.4482 41.4638 40.4763C41.3957 41.4648 42.1412 42.3211 43.1287 42.3894C43.1525 42.3911 43.1764 42.3919 43.2002 42.3928C44.1613 42.3578 44.9128 41.5493 44.877 40.5864C44.8753 40.5497 44.8727 40.513 44.8693 40.4763C44.9588 39.5117 44.2499 38.6563 43.2863 38.5667C43.2505 38.5633 43.2139 38.5608 43.1781 38.5599H43.2002V38.5599Z"
      fill="rgba(255,255,255,0.5)" />
    <path
      d="M49.2547 38.6605V41.58C49.1993 41.9356 49.4421 42.2691 49.7974 42.3245C49.8588 42.3339 49.9218 42.3348 49.9832 42.3262H50.5395V43.574H49.5878C48.5918 43.574 47.9187 43.1279 47.9187 41.8247V38.6605H47.134V37.4853H47.8906V35.8528H49.2538V37.4853H50.5174V38.6605H49.2538H49.2547Z"
      fill="rgba(255,255,255,0.5)" />
    <path
      d="M54.8371 43.5732C53.1347 43.6167 51.7204 42.2699 51.6769 40.5659C51.6769 40.5377 51.6761 40.5096 51.6761 40.4814C51.6267 38.7254 53.0095 37.2618 54.7638 37.2123C56.5181 37.1629 57.9801 38.5471 58.0296 40.3032C58.079 42.0593 56.6962 43.5228 54.9419 43.5723C54.9069 43.5732 54.872 43.574 54.8371 43.5732V43.5732ZM54.8371 38.5599C53.8504 38.5548 53.0461 39.3514 53.041 40.339C53.041 40.3808 53.0419 40.4235 53.0444 40.4652C52.995 41.4793 53.7763 42.3416 54.7893 42.3911C54.8123 42.3919 54.8354 42.3928 54.8584 42.3928C55.8484 42.4004 56.657 41.6047 56.6646 40.6136C56.6646 40.5719 56.6646 40.5292 56.6612 40.4874C56.7072 39.4699 55.9208 38.6077 54.9044 38.5616C54.8814 38.5608 54.8584 38.5599 54.8354 38.5599H54.8371Z"
      fill="rgba(255,255,255,0.5)" />
    <path
      d="M71.0646 43.5732C69.3657 43.6167 67.953 42.2725 67.9104 40.5719C67.9104 40.542 67.9096 40.5122 67.9096 40.4815C67.8636 38.7288 69.2455 37.2695 70.9973 37.2234C72.7482 37.1774 74.2059 38.5608 74.252 40.3143C74.298 42.067 72.916 43.5263 71.1643 43.5723C71.131 43.5732 71.0987 43.5732 71.0654 43.5732H71.0646ZM71.0646 38.5599C70.0779 38.5548 69.2736 39.3514 69.2685 40.339C69.2685 40.3808 69.2694 40.4235 69.2719 40.4653C69.2225 41.4793 70.0038 42.3416 71.0169 42.3911C71.0399 42.3919 71.0629 42.3928 71.0859 42.3928C72.0759 42.4004 72.8845 41.6047 72.8921 40.6137C72.8921 40.5719 72.8921 40.5292 72.8887 40.4874C72.9347 39.4699 72.1483 38.6077 71.1319 38.5616C71.1089 38.5608 71.0859 38.5599 71.0629 38.5599H71.0646Z"
      fill="rgba(255,255,255,0.5)" />
    <path
      d="M82.3613 37.3624C83.6521 37.3624 84.4428 38.1872 84.4428 39.6405V43.5731H83.0796V40.0584C83.0796 39.1117 82.6399 38.6042 81.8723 38.6042C81.1046 38.6042 80.6036 39.1219 80.6036 40.0806V43.5731H79.2404V40.0465C79.2404 39.1219 78.7897 38.6034 78.0331 38.6034C77.2765 38.6034 76.7585 39.1603 76.7585 40.0908V43.5723H75.3953V37.3624H76.7585V38.3876C77.1444 37.7539 77.8312 37.3659 78.5724 37.3624C79.3179 37.3283 80.0132 37.7394 80.3421 38.4098C80.8013 37.7479 81.557 37.3565 82.3622 37.3624H82.3613Z"
      fill="rgba(255,255,255,0.5)" />
    <path
      d="M60.5192 42.3254V43.0162C60.5209 43.0461 60.5055 43.0742 60.48 43.0887L59.8844 43.4342C59.8597 43.4452 59.8316 43.4452 59.8069 43.4342L59.2113 43.0887C59.1875 43.0725 59.173 43.0452 59.1721 43.0162V42.3254C59.1721 42.2981 59.1875 42.2725 59.2113 42.2589L59.8069 41.9135C59.8299 41.8964 59.8614 41.8964 59.8844 41.9135L60.48 42.2589C60.5055 42.2708 60.5217 42.2973 60.5192 42.3254Z"
      fill="rgba(255,255,255,0.5)" />
    <path
      d="M64.659 43.5732C62.9805 43.5621 61.6301 42.1906 61.6412 40.5113C61.6412 40.4832 61.6412 40.4542 61.6429 40.426C61.6488 38.7279 63.0283 37.3556 64.7246 37.3608C64.7476 37.3608 64.7698 37.3608 64.7928 37.3616C65.701 37.3411 66.5684 37.7352 67.152 38.4311L66.3281 39.3224C65.949 38.8473 65.3773 38.5676 64.7698 38.5591C63.7772 38.5829 62.9916 39.4077 63.0155 40.4004C63.0155 40.4124 63.0155 40.4243 63.0163 40.4363C62.9388 41.4393 63.6886 42.3152 64.6905 42.3928C64.7152 42.3945 64.7391 42.3962 64.7638 42.397C65.3602 42.3902 65.926 42.1309 66.3221 41.684L67.129 42.5088C66.5181 43.2329 65.603 43.6269 64.6582 43.5732H64.659Z"
      fill="rgba(255,255,255,0.5)" />
  </g>
  <defs>
    <clipPath id="clip0_3070_2462">
      <rect width="138.125" height="16.25" fill="rgba(255,255,255,0.5)"
        transform="translate(4 31.875)" />
    </clipPath>
  </defs>
</svg>