<svg width="25" height="24" viewBox="0 0 25 24" fill="none" xmlns="http://www.w3.org/2000/svg">
<path d="M22.3867 9.15876C21.8788 7.59567 20.201 6.74027 18.6379 7.2482C17.5094 7.6148 16.7496 8.59239 16.6062 9.69644L13.8083 10.605V7.66368C14.8136 7.18657 15.5085 6.16222 15.5085 4.97529C15.5085 3.3325 14.176 2 12.5332 2C10.8904 2 9.55791 3.3325 9.55791 4.97529C9.55791 6.16222 10.2529 7.18657 11.2581 7.66368V10.605L8.46024 9.69644C8.31679 8.59345 7.55703 7.61586 6.42855 7.2482C4.86546 6.74027 3.1876 7.59567 2.67968 9.15876C2.17176 10.7219 3.02715 12.3997 4.59024 12.9076C5.71873 13.2742 6.90778 12.9299 7.67285 12.1213L10.4707 13.0298L8.74183 15.409C7.64841 15.205 6.4838 15.6247 5.78567 16.5853C4.81976 17.9146 5.11411 19.7752 6.44342 20.7411C7.77274 21.707 9.63336 21.4127 10.5993 20.0834C11.2963 19.1228 11.3367 17.8859 10.8043 16.9094L12.5332 14.5302L14.2621 16.9094C13.7297 17.887 13.769 19.1239 14.4671 20.0834C15.433 21.4127 17.2937 21.707 18.623 20.7411C19.9523 19.7752 20.2466 17.9146 19.2807 16.5853C18.5837 15.6247 17.4191 15.205 16.3246 15.409L14.5957 13.0298L17.3936 12.1213C18.1586 12.9299 19.3477 13.2742 20.4762 12.9076C22.0393 12.3997 22.8947 10.7219 22.3867 9.15876Z" fill="white"/>
</svg>
