<svg width="115" height="72" viewBox="0 0 115 72" fill="none" xmlns="http://www.w3.org/2000/svg">
  <g clip-path="url(#clip0_3070_2717)">
    <path d="M24.0027 26.625H20.6309V45.375H24.0027V26.625Z" fill="rgba(255,255,255,0.5)" />
    <path fill-rule="evenodd" clip-rule="evenodd"
      d="M4.61377 26.625C11.5974 26.625 17.259 30.8221 17.259 36C17.259 41.1779 11.7101 45.2912 4.82281 45.3738L4.61377 45.375V42.1143C9.73486 42.1143 13.8865 39.3768 13.8865 36C13.8865 32.6232 9.73486 29.8857 4.61377 29.8857V26.625Z"
      fill="rgba(255,255,255,0.5)" />
    <path
      d="M36.6787 32.7773L39.7446 40.2539L42.8268 32.7773H46.4144L41.0582 45.0592H38.4304L33.0906 32.7773H36.6781H36.6787ZM52.6091 39.6674C52.508 39.2549 52.3001 38.9232 51.9857 38.6736C51.6712 38.424 51.2895 38.2992 50.8405 38.2992C50.3691 38.2992 49.9844 38.4187 49.6869 38.6578C49.3894 38.8969 49.2009 39.2332 49.1228 39.668H52.6098L52.6091 39.6674ZM49.038 41.3777C49.038 42.648 49.6554 43.2838 50.8908 43.2838C51.5531 43.2838 52.0529 43.023 52.3898 42.5021H55.3375C54.7425 44.4135 53.2544 45.3691 50.8738 45.3691C50.1437 45.3691 49.476 45.2631 48.8695 45.0516C48.263 44.84 47.7437 44.5383 47.3111 44.1475C46.8785 43.7566 46.5447 43.2896 46.309 42.7465C46.0733 42.2033 45.9551 41.5951 45.9551 40.9219C45.9551 40.2486 46.0672 39.6 46.292 39.0404C46.5168 38.4814 46.8367 38.0062 47.2524 37.6148C47.668 37.224 48.1703 36.9229 48.7598 36.7107C49.3494 36.4992 50.0147 36.3932 50.7557 36.3932C51.4967 36.3932 52.1426 36.4992 52.7267 36.7107C53.3108 36.9223 53.8046 37.2293 54.2087 37.6312C54.6129 38.0332 54.9219 38.5242 55.1352 39.1055C55.3484 39.6867 55.4551 40.3406 55.4551 41.0684V41.3777H49.0373H49.038ZM57.0347 36.7025H60.0836V37.7613C60.4992 37.2727 60.9203 36.9439 61.3469 36.7758C61.7734 36.6076 62.2733 36.5232 62.8459 36.5232C63.4524 36.5232 63.9717 36.6182 64.4043 36.808C64.8369 36.9979 65.2041 37.2668 65.5076 37.6143C65.7548 37.8967 65.9233 38.2113 66.0129 38.5588C66.1026 38.9062 66.1475 39.3029 66.1475 39.7477V45.058H63.0985V40.8393C63.0985 40.4268 63.0676 40.0928 63.0058 39.8373C62.944 39.5818 62.8344 39.3785 62.6774 39.2262C62.5429 39.0961 62.3908 39.0035 62.2224 38.949C62.054 38.8945 61.874 38.8676 61.6832 38.8676C61.1663 38.8676 60.7707 39.017 60.4956 39.3158C60.2205 39.6146 60.083 40.0406 60.083 40.5943V45.0574H57.0341V36.7031L57.0347 36.7025ZM71.4655 39.1623V45.0592H68.4166V39.1623H67.4059V36.7025H68.4166V34.1941H71.4655V36.7025H73.2002V39.1623H71.4655V39.1623ZM77.2385 36.7025V41.41C77.2385 42.4418 77.7553 42.9574 78.7884 42.9574C79.8215 42.9574 80.3383 42.4418 80.3383 41.41V36.7025H83.3872V41.9801C83.3872 43.1092 83.0025 43.9564 82.2336 44.5213C81.4641 45.0861 80.3159 45.3686 78.789 45.3686C77.2621 45.3686 76.1133 45.0861 75.3445 44.5213C74.575 43.9564 74.1908 43.1098 74.1908 41.9801V36.7025H77.2397H77.2385ZM85.3025 36.7025H88.3514V38.0707C88.6768 37.5709 89.0754 37.1883 89.5474 36.9223C90.0188 36.6563 90.5696 36.5232 91.1979 36.5232H91.4591C91.5548 36.5232 91.6639 36.5344 91.7875 36.5561V39.3738C91.3833 39.1781 90.9453 39.0809 90.4739 39.0809C89.7662 39.0809 89.236 39.2842 88.8822 39.692C88.5283 40.0992 88.3514 40.6939 88.3514 41.4756V45.0592H85.3025V36.7031V36.7025ZM99.4134 39.6674C99.3122 39.2549 99.1044 38.9232 98.7899 38.6736C98.4754 38.424 98.0937 38.2992 97.6447 38.2992C97.1733 38.2992 96.7886 38.4187 96.4911 38.6578C96.1936 38.8969 96.0052 39.2332 95.927 39.668H99.414L99.4134 39.6674ZM95.8422 41.3777C95.8422 42.648 96.4596 43.2838 97.695 43.2838C98.3573 43.2838 98.8571 43.023 99.194 42.5021H102.142C101.547 44.4135 100.059 45.3691 97.6781 45.3691C96.9479 45.3691 96.2802 45.2631 95.6737 45.0516C95.0672 44.84 94.548 44.5383 94.116 44.1475C93.6833 43.7566 93.3495 43.2896 93.1138 42.7465C92.8781 42.2033 92.7599 41.5951 92.7599 40.9219C92.7599 40.2486 92.872 39.6 93.0968 39.0404C93.3216 38.4814 93.6415 38.0062 94.0572 37.6148C94.4728 37.224 94.9751 36.9229 95.5647 36.7107C96.1542 36.4992 96.8195 36.3932 97.5605 36.3932C98.3015 36.3932 98.9474 36.4992 99.5315 36.7107C100.116 36.9223 100.609 37.2293 101.014 37.6312C101.418 38.0332 101.727 38.5242 101.94 39.1055C102.153 39.6867 102.26 40.3406 102.26 41.0684V41.3777H95.8422ZM109.566 38.8529C109.004 38.5705 108.454 38.4293 107.915 38.4293C107.635 38.4293 107.407 38.4838 107.233 38.5922C107.059 38.7006 106.972 38.8477 106.972 39.0322C106.972 39.1301 106.986 39.2086 107.014 39.2684C107.042 39.3281 107.103 39.385 107.199 39.4395C107.295 39.4939 107.435 39.5426 107.62 39.5859C107.806 39.6293 108.05 39.6838 108.353 39.7488C109.195 39.9117 109.824 40.2023 110.24 40.6201C110.655 41.0385 110.863 41.5729 110.863 42.2244C110.863 42.7131 110.762 43.1531 110.56 43.5439C110.358 43.9348 110.077 44.2635 109.718 44.5295C109.359 44.7955 108.926 45.0018 108.421 45.1482C107.915 45.2947 107.36 45.368 106.753 45.368C105.586 45.368 104.434 45.0475 103.3 44.407L104.412 42.3223C105.266 42.8871 106.074 43.1695 106.837 43.1695C107.118 43.1695 107.348 43.1098 107.528 42.9902C107.708 42.8707 107.798 42.7189 107.798 42.5344C107.798 42.426 107.784 42.3363 107.756 42.2654C107.728 42.1945 107.669 42.1295 107.579 42.0697C107.489 42.01 107.357 41.9555 107.183 41.9068C107.01 41.8582 106.782 41.8066 106.501 41.7521C105.558 41.5676 104.898 41.2934 104.522 40.9295C104.146 40.5656 103.958 40.0635 103.958 39.4225C103.958 38.9555 104.048 38.5348 104.228 38.1604C104.408 37.7859 104.666 37.4684 105.003 37.2076C105.34 36.9469 105.747 36.7459 106.224 36.6047C106.702 36.4635 107.232 36.3932 107.816 36.3932C108.77 36.3932 109.697 36.5725 110.595 36.9305L109.568 38.8523L109.566 38.8529Z"
      fill="rgba(255,255,255,0.5)" />
  </g>
  <defs>
    <clipPath id="clip0_3070_2717">
      <rect width="106.25" height="18.75" fill="rgba(255,255,255,0.5)"
        transform="translate(4.61377 26.625)" />
    </clipPath>
  </defs>
</svg>