<svg width="103" height="80" viewBox="0 0 103 80" fill="none" xmlns="http://www.w3.org/2000/svg">
  <g clip-path="url(#clip0_3070_2349)">
    <path
      d="M31.8732 26.7914C31.4073 29.0383 30.9655 31.1664 30.4974 33.4331C26.7084 31.8552 22.9985 30.3125 19.1435 28.706V44.7821H17.6556V28.5674C13.7566 30.2223 10.0313 31.8024 6.12803 33.4595C5.66429 31.2214 5.21594 29.0493 4.75 26.7914H31.8732ZM29.5567 31.6505C29.8249 30.3477 30.0556 29.2232 30.2886 28.0986H21.3721L21.3589 28.2306C24.0424 29.3486 26.726 30.4688 29.5589 31.6483L29.5567 31.6505ZM7.0687 31.6681L15.4578 28.0898H6.31924C6.57638 29.3178 6.81375 30.4446 7.07089 31.6659L7.0687 31.6681Z"
      fill="rgba(255,255,255,0.5)" />
    <path
      d="M11.5303 37.6761H14.9083V39.1153H12.8314V49.8151H23.6512V39.2077C23.0534 39.1747 22.4534 39.1417 21.8073 39.1065V37.7003H25.1985V51.3468H11.5303V37.6761Z"
      fill="rgba(255,255,255,0.5)" />
    <path
      d="M37.7347 27.2557L36.3413 26.8926C36.5831 26.6967 36.682 26.5471 36.7787 26.5471C38.7831 26.5757 40.8007 26.4921 42.7875 26.7011C44.5897 26.8904 45.6974 28.0832 46.1348 29.8591C47.1348 33.9261 44.8073 36.9366 40.6336 36.9652C39.5369 36.9718 38.4424 36.974 37.3457 36.9608C37.0556 36.9586 36.7655 36.8926 36.4776 36.8574L36.46 36.5427C36.8578 36.4437 37.2578 36.3468 37.7347 36.228V27.2557ZM39.2556 36.0145C41.438 36.5713 42.8798 36.2192 43.8424 34.9142C44.9809 33.3715 45.1238 30.6316 44.1216 29.0075C42.9919 27.1787 41.2227 27.0378 39.2556 27.2183V36.0145Z"
      fill="rgba(255,255,255,0.5)" />
    <path
      d="M88.6911 30.8495H85.6296V36.2324C86.0076 36.3424 86.3812 36.4503 86.7571 36.5581L86.7131 36.8332H83.2537L83.2076 36.6483C83.5461 36.5053 83.8845 36.3622 84.2142 36.2236V30.8539L83.0823 30.7615C83.0318 30.6778 82.9834 30.5964 82.9329 30.5128C83.3021 30.2751 83.6713 30.0374 84.2076 29.6919C85.3131 26.4987 85.9197 25.9221 89.8626 26.3953V36.1796L91.0714 36.6285C91.0582 36.7034 91.045 36.776 91.0318 36.8508H87.8516C88.9746 36.4129 88.6889 35.482 88.6933 34.6743C88.6999 33.4397 88.6933 32.2051 88.6933 30.8473L88.6911 30.8495ZM85.2559 29.9934H88.6054V27.3834C87.7351 27.4626 86.7549 27.2755 86.2186 27.6783C85.6889 28.0766 85.6076 29.0669 85.2559 29.9934Z"
      fill="rgba(255,255,255,0.5)" />
    <path
      d="M60.8141 37.0621C59.6404 35.8275 59.6492 35.7835 61.2031 34.4454C59.8075 33.2328 59.5481 32.2403 60.3371 31.1202C61.2954 29.7601 63.08 29.474 64.7701 30.3763C65.324 30.1254 65.8471 29.89 66.5196 29.5863V30.8297C65.68 30.8011 65.3064 31.085 65.3548 32.0379C65.4163 33.2284 64.3482 34.0911 62.8229 34.5335C62.2273 34.7051 61.6976 35.1056 61.1393 35.4005L61.2404 35.8099C61.5965 35.8935 61.9503 36.0321 62.3086 36.0475C63.1108 36.085 63.9306 35.9683 64.7152 36.096C65.2361 36.1796 65.9877 36.4745 66.1262 36.8596C66.313 37.3724 66.2185 38.2438 65.8734 38.6466C64.6624 40.066 63.1262 40.9111 61.1459 40.4622C60.3503 40.2817 59.7437 39.8944 59.4932 39.0537C59.2426 38.2196 59.8294 37.8763 60.3459 37.4736C60.4888 37.3614 60.6185 37.2337 60.8119 37.0621H60.8141ZM63.102 37.1435C62.8097 37.1435 62.5152 37.1677 62.2251 37.1391C61.2778 37.0467 60.7965 37.7157 60.7701 38.4111C60.7547 38.8072 61.4382 39.5269 61.8734 39.5819C62.6427 39.6765 63.5416 39.5313 64.2295 39.1791C64.6361 38.9723 64.7394 38.1756 64.9789 37.6453C64.535 37.478 64.0976 37.2953 63.6471 37.1545C63.48 37.1017 63.2844 37.1457 63.102 37.1457V37.1435ZM64.0844 32.3878C64.0756 31.3314 63.4075 30.4754 62.5657 30.4467C61.7679 30.4181 61.2119 31.0277 61.1987 31.9432C61.1833 33.037 61.9262 33.9349 62.8405 33.8534C63.6998 33.7764 64.1372 33.2725 64.0822 32.3878H64.0844Z"
      fill="rgba(255,255,255,0.5)" />
    <path
      d="M53.4557 53.5629C53.7656 53.4485 54.0755 53.3319 54.4294 53.1998V44.5378L53.3656 44.3508L53.3195 44.0625C54.0052 43.8578 54.6909 43.6554 55.4689 43.4243C55.5854 43.8578 55.6733 44.1835 55.7766 44.5775C56.1283 44.3332 56.4272 44.1351 56.7129 43.9216C57.9459 43.004 59.4821 43.2922 60.1547 44.6919C60.869 46.1796 60.9547 47.7663 59.9591 49.1549C58.981 50.5194 57.5415 50.9375 55.7986 50.5612V53.257C56.2799 53.3341 56.7568 53.4133 57.2338 53.4903L57.2184 53.7456H53.4909L53.4535 53.5585L53.4557 53.5629ZM55.7085 47.0643C55.7085 47.5946 55.7371 47.8543 55.7041 48.1052C55.5634 49.1703 56.036 49.7689 57.0799 49.9428C58.1217 50.1166 58.9349 49.6259 59.0558 48.6818C59.2008 47.5396 59.1261 46.3116 58.858 45.1915C58.6536 44.3376 57.8579 44.2121 56.9788 44.5709C55.6382 45.121 55.5722 46.1642 55.7107 47.0643H55.7085Z"
      fill="rgba(255,255,255,0.5)" />
    <path
      d="M45.8271 47.7509C45.6513 49.6875 43.9787 50.8671 41.5546 50.768C39.3919 50.6778 37.5435 49.2826 36.8908 47.2469C36.1457 44.9274 36.7985 42.3988 38.5919 41.1378C40.2688 39.9582 42.104 39.408 44.159 40.1849C45.7941 40.8011 45.8886 40.9155 45.6425 43.0546C45.2864 42.7861 44.9304 42.654 44.8073 42.4076C43.8886 40.5634 41.6293 39.9714 39.8491 41.1466C38.471 42.0555 37.8029 44.1989 38.2512 46.272C38.6666 48.191 40.0534 49.6391 41.7348 49.9098C43.1106 50.132 44.0315 49.6501 44.7018 48.4485C44.9062 48.0832 45.2667 47.8037 45.5546 47.4846L45.8249 47.7553L45.8271 47.7509Z"
      fill="rgba(255,255,255,0.5)" />
    <path
      d="M75.722 31.0035C75.3 30.9199 74.9791 30.8583 74.6582 30.7944C74.6494 30.702 74.6384 30.6096 74.6296 30.5172C75.3176 30.3103 76.0055 30.1034 76.7571 29.8767C76.8824 30.3389 76.9725 30.6756 77.089 31.1047C77.5989 30.7702 78.0516 30.4731 78.5044 30.1782C79.922 29.2583 81.2604 29.8723 81.344 31.5581C81.4231 33.114 81.3615 34.6787 81.3615 36.2016C81.8165 36.3622 82.1703 36.4877 82.5242 36.6131L82.5 36.8376H79.511C80.7374 35.2443 79.9791 33.3979 80.0473 31.6527C80.056 31.4084 79.5 30.9705 79.1571 30.9155C78.1725 30.7592 77.0362 31.8464 77.0318 32.8301C77.0297 33.5211 77.034 34.2143 77.0318 34.9054C77.0275 35.6338 76.8384 36.4392 77.8319 36.8486H74.7703L74.7219 36.6483C75.0516 36.4987 75.3813 36.349 75.7285 36.1928V31.0035H75.722Z"
      fill="rgba(255,255,255,0.5)" />
    <path
      d="M95.0999 36.1576C95.6428 34.5555 96.1461 33.1624 96.5681 31.7452C96.6538 31.4569 96.4252 31.0783 96.3241 30.6734H98.4978C98.1022 31.2984 97.6252 31.864 97.3483 32.5154C96.3065 34.956 95.2824 37.4054 94.3461 39.8878C93.9307 40.9903 93.2758 41.2192 92.2076 40.8737V39.6237C93.6494 39.8856 93.8428 38.6312 94.4032 37.8169C94.4846 37.6981 94.4142 37.4318 94.3483 37.2579C93.7637 35.7306 93.1878 34.1989 92.5615 32.6871C92.2516 31.9388 92.2801 30.8935 90.8494 30.9903L91.1043 30.6624H94.2318L94.2714 30.8759C94.0032 30.9969 93.7351 31.1158 93.3703 31.2808C93.9241 32.8433 94.478 34.4036 95.1021 36.1576H95.0999Z"
      fill="rgba(255,255,255,0.5)" />
    <path
      d="M48.2052 45.4842H47.2711C47.0118 44.7799 47.203 44.3662 47.8997 44.1307C48.414 43.9569 48.8865 43.6598 49.3942 43.4639C50.7437 42.9423 51.8448 43.5916 51.9525 45.0132C52.0228 45.9529 51.9525 46.9036 51.9854 47.8477C52.014 48.695 51.5986 49.7689 53.2909 49.8614L53.0294 50.1871C52.5041 50.3125 51.9788 50.4379 51.3964 50.5788C51.1986 50.2289 51.0272 49.9274 50.8008 49.5268C50.4162 49.7975 50.0096 50.0264 49.6733 50.3301C49.0448 50.8979 48.3107 50.8869 47.7986 50.3873C47.3634 49.9626 47.0865 49.265 46.9832 48.6488C46.8623 47.9225 47.3546 47.4582 48.0887 47.2623C48.6492 47.1127 49.1832 46.8486 49.7481 46.7232C50.5063 46.5537 50.8799 46.2038 50.7503 45.3719C50.658 44.7887 50.5635 44.2606 49.847 44.232C49.1063 44.2011 48.4645 44.3684 48.3349 45.2619C48.3261 45.3279 48.2667 45.3851 48.2052 45.4886V45.4842ZM50.6514 47.0577C50.0008 47.3239 49.2953 47.478 48.781 47.8763C48.4579 48.1272 48.4206 48.7478 48.2535 49.2011C48.6887 49.3332 49.1788 49.6611 49.5481 49.5599C50.6997 49.2386 50.8646 48.7764 50.6514 47.0577V47.0577Z"
      fill="rgba(255,255,255,0.5)" />
    <path
      d="M73.9086 33.3341C73.9306 35.493 72.2844 37.1853 70.1569 37.1853C68.3569 37.1853 66.9525 35.6316 66.9371 33.6224C66.9217 31.4745 68.5701 29.7755 70.691 29.7557C72.4536 29.7403 73.8866 31.3358 73.9086 33.3341ZM72.6075 33.3275C72.5723 33.1514 72.5218 32.6761 72.3811 32.2293C72.0382 31.1422 71.0888 30.4247 70.1152 30.5172C68.9525 30.6272 68.5591 31.4833 68.3547 32.4582C68.2668 32.8807 68.2426 33.3297 68.2756 33.7588C68.3943 35.2971 69.4426 36.4767 70.6382 36.4679C71.7723 36.4591 72.5855 35.2795 72.6053 33.3275H72.6075Z"
      fill="rgba(255,255,255,0.5)" />
    <path
      d="M52.9897 31.6043C53.2733 31.2786 53.5018 30.8715 53.8513 30.6492C54.3678 30.3191 54.9546 30.0836 55.537 29.8746C56.8601 29.397 57.8887 30.066 57.9678 31.4547C58.0249 32.4362 58.0161 33.4199 58.0425 34.4036C58.0645 35.2289 57.7788 36.2082 59.1964 36.3556L59.0931 36.6285L57.4601 37.0246C57.2601 36.6967 57.0777 36.4018 56.8381 36.0123C56.4425 36.2786 56.0271 36.4965 55.6887 36.8002C55.0909 37.3371 54.3897 37.3327 53.9018 36.8728C53.4491 36.4481 53.0908 35.7746 52.9963 35.1629C52.8952 34.5048 53.2974 33.9217 54.0623 33.7214C54.6601 33.5651 55.2337 33.3077 55.8337 33.158C56.515 32.9886 57.0513 32.6937 56.792 31.9102C56.6425 31.4591 56.3282 30.8451 55.9612 30.7372C55.37 30.5634 54.6821 30.6602 54.4051 31.5229C54.3194 31.7914 53.7348 31.9014 53.3788 32.0841C53.2491 31.9234 53.1216 31.7628 52.9919 31.6043H52.9897ZM56.726 33.5079C56.0667 33.7742 55.4667 34.0185 54.8645 34.2584C54.1612 34.5379 53.9985 35.1695 54.3524 35.658C54.5612 35.9463 55.3172 36.0629 55.7326 35.9397C56.8623 35.6052 56.959 34.6699 56.726 33.5079V33.5079Z"
      fill="rgba(255,255,255,0.5)" />
    <path
      d="M75.1636 50.5898C74.9658 50.1981 74.8229 49.9164 74.6273 49.5247C74.2185 49.8086 73.8339 50.0132 73.5284 50.2993C72.9152 50.8715 72.1877 50.9045 71.6537 50.4115C71.2009 49.9934 70.8405 49.3068 70.7636 48.6994C70.6734 47.9842 71.1306 47.4186 71.9482 47.2403C72.5152 47.1171 73.0493 46.8464 73.6141 46.71C74.3086 46.5405 74.8097 46.2104 74.5548 45.4468C74.4053 45 74.0823 44.3948 73.713 44.287C73.1218 44.1175 72.4317 44.2056 72.1702 45.0836C72.091 45.3477 71.5064 45.46 71.124 45.6558C70.7767 44.8152 70.9877 44.4806 71.5943 44.1725C74.6669 42.6123 76.0339 43.0018 75.8119 46.754C75.7878 47.1523 75.8031 47.555 75.8119 47.9556C75.8273 48.7874 75.5614 49.7601 76.8559 50.1695C76.324 50.3037 75.7922 50.4358 75.168 50.5942L75.1636 50.5898ZM74.4757 47.0577C73.8031 47.3328 73.0866 47.4846 72.568 47.8895C72.2449 48.1426 72.2207 48.7764 72.0603 49.2386C72.5086 49.3508 73.0075 49.6457 73.3943 49.5379C74.5658 49.2144 74.7702 48.2967 74.4757 47.0555V47.0577Z"
      fill="rgba(255,255,255,0.5)" />
    <path
      d="M66.7613 44.4278C66.2405 44.3728 65.8273 44.3288 65.4163 44.287L65.324 43.9679C65.7613 43.783 66.1965 43.5959 66.6207 43.4155C66.913 42.8653 67.2295 42.2667 67.5482 41.6681L67.913 41.7561C67.9592 42.3701 68.0053 42.9819 68.0559 43.6598L70.2097 43.7698C70.2295 43.9062 70.2471 44.0427 70.2669 44.1791C69.5724 44.2694 68.8756 44.3596 68.0207 44.4696C68.0207 45.9133 67.9745 47.423 68.0669 48.926C68.0822 49.1725 68.6822 49.4674 69.0625 49.5819C69.3438 49.6655 69.7042 49.4916 70.0295 49.4344C70.0778 49.5532 70.1284 49.6743 70.1768 49.7931C69.5438 50.11 68.9394 50.5612 68.2691 50.7086C67.3394 50.9111 66.7789 50.3345 66.7679 49.3398C66.7482 47.7135 66.7635 46.0871 66.7635 44.43L66.7613 44.4278Z"
      fill="rgba(255,255,255,0.5)" />
    <path
      d="M79.6714 49.7315L80.878 50.121C80.8692 50.1958 80.8626 50.2707 80.8538 50.3433H77.5043L77.456 50.132C77.7702 50.0176 78.0823 49.9054 78.4626 49.7667V40.9639L77.4647 40.7592L77.3922 40.3961C78.0911 40.1936 78.7878 39.9912 79.6692 39.7359V49.7315H79.6714Z"
      fill="rgba(255,255,255,0.5)" />
    <path
      d="M52.4535 29.901V31.0519C52.0404 31.1377 51.614 31.1355 51.2799 31.3094C50.3898 31.7716 49.5964 32.3195 49.6953 33.5387C49.7656 34.4036 49.7085 35.2773 49.7085 36.1686L51.2008 36.5471L51.1502 36.8508H47.5129L47.4337 36.6263L48.4755 36.239V30.9859L47.4162 30.8385L47.3678 30.5127C48.0733 30.3103 48.781 30.11 49.5898 29.8789C49.6272 30.4907 49.6557 30.9397 49.6887 31.448C50.7151 31.0299 50.9107 29.3948 52.4557 29.901H52.4535Z"
      fill="rgba(255,255,255,0.5)" />
    <path
      d="M62.6294 49.7227V44.5642L61.5393 44.3266C61.5261 44.2297 61.5129 44.1351 61.4998 44.0383C62.247 43.8314 62.9943 43.6267 63.8668 43.3869V49.7315C64.2668 49.8657 64.6185 49.9846 64.9701 50.1012L64.9525 50.3323H61.7195L61.647 50.1716L62.6294 49.7249V49.7227Z"
      fill="rgba(255,255,255,0.5)" />
    <path
      d="M62.5569 42.8169C62.6251 42.1413 62.1086 41.3754 63.2405 41.2742C63.8603 41.2192 64.1086 41.4569 64.08 42.0533C64.0295 43.081 63.324 42.8675 62.5569 42.8191V42.8169Z"
      fill="rgba(255,255,255,0.5)" />
  </g>
  <defs>
    <clipPath id="clip0_3070_2349">
      <rect width="93.75" height="27.5" fill="rgba(255,255,255,0.5)"
        transform="translate(4.75 26.25)" />
    </clipPath>
  </defs>
</svg>