<svg width="97" height="80" viewBox="0 0 97 80" fill="none" xmlns="http://www.w3.org/2000/svg">
  <g clip-path="url(#clip0_3070_2434)">
    <path
      d="M93 51.6715C92.3831 51.6689 91.7675 51.6638 91.1507 51.6689C91.0088 51.6689 90.9112 51.6313 90.811 51.5276C87.1083 47.6836 83.4018 43.8434 79.7005 39.9967C79.5482 39.8386 79.4011 39.766 79.1786 39.775C78.7465 39.7932 78.3131 39.7802 77.8797 39.7802C77.816 39.7802 77.7535 39.7854 77.6715 39.7893V39.9786C77.6715 42.6779 77.6689 45.3771 77.6741 48.0764C77.6741 48.6313 77.6832 49.1875 77.8043 49.7333C77.8394 49.8941 77.8888 50.0535 77.95 50.2052C78.0841 50.5358 78.3274 50.7562 78.6684 50.8703C78.9573 50.9675 79.2567 51.0026 79.5586 51.0324C79.6341 51.0401 79.7083 51.0505 79.7877 51.0609V51.6508H74.0509V51.0596C74.2357 51.0389 74.4192 51.0272 74.5988 50.9961C74.8135 50.9585 75.0309 50.9183 75.2378 50.8522C75.5475 50.7536 75.761 50.5384 75.8924 50.2415C76.0069 49.9848 76.0681 49.7139 76.0915 49.4364C76.1267 49.0189 76.1592 48.6002 76.1592 48.1814C76.1631 42.7945 76.1631 37.4077 76.1592 32.0208C76.1592 31.4957 76.1384 30.9694 76.0252 30.4534C76.0056 30.3613 75.9809 30.2693 75.9523 30.1798C75.7987 29.6884 75.4812 29.3488 74.9853 29.1997C74.7263 29.1219 74.4543 29.0804 74.1888 29.0221C74.1433 29.0117 74.0977 29.0052 74.0457 28.9948V28.4101C74.0977 28.4062 74.1485 28.3971 74.1992 28.3971C76.6251 28.3971 79.051 28.3894 81.477 28.3997C82.7264 28.4049 83.9614 28.5501 85.1614 28.917C86.0412 29.1854 86.8676 29.5627 87.5964 30.1305C88.5269 30.854 89.1738 31.7719 89.3924 32.9361C89.7698 34.9405 89.1751 36.622 87.6029 37.9405C86.7778 38.6328 85.8134 39.0672 84.7852 39.368C83.9862 39.6013 83.1701 39.7413 82.3398 39.8049C82.116 39.8217 81.8921 39.836 81.6344 39.8541C81.6839 39.9138 81.7151 39.9578 81.7529 39.9954C82.578 40.8446 83.4031 41.6925 84.2282 42.5404C86.6294 45.0089 89.0306 47.4787 91.4318 49.9472C91.9068 50.4347 92.3805 50.9235 92.8556 51.4109C92.905 51.4615 92.9519 51.5134 93 51.5652V51.6715V51.6715ZM77.691 29.4201C77.6546 29.6638 77.665 38.6367 77.7014 38.7677C77.747 38.7703 77.7938 38.7742 77.8407 38.7742C78.9144 38.7742 79.9881 38.7742 81.0605 38.7742C81.8622 38.7742 82.66 38.7119 83.4474 38.5602C84.2074 38.4137 84.9414 38.1869 85.6221 37.8096C86.5162 37.3143 87.1981 36.6246 87.5678 35.6587C87.8502 34.9197 87.9087 34.1548 87.8085 33.3756C87.7018 32.5485 87.3686 31.825 86.7908 31.217C86.2403 30.6375 85.5648 30.2563 84.8217 29.9827C83.7988 29.6068 82.7329 29.446 81.65 29.424C80.3642 29.398 79.0771 29.4136 77.7899 29.4123C77.7613 29.4123 77.7314 29.4175 77.6936 29.4201H77.691Z"
      fill="rgba(255,255,255,0.5)" />
    <path
      d="M54.1074 33.5533H53.4853C53.4566 33.4858 53.4241 33.4184 53.3968 33.3484C53.087 32.5666 52.6732 31.8497 52.1031 31.2248C51.3405 30.3899 50.3969 29.8466 49.318 29.5238C48.61 29.3125 47.8851 29.2075 47.1485 29.1621C46.4652 29.1206 45.7846 29.1323 45.1052 29.2036C42.1353 29.5108 39.6131 30.6906 37.6908 33.0152C36.6315 34.2961 35.9586 35.7689 35.5929 37.3844C35.3066 38.651 35.2402 39.9319 35.3469 41.2232C35.4797 42.8309 35.8857 44.3633 36.677 45.7791C37.9641 48.0829 39.8968 49.5998 42.4112 50.3919C43.7999 50.8288 45.2262 50.974 46.6787 50.9053C47.8096 50.8522 48.9172 50.6733 49.9961 50.3284C50.488 50.1715 50.967 49.9835 51.4329 49.7605C51.4862 49.7346 51.537 49.7061 51.5969 49.675V49.4779C51.5969 47.3335 51.5982 45.1892 51.5956 43.0448C51.5956 42.6675 51.5773 42.2902 51.5058 41.9168C51.3964 41.3412 51.0698 40.9626 50.5062 40.785C50.0859 40.6515 49.6512 40.5931 49.2165 40.5413C49.0408 40.5205 48.8651 40.5024 48.6829 40.4816V39.884H55.1889C55.2045 40.0758 55.1941 40.2677 55.1954 40.4765C55.0769 40.4985 54.9611 40.5154 54.8479 40.5426C54.6006 40.6022 54.3494 40.6502 54.1087 40.7319C53.6818 40.8771 53.4085 41.1779 53.2731 41.6083C53.1586 41.9739 53.1365 42.3499 53.1144 42.7271C53.1091 42.8218 53.1092 42.9164 53.1092 43.0111C53.1092 45.2086 53.1092 47.4061 53.1092 49.6037V49.8189C53.0597 49.8513 53.0167 49.8811 52.9712 49.9083C51.5396 50.777 50.0104 51.3941 48.3575 51.6962C47.1316 51.9218 45.8965 51.9723 44.6549 51.8971C43.52 51.8271 42.4073 51.6327 41.3245 51.2865C39.725 50.7757 38.2947 49.9745 37.0713 48.8219C35.641 47.4736 34.6845 45.84 34.134 43.964C33.8216 42.8983 33.6628 41.8092 33.6264 40.7007C33.5782 39.2422 33.7383 37.8109 34.186 36.4198C35.1595 33.3977 37.0778 31.16 39.8838 29.6716C41.1397 29.0052 42.4802 28.5852 43.8818 28.3466C45.1456 28.1327 46.4158 28.0977 47.6938 28.1664C49.1749 28.2468 50.6247 28.4918 52.0368 28.9508C52.7031 29.1673 53.3486 29.4331 53.9811 29.7325C54.0891 29.7844 54.1217 29.8466 54.1217 29.9633C54.1178 31.1029 54.1191 32.2438 54.1191 33.3834C54.1191 33.4353 54.1126 33.4871 54.1087 33.5533H54.1074Z"
      fill="rgba(255,255,255,0.5)" />
    <path
      d="M71.1836 29.7585V33.4768H70.5498C70.5264 33.4132 70.4991 33.3419 70.4744 33.2706C70.2752 32.7002 70.0254 32.1531 69.6974 31.6435C68.8853 30.3808 67.7465 29.5834 66.2707 29.284C65.0759 29.0428 63.8877 29.0817 62.7203 29.4486C61.7702 29.7468 60.9581 30.2602 60.3386 31.0472C59.8246 31.7006 59.533 32.4448 59.4354 33.2667C59.3599 33.9072 59.3886 34.5399 59.5656 35.1622C59.7985 35.9855 60.2775 36.6467 60.923 37.1977C61.5594 37.7409 62.2843 38.1402 63.0418 38.4864C64.2378 39.0335 65.4351 39.5754 66.6325 40.1186C67.3938 40.4648 68.1369 40.8434 68.8319 41.3114C69.4449 41.7237 70.0045 42.1943 70.46 42.779C71.0431 43.5271 71.375 44.375 71.4374 45.3201C71.5871 47.5617 70.68 49.299 68.8606 50.5812C67.9105 51.2515 66.8394 51.6456 65.6915 51.8103C63.3333 52.1486 61.0896 51.7364 58.9435 50.7381C58.3409 50.458 57.7722 50.1171 57.2256 49.7385C57.1449 49.6827 57.1071 49.6244 57.1084 49.522C57.1123 48.2929 57.111 47.0652 57.111 45.8361C57.111 45.8011 57.1149 45.7661 57.1188 45.7064C57.3232 45.6922 57.5275 45.7 57.7474 45.7013C57.7709 45.7622 57.793 45.8218 57.8151 45.8815C58.1522 46.8085 58.5804 47.6862 59.1843 48.4731C60.2176 49.8202 61.5789 50.6136 63.2643 50.8483C64.6295 51.0389 65.9505 50.8846 67.2012 50.283C68.1422 49.8305 68.9204 49.1875 69.4241 48.2618C70.0306 47.1442 70.1555 45.967 69.7664 44.7509C69.5803 44.1688 69.2172 43.6969 68.7721 43.2833C68.2788 42.8244 67.7205 42.4536 67.1231 42.1476C66.4386 41.7976 65.7397 41.4721 65.0434 41.1454C64.1207 40.7137 63.1888 40.3014 62.27 39.8632C61.3785 39.438 60.5456 38.9194 59.8129 38.2517C59.0502 37.5568 58.4658 36.7426 58.1652 35.7495C57.4976 33.5442 58.1574 31.1483 60.12 29.6314C60.9985 28.9521 61.998 28.5385 63.0821 28.3168C64.1311 28.1029 65.1892 28.0886 66.2498 28.204C67.7231 28.366 69.1352 28.7433 70.4744 29.3825C70.719 29.4992 70.9546 29.6353 71.1876 29.7585H71.1836Z"
      fill="rgba(255,255,255,0.5)" />
    <path d="M16.256 36.0399H17.2334V27.5H16.256V36.0399Z" fill="rgba(255,255,255,0.5)" />
    <path d="M18.4968 36.4034L19.303 36.9211L23.9481 29.7436L23.142 29.2258L18.4968 36.4034Z"
      fill="rgba(255,255,255,0.5)" />
    <path d="M18.2371 33.2375L19.1616 33.511L20.7566 28.1606L19.8322 27.8871L18.2371 33.2375Z"
      fill="rgba(255,255,255,0.5)" />
    <path d="M20.1499 37.9173L20.5569 38.8025L28.3508 35.2461L27.9438 34.3609L20.1499 37.9173Z"
      fill="rgba(255,255,255,0.5)" />
    <path d="M20.7513 40.0997L20.6145 41.0454L29.0995 42.2634L29.2363 41.3177L20.7513 40.0997Z"
      fill="rgba(255,255,255,0.5)" />
    <path d="M23.5295 38.5441L23.665 39.4952L29.2122 38.7108L29.0766 37.7596L23.5295 38.5441Z"
      fill="rgba(255,255,255,0.5)" />
    <path d="M20.0976 42.283L19.4612 43.022L25.9672 48.5829L26.6037 47.844L20.0976 42.283Z"
      fill="rgba(255,255,255,0.5)" />
    <path d="M18.3405 43.7372L17.4211 44.0095L19.8645 52.1952L20.7839 51.9228L18.3405 43.7372Z"
      fill="rgba(255,255,255,0.5)" />
    <path d="M20.9034 45.5745L20.093 46.0953L23.1305 50.7852L23.9409 50.2644L20.9034 45.5745Z"
      fill="rgba(255,255,255,0.5)" />
    <path d="M16.0805 43.9961L15.1411 43.7274L12.7753 51.9356L13.7147 52.2043L16.0805 43.9961Z"
      fill="rgba(255,255,255,0.5)" />
    <path d="M14.0794 43.0384L13.448 42.3192L6.99484 47.9409L7.62625 48.6602L14.0794 43.0384Z"
      fill="rgba(255,255,255,0.5)" />
    <path d="M13.4088 46.0875L12.5959 45.5705L9.58064 50.2746L10.3934 50.7916L13.4088 46.0875Z"
      fill="rgba(255,255,255,0.5)" />
    <path d="M14.0668 42.9726L13.4253 42.238L6.95738 47.843L7.59886 48.5776L14.0668 42.9726Z"
      fill="rgba(255,255,255,0.5)" />
    <path d="M12.8723 41.0488L12.7354 40.1031L4.25054 41.3226L4.38751 42.2683L12.8723 41.0488Z"
      fill="rgba(255,255,255,0.5)" />
    <path d="M10.645 43.3219L10.2454 42.4475L5.14626 44.7603L5.54587 45.6346L10.645 43.3219Z"
      fill="rgba(255,255,255,0.5)" />
    <path d="M12.9309 38.8148L13.3342 37.9279L5.52538 34.4041L5.12208 35.291L12.9309 38.8148Z"
      fill="rgba(255,255,255,0.5)" />
    <path d="M14.1891 36.9315L14.9951 36.4136L10.3487 29.2368L9.54265 29.7547L14.1891 36.9315Z"
      fill="rgba(255,255,255,0.5)" />
    <path d="M11.188 35.8623L11.8196 35.1363L7.58536 31.4812L6.95381 32.2073L11.188 35.8623Z"
      fill="rgba(255,255,255,0.5)" />
    <path d="M21.6942 35.1015L22.3245 35.8286L26.5651 32.1809L25.9348 31.4538L21.6942 35.1015Z"
      fill="rgba(255,255,255,0.5)" />
    <path d="M23.2789 42.4422L22.8779 43.3159L27.9734 45.6367L28.3744 44.763L23.2789 42.4422Z"
      fill="rgba(255,255,255,0.5)" />
    <path d="M17.228 46.9155L16.2637 46.9185L16.2813 52.4998L17.2456 52.4968L17.228 46.9155Z"
      fill="rgba(255,255,255,0.5)" />
    <path d="M14.3236 33.5101L15.2485 33.2383L13.6629 27.8851L12.7379 28.157L14.3236 33.5101Z"
      fill="rgba(255,255,255,0.5)" />
    <path d="M4.39727 37.7791L4.26172 38.7303L9.80886 39.5147L9.9444 38.5636L4.39727 37.7791Z"
      fill="rgba(255,255,255,0.5)" />
  </g>
  <defs>
    <clipPath id="clip0_3070_2434">
      <rect width="88.75" height="25" fill="rgba(255,255,255,0.5)" transform="translate(4.25 27.5)" />
    </clipPath>
  </defs>
</svg>