<svg width="126" height="80" viewBox="0 0 126 80" fill="none" xmlns="http://www.w3.org/2000/svg">
  <g clip-path="url(#clip0_3070_2619)">
    <path d="M61.2356 51.719H60.1799V59.578H61.2356V51.719Z" fill="rgba(255,255,255,0.5)" />
    <path
      d="M71.519 52.766H75.7352V51.719H70.4634V60.625H71.519V56.4344H72.5721V57.4814H73.6252V56.4344H75.7352V55.3874H71.519V52.766Z"
      fill="rgba(255,255,255,0.5)" />
    <path d="M76.7882 52.7661H75.7351V55.3874H76.7882V52.7661Z" fill="rgba(255,255,255,0.5)" />
    <path d="M76.7882 59.578H75.7351V60.625H76.7882V59.578Z" fill="rgba(255,255,255,0.5)" />
    <path d="M66.5048 51.719H65.4517V59.578H66.5048V51.719Z" fill="rgba(255,255,255,0.5)" />
    <path d="M75.7352 58.531H74.6821V59.578H75.7352V58.531Z" fill="rgba(255,255,255,0.5)" />
    <path
      d="M30.7479 56.5126H35.4399V55.5072H30.7479V52.6525H35.7812V51.6459H29.5464V60.625H35.8193V59.6196H30.7479V56.5126Z"
      fill="rgba(255,255,255,0.5)" />
    <path d="M42.8876 54.8626H41.8345V55.9096H42.8876V54.8626Z" fill="rgba(255,255,255,0.5)" />
    <path d="M40.7815 53.8156V51.719H39.7258V60.625H40.7815V54.8626H41.8346V53.8156H40.7815Z"
      fill="rgba(255,255,255,0.5)" />
    <path
      d="M21.8131 59.4304H21.7878L19.2083 51.6459H17.9053L21.0925 60.625H22.4589L25.6715 51.6459H24.4192L21.8131 59.4304Z"
      fill="rgba(255,255,255,0.5)" />
    <path d="M49.5095 52.6525H52.5191V60.625H53.7206V52.6525H56.7314V51.6459H49.5095V52.6525Z"
      fill="rgba(255,255,255,0.5)" />
    <path d="M43.9433 55.9096H42.8877V56.9592H43.9433V55.9096Z" fill="rgba(255,255,255,0.5)" />
    <path d="M65.4517 59.578H61.2368V60.625H65.4517V59.578Z" fill="rgba(255,255,255,0.5)" />
    <path d="M44.9965 56.9592H43.9434V58.0062H44.9965V60.625H46.0495V51.719H44.9965V56.9592Z"
      fill="rgba(255,255,255,0.5)" />
    <path d="M74.6809 57.4814H73.6252V58.531H74.6809V57.4814Z" fill="rgba(255,255,255,0.5)" />
    <path d="M96.6587 59.578H91.916V60.625H96.6587V59.578Z" fill="rgba(255,255,255,0.5)" />
    <path
      d="M82.4103 56.5126H87.1023V55.5072H82.4103V52.6525H87.4436V51.6459H81.2075V60.625H87.4817V59.6196H82.4103V56.5126Z"
      fill="rgba(255,255,255,0.5)" />
    <path d="M97.7118 56.4344H96.6587V59.578H97.7118V56.4344Z" fill="rgba(255,255,255,0.5)" />
    <path d="M96.6588 55.3874H92.4438V56.4344H96.6588V55.3874Z" fill="rgba(255,255,255,0.5)" />
    <path d="M92.4438 52.7661H91.3882V55.3874H92.4438V52.7661Z" fill="rgba(255,255,255,0.5)" />
    <path d="M97.1866 51.719H92.4438V52.766H97.1866V51.719Z" fill="rgba(255,255,255,0.5)" />
    <path d="M22.752 34.1127H20.335V36.5158H22.752V34.1127Z" fill="rgba(255,255,255,0.5)" />
    <path d="M22.752 29.3065H20.335V31.7096H22.752V29.3065Z" fill="rgba(255,255,255,0.5)" />
    <path d="M22.752 38.9189H20.335V36.5158H17.918V48.0494H22.752V38.9189Z"
      fill="rgba(255,255,255,0.5)" />
    <path d="M20.335 26.9047H17.918V29.3078H20.335V26.9047Z" fill="rgba(255,255,255,0.5)" />
    <path d="M20.335 31.7096H17.918V34.1127H20.335V31.7096Z" fill="rgba(255,255,255,0.5)" />
    <path d="M48.209 34.1127H45.792V36.5158H48.209V34.1127Z" fill="rgba(255,255,255,0.5)" />
    <path d="M45.7918 31.7096H43.3748V34.1127H45.7918V31.7096Z" fill="rgba(255,255,255,0.5)" />
    <path d="M43.3748 38.9984H45.7918V41.322H48.2088V38.9189H45.7918V36.5158H43.3748V38.9984Z"
      fill="rgba(255,255,255,0.5)" />
    <path d="M72.0557 39.7994H69.6387V42.1218H72.0557V39.7994Z" fill="rgba(255,255,255,0.5)" />
    <path d="M36.125 26.9047H33.708V29.3078H36.125V26.9047Z" fill="rgba(255,255,255,0.5)" />
    <path d="M36.125 30.9086V31.7096H38.542V29.3065H36.125V30.9086Z" fill="rgba(255,255,255,0.5)" />
    <path d="M43.3748 29.3065H40.959V31.7096H43.3748V30.9086V29.3065Z" fill="rgba(255,255,255,0.5)" />
    <path d="M45.792 30.9086V31.7096H48.209V30.9086V29.3065H45.792V30.9086Z"
      fill="rgba(255,255,255,0.5)" />
    <path d="M40.959 26.9047H38.542V29.3078H40.959V26.9047Z" fill="rgba(255,255,255,0.5)" />
    <path d="M45.7918 26.9047H43.3748V29.3078H45.7918V26.9047Z" fill="rgba(255,255,255,0.5)" />
    <path
      d="M33.7081 30.9086V29.3065H31.291V30.9086V31.7096V43.2445V47.0567V48.0494H48.209V47.0567V43.7251H45.792V43.2445V41.4015H43.3749V43.2445H36.1251V31.7096H33.7081V30.9086Z"
      fill="rgba(255,255,255,0.5)" />
    <path d="M89.6983 26.9047H87.2812V29.3078H89.6983V26.9047Z" fill="rgba(255,255,255,0.5)" />
    <path d="M94.5323 26.9047H92.1152V29.3078H94.5323V26.9047Z" fill="rgba(255,255,255,0.5)" />
    <path d="M92.1153 29.3065H89.6982V31.7096H92.1153V29.3065Z" fill="rgba(255,255,255,0.5)" />
    <path d="M87.2825 29.3065H84.8655V31.7096H87.2825V29.3065Z" fill="rgba(255,255,255,0.5)" />
    <path d="M96.9493 29.3065H94.5322V31.7096H96.9493V29.3065Z" fill="rgba(255,255,255,0.5)" />
    <path d="M64.8047 26.9047H62.3877V29.3078H64.8047V26.9047Z" fill="rgba(255,255,255,0.5)" />
    <path d="M69.6387 26.9047H67.2217V29.3078H69.6387V26.9047Z" fill="rgba(255,255,255,0.5)" />
    <path d="M72.0557 29.3065H69.6387V31.7096H72.0557V29.3065Z" fill="rgba(255,255,255,0.5)" />
    <path d="M67.2217 29.3065H64.8047V31.7096H67.2217V29.3065Z" fill="rgba(255,255,255,0.5)" />
    <path d="M67.2217 34.9945H69.6388V37.3963H72.0558V34.9138H64.8047V37.3169H67.2217V34.9945Z"
      fill="rgba(255,255,255,0.5)" />
    <path
      d="M64.8046 37.3168H62.3875V34.9138H59.9705V31.7096H62.3875V29.3065H59.9705V26.9047H57.5547V29.3065H59.8906V31.7096H57.4735V29.3065H55.1377V31.7096V34.9138V39.7199H64.8046V37.3168Z"
      fill="rgba(255,255,255,0.5)" />
    <path d="M69.6387 37.3963H67.2217V39.7187H69.6387V37.3963Z" fill="rgba(255,255,255,0.5)" />
    <path
      d="M72.0557 44.5249H69.6386V42.9241V42.123H67.2216V42.9241H55.1377V47.729H72.0557V44.5249Z"
      fill="rgba(255,255,255,0.5)" />
    <path
      d="M89.6983 37.3963V34.9945H92.1153V37.3169H94.5323V34.9138H88.0869V39.7199H92.1153V37.3963H89.6983Z"
      fill="rgba(255,255,255,0.5)" />
    <path d="M96.9493 37.3169H94.5322V39.72H96.9493V37.3169Z" fill="rgba(255,255,255,0.5)" />
    <path
      d="M96.9492 47.729V42.9241V42.123H94.5322V39.7199H92.1152V42.9241H84.8653V31.7096H82.4483V29.3065H84.8653V26.9047H80.0312V31.7096V42.9241V47.729H84.8653H96.9492Z"
      fill="rgba(255,255,255,0.5)" />
    <path d="M61.0999 19.375H58.6829V21.7781H61.0999V19.375Z" fill="rgba(255,255,255,0.5)" />
    <path d="M55.0567 22.0985H52.6396V24.5016H55.0567V22.0985Z" fill="rgba(255,255,255,0.5)" />
    <path d="M27.264 19.6954H24.8469V22.0985H27.264V19.6954Z" fill="rgba(255,255,255,0.5)" />
    <path d="M70.7666 20.8963H68.3496V23.2994H70.7666V20.8963Z" fill="rgba(255,255,255,0.5)" />
    <path d="M102.589 33.7128H100.172V36.1159H102.589V33.7128Z" fill="rgba(255,255,255,0.5)" />
    <path d="M107.905 41.0811H105.488V43.4842H107.905V41.0811Z" fill="rgba(255,255,255,0.5)" />
    <path d="M101.863 45.1657H99.4463V47.5688H101.863V45.1657Z" fill="rgba(255,255,255,0.5)" />
  </g>
  <defs>
    <clipPath id="clip0_3070_2619">
      <rect width="90" height="41.25" fill="rgba(255,255,255,0.5)"
        transform="translate(17.9053 19.375)" />
    </clipPath>
  </defs>
</svg>