<svg width="84" height="80" viewBox="0 0 84 80" fill="none" xmlns="http://www.w3.org/2000/svg">
  <g clip-path="url(#clip0_3070_2507)">
    <path
      d="M4.96086 49.0904C5.48686 49.1335 5.99806 49.0575 6.48536 48.8613C7.35976 48.5085 7.70132 47.8019 7.75141 46.9138C7.75824 46.7913 7.75824 46.6688 7.75824 46.5463C7.75824 42.4313 7.75824 38.3162 7.75824 34.2012V33.8518H11.5188V34.2114C11.5188 38.4228 11.4983 42.6343 11.5268 46.8457C11.5427 49.1347 10.2915 50.6387 8.33093 51.3498C7.24249 51.7446 6.1085 51.8602 4.95972 51.8761V49.0915L4.96086 49.0904Z"
      fill="rgba(255,255,255,0.5)" />
    <path
      d="M9.92599 28.125C10.3871 28.252 10.8106 28.4335 11.1533 28.7908C11.9287 29.5995 11.9218 30.8619 11.1192 31.6775C10.3165 32.4919 9.00946 32.4998 8.18061 31.6945C7.362 30.8994 7.33354 29.637 8.09977 28.8124C8.44361 28.4426 8.87512 28.2554 9.34533 28.125H9.92599V28.125Z"
      fill="rgba(255,255,255,0.5)" />
    <path
      d="M31.68 46.2752H27.9194V33.8609H31.6755V35.5781C32.0819 35.2413 32.4349 34.8999 32.8345 34.6265C34.5787 33.4355 36.4596 33.287 38.4122 34.0174C39.29 34.3463 39.8832 35.0155 40.2805 35.8549C40.317 35.9332 40.3511 36.0114 40.3944 36.1067C40.728 35.7653 41.0308 35.4193 41.3713 35.1131C43.0187 33.6329 44.9349 33.2416 47.0423 33.8416C48.6329 34.2942 49.4492 35.467 49.7452 37.0254C49.8454 37.5551 49.8944 38.103 49.8978 38.6417C49.9137 41.0928 49.9046 43.5451 49.9046 45.9973C49.9046 46.0824 49.9046 46.1686 49.9046 46.2707H46.1201V45.9746C46.1201 43.9262 46.1292 41.8766 46.1121 39.8282C46.1087 39.3779 46.0575 38.9162 45.9459 38.4807C45.593 37.1105 44.5569 36.6534 43.3227 36.819C42.232 36.9653 41.558 37.6572 41.1447 38.6293C40.8737 39.2678 40.7861 39.9438 40.7849 40.6312C40.7815 42.3995 40.7838 44.1689 40.7838 45.9372V46.2684H37.0164C37.0164 46.1607 37.0164 46.0597 37.0164 45.9576C37.0164 43.9262 37.0289 41.8948 37.0072 39.8633C37.0027 39.379 36.9367 38.8822 36.8114 38.4137C36.4619 37.1082 35.4201 36.6341 34.1951 36.8235C32.8459 37.0322 32.1707 37.9669 31.8554 39.1941C31.737 39.6546 31.6925 40.1446 31.688 40.6221C31.6686 42.3904 31.68 44.1598 31.68 45.9281V46.2718V46.2752Z"
      fill="rgba(255,255,255,0.5)" />
    <path
      d="M55.3014 44.9323V51.6039H51.551V33.8563H55.2911V35.1267C55.3674 35.0791 55.4129 35.0609 55.446 35.0292C56.5948 33.9301 57.9929 33.5331 59.5504 33.5705C60.7322 33.5989 61.8502 33.8507 62.8726 34.4586C64.2423 35.2742 65.1531 36.4402 65.5505 37.9839C65.9194 39.421 65.9376 40.8683 65.4913 42.2861C64.7558 44.6238 63.0856 45.944 60.7128 46.4C59.4229 46.6472 58.1261 46.6064 56.9147 46.0336C56.4297 45.8045 56.0038 45.4518 55.553 45.1512C55.4767 45.1001 55.4141 45.0309 55.3014 44.9311V44.9323ZM61.8673 39.9291C61.8491 39.7522 61.8366 39.4436 61.7797 39.1453C61.7273 38.872 61.6499 38.5986 61.5428 38.3423C61.0567 37.182 60.1994 36.4696 58.9288 36.3392C57.7629 36.2201 56.7462 36.5853 56.0608 37.554C55.1192 38.8833 55.06 40.3544 55.6577 41.8278C56.5196 43.9523 59.2771 44.4536 60.8677 42.801C61.6032 42.0377 61.8457 41.0849 61.8673 39.9291V39.9291Z"
      fill="rgba(255,255,255,0.5)" />
    <path
      d="M13.1607 33.8529H16.9156C16.9156 33.98 16.9156 34.0911 16.9156 34.2023C16.9156 36.1634 16.9122 38.1245 16.9179 40.0856C16.9202 40.7446 16.9874 41.3957 17.264 42.0082C17.6272 42.8112 18.2648 43.2366 19.1301 43.3092C20.7685 43.4453 21.948 42.5753 22.3271 40.9374C22.433 40.4815 22.4876 40.004 22.4933 39.5355C22.5127 37.7491 22.5013 35.9638 22.5013 34.1773C22.5013 34.0741 22.5013 33.972 22.5013 33.8529H26.2665C26.271 33.9562 26.279 34.0492 26.279 34.1422C26.279 38.0905 26.2778 42.0399 26.2835 45.9882C26.2835 46.2106 26.2368 46.2911 25.9943 46.2877C24.9207 46.2741 23.8471 46.282 22.7734 46.2809C22.696 46.2809 22.6174 46.2741 22.5093 46.2684V44.4752C22.2793 44.6929 22.1085 44.8733 21.9184 45.0309C20.091 46.5486 18.0337 46.941 15.8021 46.138C14.3961 45.6321 13.6401 44.5069 13.3236 43.0925C13.2097 42.5844 13.1585 42.0535 13.155 41.5318C13.138 39.0546 13.1471 36.5763 13.1482 34.0979C13.1482 34.0208 13.1562 33.9448 13.1619 33.8518L13.1607 33.8529Z"
      fill="rgba(255,255,255,0.5)" />
    <path d="M79.3358 42.8464H67.3584V45.8601H79.3358V42.8464Z" fill="rgba(255,255,255,0.5)" />
  </g>
  <defs>
    <clipPath id="clip0_3070_2507">
      <rect width="74.375" height="23.75" fill="rgba(255,255,255,0.5)"
        transform="translate(4.96094 28.125)" />
    </clipPath>
  </defs>
</svg>