<svg width="104" height="80" viewBox="0 0 104 80" fill="none" xmlns="http://www.w3.org/2000/svg">
  <g clip-path="url(#clip0_3070_2412)">
    <path
      d="M80.1033 35.6684C78.3557 34.7504 76.3537 34.5684 74.4694 35.1525C72.585 35.7366 71.0389 37.0187 70.1195 38.7635C69.2001 40.5083 69.0178 42.5034 69.6028 44.3885C70.5678 47.495 73.4056 49.5812 76.6652 49.5812C77.406 49.5812 78.1392 49.4674 78.8534 49.2474C82.7436 48.0412 84.928 43.8992 83.7199 40.0114C83.1349 38.13 81.8508 36.5863 80.1033 35.6684V35.6684ZM72.8624 43.3758C72.5471 42.3631 72.6458 41.2858 73.1397 40.3452C73.6336 39.4045 74.4656 38.7142 75.4837 38.3993C76.4866 38.0883 77.5883 38.1869 78.5153 38.6762C79.4575 39.1693 80.1489 40 80.4642 41.0165C80.7795 42.0293 80.6807 43.1027 80.1831 44.0434C79.6892 44.9841 78.8572 45.6744 77.8429 45.9892C76.8285 46.304 75.7534 46.2054 74.8113 45.7085C73.8691 45.2154 73.1777 44.3848 72.8624 43.372V43.3758Z"
      fill="rgba(255,255,255,0.5)" />
    <path
      d="M40.0162 34.8149C35.9398 34.8149 32.6271 38.1262 32.6271 42.1924C32.6271 46.2585 35.9436 49.5698 40.0162 49.5698C44.0887 49.5698 47.4052 46.2585 47.4052 42.1924C47.4052 38.1262 44.0887 34.8149 40.0162 34.8149V34.8149ZM43.9975 42.1924C43.9975 44.3848 42.212 46.1675 40.0162 46.1675C37.8203 46.1675 36.0348 44.3848 36.0348 42.1924C36.0348 40 37.8203 38.2173 40.0162 38.2173C42.212 38.2173 43.9975 40 43.9975 42.1924V42.1924Z"
      fill="rgba(255,255,255,0.5)" />
    <path
      d="M58.3388 34.8149C54.2624 34.8149 50.9497 38.1262 50.9497 42.1924V49.5698H54.3612V42.1924C54.3612 40 56.1468 38.2173 58.3426 38.2173C60.5384 38.2173 62.3239 40 62.3239 42.1924V49.5698H65.7355V42.1924C65.7355 38.1224 62.4189 34.8149 58.3464 34.8149H58.3388Z"
      fill="rgba(255,255,255,0.5)" />
    <path
      d="M31.0467 34.9628C30.5757 34.868 30.0856 34.8187 29.5879 34.8187C25.5116 34.8187 22.1989 38.13 22.1989 42.1962V49.5736H25.6104V42.1962C25.6104 40.0796 27.2781 38.3462 29.3714 38.2324L31.0505 34.9628H31.0467Z"
      fill="rgba(255,255,255,0.5)" />
    <path
      d="M90.7939 40.3261C90.7939 39.0175 91.8577 37.9554 93.1683 37.9554C94.0345 37.9554 94.8323 38.4258 95.2502 39.1882C95.3186 39.3171 95.5199 39.7192 95.6339 40.0226H99.1252C98.7491 38.972 98.354 38.0996 98.0956 37.6292C97.1079 35.8313 95.2198 34.7162 93.1645 34.7162C90.0645 34.7162 87.542 37.2348 87.542 40.3299C87.542 42.1505 88.4348 43.8688 89.924 44.9195C89.9848 44.9612 89.8936 44.9195 91.6373 45.9284L93.2709 43.1254C92.5453 42.7043 91.9526 42.363 91.7779 42.2567C91.1587 41.8092 90.7863 41.0923 90.7863 40.3299L90.7939 40.3261Z"
      fill="rgba(255,255,255,0.5)" />
    <path
      d="M95.8162 49.6987C95.8162 51.0073 94.7525 52.0693 93.4418 52.0693C92.5757 52.0693 91.7779 51.599 91.36 50.8366C91.2916 50.7076 91.0902 50.3056 90.9763 50.0021H87.485C87.8611 51.0528 88.2562 51.9252 88.5145 52.3955C89.5023 54.1934 91.3904 55.3086 93.4456 55.3086C96.5456 55.3086 99.0682 52.79 99.0682 49.6949C99.0682 47.8742 98.1754 46.156 96.6862 45.1053C96.6254 45.0636 96.7166 45.1053 94.9728 44.0964L93.3393 46.8994C94.0649 47.3205 94.6575 47.6618 94.8323 47.768C95.4515 48.2156 95.8238 48.9325 95.8238 49.6949L95.8162 49.6987Z"
      fill="rgba(255,255,255,0.5)" />
    <path d="M8.13864 34.8149H4.76892V49.5736H8.13864V34.8149Z" fill="rgba(255,255,255,0.5)" />
    <path d="M8.11972 24.6875H4.75V32.8729H8.11972V24.6875Z" fill="rgba(255,255,255,0.5)" />
    <path
      d="M15.9114 50.1084L11.1855 45.3899C10.3307 44.5365 9.85962 43.4023 9.85962 42.1962C9.85962 40.99 10.3307 39.8559 11.1855 39.0024L15.9114 34.2839L18.206 36.5749L13.4801 41.2934C13.2407 41.5324 13.1078 41.8548 13.1078 42.1924C13.1078 42.5299 13.2407 42.8524 13.4801 43.0951L18.206 47.8136L15.9114 50.1046V50.1084Z"
      fill="rgba(255,255,255,0.5)" />
  </g>
  <defs>
    <clipPath id="clip0_3070_2412">
      <rect width="94.375" height="30.625" fill="rgba(255,255,255,0.5)"
        transform="translate(4.75 24.6875)" />
    </clipPath>
  </defs>
</svg>