<svg width="129" height="80" viewBox="0 0 129 80" fill="none" xmlns="http://www.w3.org/2000/svg">
  <g clip-path="url(#clip0_3070_2762)">
    <path
      d="M40.4067 44.7282V33.4444C40.4067 33.3324 40.4854 33.2534 40.5971 33.2534H41.71C41.8217 33.2534 41.9004 33.3324 41.9004 33.4444V43.5326H46.634C46.7457 43.5326 46.8244 43.6116 46.8244 43.7236V44.7282C46.8244 44.8402 46.7457 44.9192 46.634 44.9192H40.5971C40.4854 44.9192 40.4067 44.8402 40.4067 44.7282Z"
      fill="rgba(255,255,255,0.5)" />
    <path
      d="M53.2916 44.7282V43.5969C52.7351 44.5207 51.8144 45.0955 50.6392 45.0955C49.0503 45.0955 48.0015 44.0597 48.0015 42.4968C48.0015 40.9339 49.1931 39.8669 51.6862 39.8669H53.2421V38.7668C53.2421 37.6997 52.671 37.1892 51.5105 37.1892C50.4946 37.1892 49.9857 37.5877 49.7148 38.3682C49.6837 38.4803 49.6031 38.528 49.4915 38.495L48.4902 38.2232C48.3785 38.1919 48.3163 38.1111 48.3474 38.0009C48.6806 36.8053 49.713 35.9936 51.5398 35.9936C53.4929 35.9936 54.6534 36.8862 54.6534 38.7356V44.7282C54.6534 44.8402 54.5747 44.9192 54.4631 44.9192H53.4783C53.3666 44.9192 53.2879 44.8402 53.2879 44.7282H53.2916ZM51.0199 43.8999C52.0523 43.8999 52.8303 43.2626 53.244 42.2581V40.8549H51.6881C50.1944 40.8549 49.3853 41.3802 49.3853 42.416C49.3853 43.292 49.9729 43.8981 51.0218 43.8981L51.0199 43.8999Z"
      fill="rgba(255,255,255,0.5)" />
    <path
      d="M56.1198 43.0239C56.0887 42.9119 56.1363 42.8329 56.2315 42.7851L57.057 42.4178C57.1687 42.3701 57.2639 42.4178 57.295 42.5446C57.5494 43.4206 58.3585 43.9311 59.4403 43.9311C60.5221 43.9311 61.2672 43.3894 61.2672 42.5923C61.2672 41.7952 60.7912 41.5087 58.9168 40.967C57.2639 40.4729 56.3596 39.8999 56.3596 38.4491C56.3596 36.9982 57.63 35.9954 59.4257 35.9954C61.031 35.9954 62.2062 36.7447 62.5705 38.0193C62.6016 38.1313 62.554 38.2268 62.4442 38.258L61.6021 38.5611C61.4905 38.6088 61.3953 38.5611 61.3642 38.4344C61.0933 37.5895 60.491 37.1745 59.4568 37.1745C58.4226 37.1745 57.7563 37.6373 57.7563 38.3701C57.7563 39.1837 58.3128 39.4059 59.8998 39.8687C61.8218 40.427 62.6638 41.112 62.6638 42.5299C62.6638 44.0597 61.377 45.0955 59.4385 45.0955C57.7233 45.0955 56.4841 44.3297 56.118 43.0239H56.1198Z"
      fill="rgba(255,255,255,0.5)" />
    <path
      d="M64.0459 41.6685V39.4536C64.0459 37.27 65.3016 35.9954 67.4616 35.9954C69.6216 35.9954 70.8773 37.27 70.8773 39.4536V40.8237C70.8773 40.9357 70.7986 41.0147 70.6869 41.0147H65.4279V41.6685C65.4279 43.0716 66.2388 43.8687 67.5879 43.8687C68.5562 43.8687 69.2079 43.4702 69.5264 42.6896C69.574 42.5776 69.6527 42.5299 69.7643 42.5776L70.6704 42.8806C70.7967 42.9284 70.8297 42.9927 70.7967 43.1029C70.3519 44.394 69.2555 45.0955 67.5879 45.0955C65.4114 45.0955 64.0459 43.8356 64.0459 41.6685ZM69.5428 39.9954V39.3747C69.5428 38.0193 68.8125 37.2075 67.4927 37.2075C66.1729 37.2075 65.4279 38.0211 65.4279 39.3747V39.9954H69.5428V39.9954Z"
      fill="rgba(255,255,255,0.5)" />
    <path
      d="M72.7679 44.7284V36.3611C72.7679 36.249 72.8467 36.1701 72.9583 36.1701H73.9742C74.0859 36.1701 74.1646 36.249 74.1646 36.3611V37.6209C74.657 36.7596 75.499 36.0599 76.881 36.0599C77.0073 36.0599 77.0714 36.1388 77.0714 36.2509V37.2555C77.0714 37.3675 77.0073 37.4465 76.881 37.4465C75.5301 37.4465 74.657 37.9882 74.1957 39.0553V44.7302C74.1957 44.8422 74.117 44.9212 74.0054 44.9212H72.9565C72.8448 44.9212 72.7661 44.8422 72.7661 44.7302L72.7679 44.7284Z"
      fill="rgba(255,255,255,0.5)" />
    <path
      d="M82.5298 44.7282V33.4444C82.5298 33.3324 82.6085 33.2534 82.7202 33.2534H86.2786C88.9475 33.2534 90.4887 34.8145 90.4887 37.3343V40.809C90.4887 43.36 88.9475 44.921 86.2786 44.921H82.7202C82.6085 44.921 82.5298 44.8421 82.5298 44.73V44.7282ZM86.2951 43.5326C88.0103 43.5326 88.9951 42.64 88.9951 40.8072V37.3655C88.9951 35.5326 88.0103 34.64 86.2951 34.64H84.0235V43.5344H86.2951V43.5326Z"
      fill="rgba(255,255,255,0.5)" />
    <path
      d="M92.6343 34.6235V33.0147C92.6343 32.9027 92.713 32.8237 92.8246 32.8237H93.8735C93.9852 32.8237 94.0639 32.9027 94.0639 33.0147V34.6235C94.0639 34.7355 93.9852 34.8145 93.8735 34.8145H92.8246C92.713 34.8145 92.6343 34.7355 92.6343 34.6235ZM92.6343 44.7282V36.3609C92.6343 36.2489 92.713 36.1699 92.8246 36.1699H93.8735C93.9852 36.1699 94.0639 36.2489 94.0639 36.3609V44.7282C94.0639 44.8402 93.9852 44.9192 93.8735 44.9192H92.8246C92.713 44.9192 92.6343 44.8402 92.6343 44.7282Z"
      fill="rgba(255,255,255,0.5)" />
    <path
      d="M95.8905 45.9405C95.8905 45.1122 96.3024 44.3794 97.1938 44.0121C96.7966 43.7091 96.5898 43.2793 96.5898 42.8808C96.5898 42.3702 96.9083 41.9093 97.4794 41.6687C96.6062 41.1581 96.1449 40.2821 96.1449 39.1342C96.1449 37.3969 97.2414 36.17 99.4014 36.17H103.181C103.293 36.17 103.372 36.249 103.372 36.361V37.1416C103.372 37.2536 103.293 37.3326 103.181 37.3326H101.64C102.164 37.7146 102.561 38.3996 102.561 39.373C102.561 40.9818 101.464 42.1296 99.416 42.1296H98.6857C98.0816 42.1296 97.8272 42.4014 97.8272 42.7357C97.8272 43.07 98.0981 43.3418 98.6857 43.3418H100.496C102.608 43.3418 103.419 44.361 103.419 45.6374C103.419 47.0883 102.356 48.2674 99.5112 48.2674C96.8899 48.2674 95.8887 47.2481 95.8887 45.9405H95.8905ZM99.5753 47.2316C101.29 47.2316 102.037 46.6108 102.037 45.7329C102.037 45.1122 101.688 44.5061 100.401 44.5061H98.7955C97.5892 44.5061 97.2231 45.1269 97.2231 45.766C97.2231 46.642 97.9059 47.2316 99.5734 47.2316H99.5753ZM99.4014 41.0644C100.56 41.0644 101.292 40.4584 101.292 39.2003C101.292 38.0525 100.674 37.3032 99.3867 37.3032C98.0999 37.3032 97.4647 37.9717 97.4647 39.1526C97.4647 40.3335 98.1475 41.0644 99.4032 41.0644H99.4014Z"
      fill="rgba(255,255,255,0.5)" />
    <path
      d="M104.99 34.6235V33.0147C104.99 32.9027 105.068 32.8237 105.18 32.8237H106.229C106.341 32.8237 106.419 32.9027 106.419 33.0147V34.6235C106.419 34.7355 106.341 34.8145 106.229 34.8145H105.18C105.068 34.8145 104.99 34.7355 104.99 34.6235ZM104.99 44.7282V36.3609C104.99 36.2489 105.068 36.1699 105.18 36.1699H106.229C106.341 36.1699 106.419 36.2489 106.419 36.3609V44.7282C106.419 44.8402 106.341 44.9192 106.229 44.9192H105.18C105.068 44.9192 104.99 44.8402 104.99 44.7282Z"
      fill="rgba(255,255,255,0.5)" />
    <path
      d="M109.33 42.688V37.3638H108.155C108.043 37.3638 107.964 37.2848 107.964 37.1728V36.3592C107.964 36.2472 108.043 36.1682 108.155 36.1682H109.33V34.1113C109.33 33.9993 109.409 33.9203 109.52 33.9203H110.553C110.664 33.9203 110.743 33.9993 110.743 34.1113V36.1682H112.601C112.713 36.1682 112.791 36.2472 112.791 36.3592V37.1728C112.791 37.2848 112.713 37.3638 112.601 37.3638H110.743V42.4804C110.743 43.2463 111.14 43.6283 111.951 43.6283H112.603C112.714 43.6283 112.793 43.7072 112.793 43.8193V44.7284C112.793 44.8404 112.714 44.9194 112.603 44.9194H111.744C110.22 44.9194 109.33 44.0911 109.33 42.688V42.688Z"
      fill="rgba(255,255,255,0.5)" />
    <path
      d="M119.14 44.7282V43.5969C118.583 44.5207 117.663 45.0955 116.487 45.0955C114.898 45.0955 113.85 44.0597 113.85 42.4968C113.85 40.9339 115.041 39.8669 117.534 39.8669H119.092V38.7668C119.092 37.6997 118.521 37.1892 117.36 37.1892C116.345 37.1892 115.836 37.5877 115.565 38.3682C115.534 38.4803 115.453 38.528 115.343 38.495L114.342 38.2232C114.23 38.1919 114.168 38.1111 114.199 38.0009C114.532 36.8053 115.565 35.9936 117.392 35.9936C119.345 35.9936 120.505 36.8862 120.505 38.7356V44.7282C120.505 44.8402 120.427 44.9192 120.315 44.9192H119.33C119.218 44.9192 119.14 44.8402 119.14 44.7282V44.7282ZM116.868 43.8999C117.9 43.8999 118.678 43.2626 119.092 42.2581V40.8549H117.534C116.041 40.8549 115.232 41.3802 115.232 42.416C115.232 43.292 115.819 43.8981 116.868 43.8981V43.8999Z"
      fill="rgba(255,255,255,0.5)" />
    <path
      d="M122.705 44.7282V33.0147C122.705 32.9027 122.784 32.8237 122.895 32.8237H123.944C124.056 32.8237 124.135 32.9027 124.135 33.0147V44.73C124.135 44.8421 124.056 44.921 123.944 44.921H122.895C122.784 44.921 122.705 44.8421 122.705 44.73V44.7282Z"
      fill="rgba(255,255,255,0.5)" />
    <path
      d="M21.0437 46.5611H13.1708V29.2204C13.1708 26.8898 11.2891 25 8.96622 25C6.64333 25 4.75977 26.8898 4.75977 29.2204V43.8081C4.75977 46.1387 6.64333 48.0285 8.96622 48.0285H11.7083V50.7796C11.7083 53.1102 13.5918 55 15.9147 55H21.0437C23.3666 55 25.2502 53.1102 25.2502 50.7796C25.2502 48.449 23.3666 46.5592 21.0437 46.5592V46.5611ZM11.7083 46.5611H8.96622C7.45058 46.5611 6.22415 45.3287 6.22415 43.8099V29.2204C6.22415 27.6997 7.45241 26.4674 8.96622 26.4674C10.48 26.4674 11.7083 27.6997 11.7083 29.2204V46.5611ZM21.0437 53.5326H15.9147C14.3991 53.5326 13.1727 52.3003 13.1727 50.7815V48.0303H21.0437C22.5594 48.0303 23.7876 49.2626 23.7876 50.7815C23.7876 52.3003 22.5594 53.5326 21.0437 53.5326ZM28.2559 48.0285C30.5787 48.0285 32.4623 46.1387 32.4623 43.8081V36.1919C32.4623 33.8613 30.5787 31.9715 28.2559 31.9715H25.5138V29.2204C25.512 26.8898 23.6302 25 21.3073 25H19.0888C16.7659 25 14.8823 26.8898 14.8823 29.2204C14.8823 31.551 16.7659 33.4408 19.0888 33.4408H24.0512V43.8099C24.0512 46.1405 25.9348 48.0303 28.2577 48.0303L28.2559 48.0285ZM19.0888 31.9715C17.5732 31.9715 16.3449 30.7392 16.3449 29.2204C16.3449 27.6997 17.5732 26.4692 19.0888 26.4692H21.3073C22.823 26.4692 24.0494 27.7016 24.0494 29.2204V31.9715H19.087H19.0888ZM28.2559 46.5611C26.7402 46.5611 25.5138 45.3287 25.5138 43.8081V33.4389H28.2559C29.7715 33.4389 30.9979 34.6713 30.9979 36.1901V43.8081C30.9979 45.3287 29.7697 46.5611 28.2559 46.5611V46.5611Z"
      fill="rgba(255,255,255,0.5)" />
  </g>
  <defs>
    <clipPath id="clip0_3070_2762">
      <rect width="119.375" height="30" fill="rgba(255,255,255,0.5)"
        transform="translate(4.75977 25)" />
    </clipPath>
  </defs>
</svg>