<svg width="25" height="24" viewBox="0 0 25 24" fill="none" xmlns="http://www.w3.org/2000/svg">
<path d="M6.65825 12.15C7.09159 11.05 7.61242 9.99168 8.22075 8.97501C8.82909 7.95834 9.51659 7.00001 10.2833 6.10001L8.98325 5.82501C8.64992 5.75834 8.32492 5.77501 8.00825 5.87501C7.69159 5.97501 7.41658 6.14168 7.18325 6.37501L4.03325 9.52501C3.78325 9.77501 3.68742 10.075 3.74575 10.425C3.80409 10.775 3.99992 11.0167 4.33325 11.15L6.65825 12.15ZM21.3583 2.40001C19.5916 2.31668 17.9124 2.65834 16.3208 3.42501C14.7291 4.19168 13.3083 5.20001 12.0583 6.45001C11.2583 7.25001 10.5541 8.11668 9.94575 9.05001C9.33742 9.98335 8.80825 10.9667 8.35825 12C8.27492 12.2167 8.23325 12.4375 8.23325 12.6625C8.23325 12.8875 8.31659 13.0833 8.48325 13.25L11.6083 16.375C11.7749 16.5417 11.9708 16.625 12.1958 16.625C12.4208 16.625 12.6416 16.5833 12.8583 16.5C13.8916 16.05 14.8749 15.5208 15.8083 14.9125C16.7416 14.3042 17.6083 13.6 18.4083 12.8C19.6583 11.55 20.6666 10.1292 21.4333 8.53751C22.1999 6.94584 22.5416 5.26668 22.4583 3.50001C22.4583 3.36668 22.4249 3.23334 22.3583 3.10001C22.2916 2.96668 22.2083 2.85001 22.1083 2.75001C22.0083 2.65001 21.8916 2.56668 21.7583 2.50001C21.6249 2.43334 21.4916 2.40001 21.3583 2.40001ZM15.0083 9.85001C14.6249 9.46668 14.4333 8.99584 14.4333 8.43751C14.4333 7.87918 14.6249 7.40834 15.0083 7.02501C15.3916 6.64168 15.8624 6.45001 16.4208 6.45001C16.9791 6.45001 17.4499 6.64168 17.8333 7.02501C18.2166 7.40834 18.4083 7.87918 18.4083 8.43751C18.4083 8.99584 18.2166 9.46668 17.8333 9.85001C17.4499 10.2333 16.9791 10.425 16.4208 10.425C15.8624 10.425 15.3916 10.2333 15.0083 9.85001ZM12.7083 18.2L13.7083 20.525C13.8416 20.8583 14.0833 21.0583 14.4333 21.125C14.7833 21.1917 15.0833 21.1 15.3333 20.85L18.4833 17.7C18.7166 17.4667 18.8833 17.1875 18.9833 16.8625C19.0833 16.5375 19.0999 16.2083 19.0333 15.875L18.7833 14.575C17.8666 15.3417 16.9041 16.0292 15.8958 16.6375C14.8874 17.2458 13.8249 17.7667 12.7083 18.2ZM4.58325 16.05C5.16659 15.4667 5.87492 15.1708 6.70825 15.1625C7.54159 15.1542 8.24992 15.4417 8.83325 16.025C9.41659 16.6083 9.70825 17.3167 9.70825 18.15C9.70825 18.9833 9.41659 19.6917 8.83325 20.275C8.03325 21.075 7.08742 21.55 5.99575 21.7C4.90409 21.85 3.80825 22 2.70825 22.15C2.85825 21.05 3.01242 19.9542 3.17075 18.8625C3.32909 17.7708 3.79992 16.8333 4.58325 16.05Z" fill="white"/>
</svg>
