<svg width="54" height="80" viewBox="0 0 54 80" fill="none" xmlns="http://www.w3.org/2000/svg">
  <g clip-path="url(#clip0_3070_2585)">
    <path
      d="M26.7957 50.6798L26.7272 50.6403L10.5659 41.327V22.8083L10.6344 22.7687L26.7939 13.4375L26.8623 13.477L42.984 22.758L42.9444 41.5103L38.6172 39.133L38.61 25.403L26.7957 18.5712L23.2179 20.6592L35.016 27.3598L35.1331 41.2641L30.5374 43.9684L18.4583 37.0863L18.4781 27.5251L22.5261 25.182L18.6781 23.218L14.9976 25.4156L14.9832 38.991L31.2004 48.0905L26.7957 50.6834V50.6798ZM10.8397 41.1707L26.7957 50.3653L30.6563 48.0941L14.7112 39.1492L14.7256 25.2592L18.6673 22.9053L23.0954 25.1658L18.7502 27.6796L18.7321 36.9264L30.5356 43.6504L34.8592 41.106L34.7457 27.5161L22.672 20.661L26.7939 18.255L38.8838 25.2466L38.891 38.9731L42.6742 41.0503L42.712 22.9143L26.7957 13.752L10.8379 22.9664V41.1707H10.8397Z"
      fill="rgba(255,255,255,0.5)" />
    <path
      d="M18.6743 23.2144L18.6094 23.182L14.1921 20.9575L14.3146 20.7149L18.6689 22.9053L22.8087 20.5801L22.7925 15.8274L23.0664 15.8256L23.0808 20.7401L18.6743 23.2144Z"
      fill="rgba(255,255,255,0.5)" />
    <path d="M26.9307 13.5938H26.6587V18.4131H26.9307V13.5938Z" fill="rgba(255,255,255,0.5)" />
    <path
      d="M26.7758 32.215L26.711 32.1773L18.5483 27.721L18.6799 27.482L26.774 31.9023L38.682 25.2071L38.8153 25.4443L26.7758 32.215Z"
      fill="rgba(255,255,255,0.5)" />
    <path
      d="M26.774 36.9965L18.5447 32.1755L18.6834 31.9419L26.7776 36.6821L34.8537 32.206L34.987 32.4432L26.774 36.9965Z"
      fill="rgba(255,255,255,0.5)" />
    <path d="M34.8924 36.9221L26.7795 41.5903L26.9155 41.8253L35.0283 37.1571L34.8924 36.9221Z"
      fill="rgba(255,255,255,0.5)" />
    <path
      d="M30.849 48.3169L30.8454 44.1355L30.5373 43.9648L27.0334 45.9845L26.8965 45.7491L30.5337 43.6522L31.1174 43.9756L31.121 47.8461L42.7425 41.1635L42.8776 41.3989L30.849 48.3169Z"
      fill="rgba(255,255,255,0.5)" />
    <path
      d="M38.8043 43.6611L34.6897 41.2354L38.6872 38.9353L38.8224 39.1707L35.2301 41.2371L38.9431 43.4276L38.8043 43.6611Z"
      fill="rgba(255,255,255,0.5)" />
    <path d="M35.0309 41.1227L34.8899 41.3547L38.7553 43.6916L38.8963 43.4595L35.0309 41.1227Z"
      fill="rgba(255,255,255,0.5)" />
    <path d="M14.7846 38.9457L10.6409 41.1276L10.7679 41.3676L14.9116 39.1857L14.7846 38.9457Z"
      fill="rgba(255,255,255,0.5)" />
    <path
      d="M26.7758 27.4317L22.5332 25.1784L26.6731 22.7005L26.8136 22.9341L23.0863 25.1658L26.7758 27.1226L30.7265 24.9969L30.8562 25.2359L26.7758 27.4317Z"
      fill="rgba(255,255,255,0.5)" />
    <path
      d="M12.6123 55.2545C12.5024 55.4468 12.4466 55.542 12.3943 55.6391C11.5206 57.276 10.6505 58.9148 9.76955 60.5482C9.7101 60.6578 9.56598 60.8051 9.4777 60.7943C9.357 60.78 9.20748 60.656 9.14443 60.5392C8.24908 58.8878 7.36454 57.2311 6.4782 55.5762C6.42595 55.4791 6.3683 55.3875 6.26382 55.2114C6.05304 57.1377 5.6423 58.9525 5.67472 60.8411H4.85864C5.20994 58.453 5.55943 56.0649 5.91252 53.6733C6.46919 53.5583 6.48901 53.5673 6.75022 54.0578C7.66359 55.7631 8.57695 57.4683 9.49212 59.1735C9.54977 59.2814 9.61462 59.3874 9.69569 59.5293C9.76595 59.4107 9.8254 59.3227 9.87404 59.2292C10.809 57.4719 11.7512 55.7163 12.6736 53.9518C12.8303 53.6517 13.0123 53.5655 13.3239 53.6751C13.6662 56.0703 14.0067 58.4602 14.3472 60.8446H13.3239C13.0879 58.9956 12.8555 57.1772 12.6123 55.2545V55.2545Z"
      fill="rgba(255,255,255,0.5)" />
    <path
      d="M29.6006 53.65H30.8905C31.0544 54.818 31.6363 55.8297 32.029 56.9078C32.3263 57.7254 32.6668 58.5268 33.0126 59.3965C33.0793 59.242 33.1297 59.1377 33.1694 59.0317C33.6918 57.6463 34.2106 56.2591 34.7421 54.8773C34.7835 54.7677 34.924 54.694 35.0177 54.6042C35.1024 54.694 35.2213 54.7677 35.2663 54.8737C35.8482 56.2609 36.4193 57.6517 36.9922 59.0407C37.0426 59.1647 37.0985 59.2887 37.1813 59.4827C37.9181 57.499 38.8495 55.6608 39.4566 53.6321H40.3033C40.1214 54.0274 39.9448 54.385 39.7899 54.7533C38.9486 56.7425 38.1127 58.7334 37.2732 60.7226C37.2138 60.8628 37.1921 61.0155 36.9669 61.0173C36.7436 61.0191 36.7129 60.8735 36.6535 60.7298C36.0914 59.3713 35.5293 58.0129 34.9673 56.6562C34.9258 56.5556 34.879 56.455 34.8033 56.2861C34.7025 56.543 34.625 56.7335 34.5511 56.9276C34.0719 58.1962 33.5981 59.4684 33.1099 60.7334C33.0667 60.843 32.9496 60.9598 32.8379 60.9993C32.6289 61.0748 32.5803 60.8861 32.5226 60.7388C31.7678 58.861 31.0184 56.9815 30.2563 55.1055C30.0618 54.624 29.8312 54.1586 29.6006 53.6483V53.65Z"
      fill="rgba(255,255,255,0.5)" />
    <path
      d="M47.5418 57.9284C47.7814 58.0129 47.9544 58.065 48.1183 58.1351C48.6461 58.3615 48.9578 58.7514 48.9596 59.3354C48.9596 59.9266 48.729 60.4243 48.1579 60.6364C47.731 60.7945 47.2608 60.8682 46.8032 60.9059C46.2519 60.9508 45.6953 60.9167 45.1638 60.9167V55.4398C45.8196 55.4398 46.5366 55.384 47.241 55.4541C48.1759 55.5476 48.6732 56.2807 48.4426 57.0929C48.3201 57.5277 47.9994 57.7577 47.5418 57.9284V57.9284ZM46.1042 60.5339C46.4681 60.5339 46.7636 60.5609 47.0536 60.5285C47.6499 60.4585 47.9544 60.0757 47.9724 59.4252C47.9904 58.7568 47.7003 58.3399 47.1058 58.2429C46.841 58.1998 46.5636 58.2195 46.2934 58.2393C46.2267 58.2447 46.1168 58.3561 46.115 58.419C46.1024 59.1054 46.1078 59.7936 46.1078 60.5339H46.1042ZM46.124 57.8691C46.6411 57.9069 47.1239 57.8925 47.3977 57.4091C47.6463 56.9689 47.6445 56.4873 47.3418 56.0651C47.0338 55.6356 46.5852 55.7039 46.124 55.7991V57.8691V57.8691Z"
      fill="rgba(255,255,255,0.5)" />
    <path
      d="M29.7231 60.8466H28.5792C28.3576 60.3219 28.1576 59.8242 27.9306 59.3372C27.891 59.2528 27.7487 59.1701 27.6514 59.1683C26.9488 59.1557 26.2462 59.1611 25.5418 59.1737C25.4572 59.1737 25.3293 59.2276 25.2986 59.2923C25.0644 59.7864 24.8483 60.2914 24.605 60.843H23.9097C24.4303 59.7936 24.9473 58.7568 25.459 57.7164C25.8085 57.0066 26.1435 56.2897 26.5038 55.5871C26.5633 55.4721 26.7092 55.3445 26.8281 55.3337C26.9182 55.3248 27.0659 55.4703 27.1182 55.5799C27.8045 56.9923 28.4765 58.4118 29.1611 59.8242C29.3268 60.1656 29.525 60.4908 29.7213 60.8484L29.7231 60.8466ZM25.5671 58.7299H27.6604C27.3127 57.9913 26.9848 57.2923 26.6263 56.5305C26.2552 57.3013 25.9165 58.0039 25.5671 58.7299V58.7299Z"
      fill="rgba(255,255,255,0.5)" />
    <path
      d="M15.6209 60.8682V55.4344H18.6871C18.6277 55.5943 18.57 55.747 18.5322 55.8459H16.5811V57.8278C17.1612 57.7991 17.7305 57.7721 18.3286 57.7434C18.2908 57.9339 18.2583 58.0956 18.2205 58.2843C17.6729 58.2519 17.136 58.2214 16.5793 58.189V60.5034C17.2927 60.4297 17.9935 60.3579 18.6907 60.2842C18.6979 60.295 18.7105 60.304 18.7105 60.3111C18.6493 60.8772 18.6493 60.8718 18.0674 60.87C17.2405 60.8664 16.4118 60.87 15.6191 60.87L15.6209 60.8682Z"
      fill="rgba(255,255,255,0.5)" />
    <path
      d="M41.7967 57.8314C42.3822 57.8009 42.9443 57.7721 43.537 57.7416L43.4379 58.2842C42.892 58.2519 42.3552 58.2213 41.7949 58.1872V60.5016C42.5011 60.4279 43.2019 60.356 43.9297 60.2806C43.9009 60.4639 43.8721 60.6471 43.8396 60.8502H40.8347V55.438H43.8955C43.8396 55.5907 43.7856 55.7434 43.7478 55.8458H41.7967V57.8314Z"
      fill="rgba(255,255,255,0.5)" />
    <path
      d="M24.0699 55.4523C24.0987 55.6356 24.1294 55.8189 24.16 56.0112C23.4898 55.9357 22.8449 55.8638 22.1891 55.7901V60.8466H21.1911V55.7973C20.5624 55.8656 19.9066 55.9357 19.2148 56.0094C19.2401 55.8423 19.2671 55.659 19.2977 55.4523H24.0717H24.0699Z"
      fill="rgba(255,255,255,0.5)" />
    <path
      d="M4.71103 62.1997H5.34156C5.85859 63.3856 6.36661 64.5482 6.90707 65.788C7.43491 64.559 7.92852 63.4072 8.44735 62.1997C8.44735 62.1997 8.53563 62.1871 8.6221 62.1835C8.69957 62.1817 8.77883 62.1907 8.89593 62.1961C8.78604 62.4279 8.68335 62.6363 8.58787 62.8465C8.05643 64.0199 7.53039 65.1933 6.99354 66.3648C6.95391 66.4511 6.85482 66.5392 6.76835 66.5607C6.72151 66.5715 6.61342 66.4547 6.57739 66.3756C5.95587 64.9974 5.34156 63.6174 4.70923 62.1997H4.71103Z"
      fill="rgba(255,255,255,0.5)" />
    <path
      d="M22.1099 63.2455C22.454 63.2455 22.7926 63.2419 23.1313 63.2455C23.7024 63.2526 24.0861 63.4862 24.2104 63.8995C24.3347 64.311 24.1744 64.6506 23.6465 65.0316C24.0014 65.5041 24.3563 65.9785 24.7058 66.4439C24.1852 66.5607 24.1366 66.5427 23.8231 66.0971C23.6664 65.8761 23.4916 65.6641 23.3547 65.4323C23.2034 65.1753 23.0142 65.0495 22.6972 65.1591V66.4673H22.1117V63.2437L22.1099 63.2455ZM22.6863 64.9112C23.1728 64.9633 23.434 64.8591 23.5745 64.5769C23.7168 64.2948 23.6826 63.8079 23.497 63.6102C23.2592 63.3569 22.9728 63.4233 22.6863 63.4719V64.9112Z"
      fill="rgba(255,255,255,0.5)" />
    <path
      d="M33.1388 65.8114C33.0919 66.3163 32.8145 66.5517 32.3551 66.5355C31.8615 66.5158 31.3481 66.532 30.8833 66.3972C29.8834 66.1043 29.3106 65.1897 29.4042 64.187C29.5033 63.134 30.2564 62.3093 31.2904 62.1673C31.6345 62.1206 31.9912 62.135 32.3389 62.1673C32.8541 62.2176 32.8848 62.2661 33.0163 62.8214C32.5263 62.471 32.0038 62.3147 31.4147 62.4135C30.6689 62.5393 30.1321 63.0298 30.0708 63.7773C30.0348 64.2176 30.078 64.6901 30.2059 65.1106C30.5608 66.2822 32.0885 66.735 33.1406 65.8078L33.1388 65.8114Z"
      fill="rgba(255,255,255,0.5)" />
    <path
      d="M14.2768 63.2724H14.6137V66.4834L14.5182 66.5463C13.7382 65.7845 12.9599 65.0226 12.1294 64.2104V66.4619H11.7673V63.1718C12.2573 63.5653 12.6285 63.9876 13.032 64.3739C13.4373 64.762 13.8337 65.1591 14.2768 65.5958V63.2706V63.2724Z"
      fill="rgba(255,255,255,0.5)" />
    <path
      d="M44.2233 66.4709H43.8306C43.9477 66.2463 44.0576 66.0432 44.1584 65.8348C44.5458 65.0441 44.9259 64.2517 45.3204 63.4647C45.3745 63.3587 45.4862 63.2796 45.5708 63.1898C45.6465 63.276 45.7456 63.3533 45.7942 63.4521C46.2788 64.444 46.7562 65.4413 47.2462 66.4583H46.6427C46.4662 66.1259 46.3725 65.6749 46.1059 65.5203C45.8248 65.3586 45.3799 65.4736 45.0069 65.4808C44.353 65.4934 44.5259 66.1367 44.2251 66.4709H44.2233ZM45.4501 63.9103C45.2249 64.3775 45.0286 64.7854 44.8214 65.2166H46.059C45.8573 64.7836 45.6699 64.3829 45.4483 63.9103H45.4501Z"
      fill="rgba(255,255,255,0.5)" />
    <path
      d="M33.6882 66.4709H33.3279C33.8467 65.4089 34.3547 64.3685 34.8682 63.3317C34.897 63.2724 34.9961 63.1861 35.0285 63.1987C35.1096 63.2293 35.1996 63.2975 35.2375 63.373C35.5419 63.9911 35.832 64.6147 36.131 65.2346C36.3256 65.6371 36.531 66.036 36.7471 66.4637H36.1076C35.9563 66.142 35.8806 65.6515 35.6338 65.5383C35.2771 65.3747 34.7853 65.4287 34.3673 65.4933C33.8593 65.5706 33.989 66.1348 33.69 66.4691L33.6882 66.4709ZM34.3115 65.2022H35.5383C35.3312 64.762 35.1438 64.3595 34.9312 63.9085C34.7096 64.3721 34.5169 64.7728 34.3115 65.2022Z"
      fill="rgba(255,255,255,0.5)" />
    <path
      d="M18.4221 63.2724H19.0094C19.0094 63.948 19.0076 64.6093 19.0094 65.2723C19.013 66.0971 19.6616 66.5104 20.4272 66.1834C20.7983 66.0252 20.8992 65.7126 20.8974 65.355C20.8938 64.7333 20.8722 64.1115 20.8578 63.4898C20.8578 63.4251 20.8578 63.3587 20.8578 63.2742H21.1856C21.1856 64.0576 21.1982 64.8231 21.1766 65.5886C21.1712 65.7665 21.0739 65.9623 20.9694 66.1133C20.6866 66.5194 19.9246 66.6685 19.2724 66.4745C18.768 66.3253 18.5014 65.9659 18.4852 65.3784C18.469 64.8357 18.4744 64.293 18.4636 63.7504C18.4618 63.6048 18.4383 63.4593 18.4221 63.2706V63.2724Z"
      fill="rgba(255,255,255,0.5)" />
    <path
      d="M37.2209 63.2562C37.6353 63.2562 38.0659 63.2293 38.491 63.2634C38.9702 63.3012 39.2837 63.6174 39.3449 64.0469C39.408 64.4907 39.1936 64.9255 38.7612 65.0891C38.464 65.2023 38.1307 65.2274 37.7938 65.2957V66.4619H37.2227V63.2562H37.2209ZM37.7632 65.0028C38.1217 65.0747 38.4226 65.0495 38.6153 64.7548C38.8279 64.4296 38.8297 64.0702 38.6622 63.7234C38.527 63.4449 38.264 63.4036 37.9956 63.4521C37.9091 63.4683 37.7776 63.5815 37.774 63.6569C37.7524 64.0936 37.7632 64.532 37.7632 65.0046V65.0028Z"
      fill="rgba(255,255,255,0.5)" />
    <path
      d="M25.7633 66.266C26.1723 66.2265 26.5632 66.1887 26.9829 66.1474L26.9667 66.4798H25.176V63.2706H26.9559C26.9649 63.4719 26.8803 63.5401 26.6713 63.5168C26.3722 63.4844 26.0714 63.4844 25.7543 63.4701V64.6794C26.0948 64.665 26.4173 64.6506 26.7686 64.6344L26.7127 64.9543C26.392 64.9327 26.0894 64.9148 25.7633 64.8932V66.266V66.266Z"
      fill="rgba(255,255,255,0.5)" />
    <path
      d="M10.7496 64.9543C10.4019 64.9327 10.0992 64.9129 9.77676 64.8932V66.2606C10.1929 66.2229 10.6001 66.1869 11.0378 66.1474L10.9802 66.4744H9.21289V63.2652H10.9622C10.9369 63.5275 10.9369 63.524 10.7171 63.5132C10.4055 63.497 10.0956 63.4844 9.77676 63.47V64.6794C10.119 64.6632 10.4415 64.6488 10.791 64.6326L10.7514 64.9525L10.7496 64.9543Z"
      fill="rgba(255,255,255,0.5)" />
    <path
      d="M41.051 63.5887L41.1015 63.2598H43.919L43.9731 63.5869C43.5767 63.5491 43.2002 63.515 42.8075 63.4773V66.4655H42.2166V63.4826C41.8455 63.5168 41.4708 63.5509 41.051 63.5887V63.5887Z"
      fill="rgba(255,255,255,0.5)" />
    <path
      d="M16.2587 66.4565V63.4808C15.8822 63.5168 15.5057 63.5509 15.1003 63.5887L15.131 63.2706H17.9665C17.9791 63.3694 17.99 63.4647 18.0044 63.5851C17.6062 63.5491 17.2315 63.515 16.8514 63.4808V66.4565H16.2587V66.4565Z"
      fill="rgba(255,255,255,0.5)" />
    <path
      d="M47.729 66.4763V63.2742H48.3199V66.2588C48.7342 66.2193 49.1414 66.1798 49.5719 66.1384L49.5179 66.4763H47.729V66.4763Z"
      fill="rgba(255,255,255,0.5)" />
    <path d="M40.5339 66.4727H39.9539V63.276H40.5339V66.4727Z" fill="rgba(255,255,255,0.5)" />
  </g>
  <defs>
    <clipPath id="clip0_3070_2585">
      <rect width="44.8611" height="53.125" fill="rgba(255,255,255,0.5)"
        transform="translate(4.71094 13.4375)" />
    </clipPath>
  </defs>
</svg>