<svg width="128" height="80" viewBox="0 0 128 80" fill="none" xmlns="http://www.w3.org/2000/svg">
  <g clip-path="url(#clip0_3070_2540)">
    <path
      d="M13.3587 46.875L7.69254 36.2584V46.875H4.58594V33.1272H9.45192L14.6862 42.8495L19.9227 33.1272H24.724V46.875H21.5955V36.2584L15.9468 46.875H13.3587V46.875Z"
      fill="rgba(255,255,255,0.5)" />
    <path d="M34.5622 46.8739H31.3679V33.125H34.5622V46.8739Z" fill="rgba(255,255,255,0.5)" />
    <path
      d="M40.7964 40.4628H50.4198C52.2877 40.4628 53.3532 39.6356 53.3532 38.2036C53.3532 36.7715 52.2877 35.922 50.4198 35.922H40.7964V33.125H50.5908C54.1315 33.125 56.5223 34.87 56.5223 38.1801C56.5223 40.6405 55.1312 42.276 52.9159 42.8998L56.895 46.8728H53.2217L49.5484 43.2128H43.9874V46.8728H40.7942L40.7964 40.4617V40.4628Z"
      fill="rgba(255,255,255,0.5)" />
    <path
      d="M69.9955 36.3691L63.7603 46.8728H60.3501L68.2142 33.125H71.7987L79.6628 46.8739H76.2087L69.9966 36.3702L69.9955 36.3691Z"
      fill="rgba(255,255,255,0.5)" />
    <path
      d="M100.128 46.8739H97.3038L87.1147 37.3081V46.8739H84.03V33.125H87.289L97.021 42.1586V33.125H100.128V46.8739Z"
      fill="rgba(255,255,255,0.5)" />
    <path
      d="M114.294 36.3691L108.058 46.8728H104.648L112.512 33.125H116.096L123.961 46.8739H120.507L114.294 36.3702V36.3691Z"
      fill="rgba(255,255,255,0.5)" />
  </g>
  <defs>
    <clipPath id="clip0_3070_2540">
      <rect width="119.375" height="13.75" fill="rgba(255,255,255,0.5)"
        transform="translate(4.58594 33.125)" />
    </clipPath>
  </defs>
</svg>