<svg width="69" height="80" viewBox="0 0 69 80" fill="none" xmlns="http://www.w3.org/2000/svg">
  <g clip-path="url(#clip0_3070_2740)">
    <path
      d="M21.5772 18.818V42.591H20.1973V16.3168H20.6133C23.288 16.3168 25.9619 16.3278 28.6366 16.3129C30.1835 16.3043 31.341 16.9482 32.166 18.2523C37.3624 26.4691 42.5651 34.682 47.7663 42.8965C47.8318 42.9997 47.9036 43.0989 48.0355 43.2911V19.3438H49.4381V45.5883C49.3866 45.5977 49.3327 45.6164 49.2788 45.6164C46.4074 45.6164 43.5361 45.6352 40.6654 45.6071C39.2918 45.5938 38.2358 44.9429 37.4998 43.7826C35.6095 40.8017 33.7207 37.8192 31.8319 34.8367C28.4938 29.5664 25.1565 24.2953 21.8183 19.025C21.7699 18.9485 21.7153 18.8766 21.6638 18.8023L21.5764 18.8172L21.5772 18.818Z"
      fill="rgba(255,255,255,0.5)" />
    <path
      d="M36.5756 55.0413C36.3812 57.4143 36.1931 59.7068 36.0043 62.0126H34.8687C35.1379 58.7668 35.4056 55.5437 35.6725 52.3214C35.7256 52.3049 35.7568 52.2924 35.7896 52.2862C36.3016 52.1862 36.574 52.387 36.8082 52.8769C37.9391 55.2452 39.1207 57.5901 40.2844 59.9428C40.3024 59.9795 40.3242 60.0147 40.3633 60.085C40.7153 59.3404 41.0392 58.6278 41.3857 57.9269C42.2832 56.1118 43.187 54.3006 44.1018 52.494C44.1533 52.3925 44.3148 52.3151 44.4382 52.2909C44.6138 52.2565 44.8011 52.2823 45.0118 52.2823C45.2865 55.5375 45.5597 58.7614 45.8337 62.0087H44.6216C44.4343 59.7045 44.2462 57.4034 44.0518 55.0085C43.8559 55.4195 43.6983 55.7578 43.5328 56.0922C42.5829 58.0097 41.6292 59.9256 40.684 61.8454C40.6052 62.0056 40.5342 62.0994 40.3313 62.0962C40.1299 62.0931 40.0276 62.029 39.9387 61.8478C38.8647 59.6568 37.7822 57.4698 36.702 55.2819C36.6723 55.2226 36.6411 55.1647 36.5763 55.0397L36.5756 55.0413Z"
      fill="rgba(255,255,255,0.5)" />
    <path
      d="M20.9385 52.301C20.9994 52.2932 21.0337 52.2846 21.068 52.2846C21.4372 52.2917 21.8899 52.1729 22.1506 52.3448C22.391 52.5034 22.4339 52.9715 22.5486 53.3082C23.2331 55.3109 23.9129 57.3151 24.595 59.3185C24.6052 59.3474 24.6224 59.3747 24.6505 59.4318C24.8963 58.6817 25.1289 57.9566 25.3724 57.2354C25.9016 55.6679 26.4385 54.1037 26.9669 52.5362C27.0247 52.3651 27.091 52.2784 27.2994 52.276C28.1564 52.269 28.1548 52.2604 28.4327 53.0707C29.1484 55.1601 29.8664 57.2486 30.5884 59.3529C31.3993 57.008 32.2141 54.6514 33.0297 52.294H34.1965C33.8812 53.2059 33.5729 54.1005 33.2615 54.9944C32.4615 57.2877 31.66 59.5802 30.8608 61.8743C30.8046 62.0353 30.789 62.1986 30.5392 62.2033C30.291 62.208 30.2645 62.0564 30.2083 61.8899C29.3529 59.3591 28.4951 56.8298 27.6374 54.2998C27.6194 54.2459 27.5937 54.1943 27.5593 54.1107C27.2409 55.0702 26.9388 56.0008 26.622 56.9267C26.0491 58.6012 25.4661 60.2717 24.8916 61.9454C24.8385 62.1001 24.7847 62.2048 24.5865 62.2009C24.4054 62.1978 24.3227 62.1353 24.2649 61.9681C23.1668 58.7864 22.0639 55.607 20.9627 52.4268C20.9517 52.3956 20.9494 52.3612 20.9385 52.3018V52.301Z"
      fill="rgba(255,255,255,0.5)" />
    <path
      d="M64.6762 62.3088C64.4545 62.1822 64.2563 62.1251 64.1408 61.9946C61.9546 59.5404 59.7786 57.0767 57.5995 54.6162C57.5324 54.5404 57.4606 54.4693 57.3654 54.3685V62.0118H56.1299V52.319C56.6645 52.2081 57.0587 52.3096 57.4403 52.7527C59.3517 54.971 61.3021 57.1549 63.2393 59.3497C63.29 59.4068 63.3439 59.4615 63.4383 59.5623V52.3104H64.6762V62.3095V62.3088Z"
      fill="rgba(255,255,255,0.5)" />
    <path
      d="M12.2299 52.2979H13.4787V62.1751C13.2352 62.2853 13.0783 62.1767 12.9191 61.9954C10.7377 59.5209 8.55152 57.051 6.36617 54.5803C6.31388 54.5209 6.25846 54.4639 6.16558 54.3638V62.0056H4.93164V52.3159C5.43427 52.2229 5.82685 52.2792 6.20695 52.7206C8.14801 54.9741 10.1297 57.1924 12.0973 59.424C12.1269 59.4576 12.1534 59.4951 12.2299 59.5927V52.2979V52.2979Z"
      fill="rgba(255,255,255,0.5)" />
    <path
      d="M45.5961 16.3317H46.9541V38.8678C46.4804 38.1208 46.048 37.4441 45.625 36.762C45.5813 36.6917 45.5867 36.5839 45.5867 36.4932C45.5852 29.8415 45.5852 23.1905 45.586 16.5387C45.586 16.4817 45.5914 16.4254 45.5969 16.3317H45.5961Z"
      fill="rgba(255,255,255,0.5)" />
    <path
      d="M22.6792 23.1116C23.1537 23.8648 23.5807 24.536 23.9982 25.2127C24.0427 25.2838 24.0466 25.3885 24.0466 25.4775C24.0482 32.1285 24.0482 38.7795 24.0474 45.4305C24.0474 45.4758 24.0404 45.5211 24.0341 45.5914H22.6792V23.1116Z"
      fill="rgba(255,255,255,0.5)" />
    <path
      d="M44.2539 34.6078C43.7825 33.8663 43.3634 33.2154 42.9552 32.5583C42.9045 32.477 42.8897 32.3614 42.8897 32.2614C42.8873 26.0308 42.8881 19.7994 42.8897 13.5688C42.8897 13.5352 42.8982 13.5008 42.9068 13.4375H44.2547V34.6078H44.2539Z"
      fill="rgba(255,255,255,0.5)" />
    <path
      d="M26.7312 48.5185H25.3833V27.3841C25.8532 28.128 26.2848 28.8046 26.7062 29.4875C26.7499 29.5586 26.7445 29.6665 26.7445 29.7571C26.746 35.933 26.746 42.1089 26.7445 48.2848C26.7445 48.352 26.7367 48.4192 26.7304 48.5185H26.7312Z"
      fill="rgba(255,255,255,0.5)" />
    <path
      d="M46.5156 62.0314C46.7186 61.5367 46.9004 61.0906 47.0846 60.6452C48.1991 57.9425 49.3199 55.2421 50.4212 52.5346C50.5523 52.2119 50.6959 52.0424 51.083 52.1877C52.42 55.4312 53.7702 58.7066 55.14 62.0306C54.7263 62.0306 54.3688 62.0485 54.0161 62.0189C53.9185 62.011 53.7944 61.8766 53.7491 61.7719C53.451 61.0828 53.1646 60.3881 52.8898 59.6896C52.8118 59.4911 52.7142 59.4044 52.4887 59.4068C51.3671 59.4185 50.2448 59.4177 49.1224 59.4068C48.9 59.4044 48.7962 59.4849 48.7182 59.6865C48.4473 60.3866 48.1523 61.0781 47.8807 61.7782C47.8073 61.9673 47.7105 62.0478 47.5022 62.0353C47.1939 62.0173 46.8832 62.0306 46.5156 62.0306V62.0314ZM50.8106 54.4771C50.3072 55.7625 49.8007 57.0572 49.2863 58.3707H52.3177C51.8089 57.0556 51.3101 55.7672 50.8106 54.4771V54.4771Z"
      fill="rgba(255,255,255,0.5)" />
    <path
      d="M15.1694 62.0071V52.3034H20.3027V53.3879H16.4362V56.5743H19.6502V57.6893H16.4362V60.9359H20.8498V62.0079H15.1694V62.0071Z"
      fill="rgba(255,255,255,0.5)" />
    <path
      d="M27.9573 31.4472C28.4365 32.2074 28.8674 32.8864 29.2896 33.5701C29.3279 33.6319 29.3255 33.7256 29.3255 33.8038C29.3271 37.1629 29.3271 40.5219 29.3255 43.8818C29.3255 43.9271 29.3161 43.9725 29.3083 44.0412H27.9565V31.4472H27.9573Z"
      fill="rgba(255,255,255,0.5)" />
    <path
      d="M40.3166 17.985H41.6809V30.526C41.4725 30.2048 41.3227 29.9243 41.1275 29.6821C40.4649 28.8616 40.2706 27.949 40.2955 26.8895C40.3603 24.0656 40.3174 21.2402 40.3174 18.4148V17.985H40.3166Z"
      fill="rgba(255,255,255,0.5)" />
    <path
      d="M55.179 66.4859C54.8941 66.5969 54.813 66.4555 54.7373 66.2609C54.6826 66.1187 54.596 65.9007 54.4945 65.8819C54.2159 65.8319 53.9146 65.8343 53.6383 65.8929C53.5416 65.9132 53.4776 66.1515 53.4237 66.2992C53.3519 66.4961 53.2442 66.5797 53.0054 66.4859C53.3488 65.6553 53.6891 64.8333 54.0286 64.0121C54.0684 64.0106 54.109 64.009 54.1488 64.0074C54.4891 64.8271 54.8301 65.6467 55.179 66.4859V66.4859ZM54.4461 65.5647C54.3205 65.2428 54.2143 64.9709 54.0856 64.6435C53.956 64.9756 53.8467 65.2561 53.7265 65.5647H54.4461Z"
      fill="rgba(255,255,255,0.5)" />
    <path
      d="M17.0965 66.4851C16.7781 66.6156 16.686 66.4242 16.6485 66.2281C16.5588 65.7538 16.2013 65.8858 15.8969 65.8499C15.5816 65.8132 15.4356 65.9429 15.3584 66.2296C15.3076 66.4164 15.2366 66.625 14.9307 66.4758C14.9783 66.3585 15.0235 66.2437 15.0712 66.1288C15.3599 65.4272 15.6495 64.7263 15.939 64.0246C15.9796 64.016 16.0194 64.0066 16.06 63.998C16.4034 64.8224 16.7476 65.6459 17.0973 66.4859L17.0965 66.4851ZM15.6409 65.5576H16.3566C16.2403 65.2568 16.1365 64.9857 16.0054 64.6466C15.8727 64.9779 15.7642 65.2482 15.6409 65.5576Z"
      fill="rgba(255,255,255,0.5)" />
    <path
      d="M25.4972 66.5625C25.4122 66.4976 25.2553 66.4344 25.2537 66.3672C25.2366 65.6085 25.2428 64.849 25.2428 64.0496C25.541 64.0496 25.804 64.0363 26.0647 64.0528C26.451 64.0762 26.7296 64.3583 26.7429 64.7122C26.7554 65.0615 26.4931 65.3569 26.106 65.4123C25.9476 65.435 25.7852 65.4295 25.5839 65.4389V66.4961C25.555 66.518 25.5261 66.5406 25.498 66.5625H25.4972ZM25.5956 65.2404C25.8922 65.1146 26.1318 65.0412 26.3331 64.9099C26.3893 64.8732 26.3815 64.588 26.3199 64.5489C26.1177 64.42 25.8766 64.3528 25.5956 64.2395V65.2404V65.2404Z"
      fill="rgba(255,255,255,0.5)" />
    <path
      d="M6.77455 64.438C6.15797 64.2207 5.67876 64.3075 5.38373 64.6888C5.13398 65.0115 5.12539 65.5248 5.36344 65.8593C5.64129 66.2492 6.14002 66.3539 6.85416 66.2093C6.78236 66.3 6.72929 66.4367 6.63563 66.4742C6.10802 66.6844 5.41105 66.464 5.08559 66.0069C4.76871 65.5616 4.79291 64.9115 5.14334 64.4888C5.50081 64.0567 6.21651 63.8809 6.72382 64.1207C6.80109 64.1575 6.83153 64.2926 6.88382 64.3825C6.84714 64.4005 6.81046 64.4192 6.77455 64.4372V64.438Z"
      fill="rgba(255,255,255,0.5)" />
    <path
      d="M44.559 64.3153V66.4703C44.2991 66.5922 44.225 66.4992 44.2281 66.2671C44.2343 65.7577 44.2297 65.249 44.2297 64.7396C44.2297 64.6153 44.2297 64.4919 44.2297 64.3364H43.471C43.4484 64.3044 43.425 64.2715 43.4023 64.2395C43.4741 64.1762 43.5444 64.0606 43.6178 64.0582C44.1376 64.0426 44.6581 64.0434 45.1779 64.0567C45.2568 64.059 45.3333 64.1543 45.4105 64.2075C45.3941 64.2442 45.3777 64.2801 45.3614 64.3169H44.5582L44.559 64.3153Z"
      fill="rgba(255,255,255,0.5)" />
    <path
      d="M63.645 66.2273C63.9775 66.2273 64.2554 66.2343 64.5316 66.2249C64.7424 66.2179 64.8048 66.3007 64.7276 66.5109H63.3141C63.3141 65.735 63.3078 64.9748 63.325 64.2153C63.3266 64.1457 63.4788 64.0801 63.5615 64.0121C63.5896 64.0332 63.6169 64.0543 63.645 64.0754V66.2265V66.2273Z"
      fill="rgba(255,255,255,0.5)" />
    <path d="M35.2845 66.5117H34.9785V64.0723H35.2845V66.5117Z" fill="rgba(255,255,255,0.5)" />
  </g>
  <defs>
    <clipPath id="clip0_3070_2740">
      <rect width="59.8958" height="53.125" fill="rgba(255,255,255,0.5)"
        transform="translate(4.86377 13.4375)" />
    </clipPath>
  </defs>
</svg>