<svg width="107" height="80" viewBox="0 0 107 80" fill="none" xmlns="http://www.w3.org/2000/svg">
  <g clip-path="url(#clip0_3070_2337)">
    <path
      d="M4 35V45H14.2361V35H4ZM7.58185 41.2962H6.57217V36.6685H7.58185V41.2962ZM9.65898 43.2872H8.64929V36.6685H9.65898V43.2882V43.2872ZM11.7361 41.2962H10.746V36.6685H11.7361V41.2962V41.2962Z"
      fill="rgba(255,255,255,0.5)" />
    <path d="M20.8811 41.8091V42.9939H19.8569V39.7315H20.9037" fill="rgba(255,255,255,0.5)" />
    <path
      d="M35.8613 36.7824L39.372 43.0635H37.9653L36.9484 41.1985H33.0757L32.0866 43.0635H30.7913L34.1906 36.7824H35.8624H35.8613ZM35.0115 37.5108H34.9971L33.381 40.5124H36.6266L35.0105 37.5108H35.0115Z"
      fill="rgba(255,255,255,0.5)" />
    <path
      d="M50.1402 43.0645L45.6075 37.798V43.0645H44.5122V36.7824H46.053L50.4713 41.9965V36.7824H51.5532V43.0635H50.1402V43.0645Z"
      fill="rgba(255,255,255,0.5)" />
    <path d="M59.9709 43.4776V37.666H57.1306V36.9436H63.9787V37.666H61.1642V43.4776H59.9709Z"
      fill="rgba(255,255,255,0.5)" />
    <path
      d="M71.0806 42.2756H76.1889V42.9365H69.7141V36.9536H75.995V37.6146H71.0796V39.5894H74.2654V40.2504H71.0796V42.2756H71.0806Z"
      fill="rgba(255,255,255,0.5)" />
    <path
      d="M99.0072 36.7824L102.75 43.0635H101.25L100.166 41.1985H96.037L94.9819 43.0635H93.601L97.2251 36.7824H99.0072V36.7824ZM98.1017 37.5108H98.0873L96.3639 40.5124H99.8251L98.1017 37.5108Z"
      fill="rgba(255,255,255,0.5)" />
    <path
      d="M24.9425 37.8655C25.4767 37.8655 25.9109 38.2897 25.9109 38.8116C25.9109 39.3335 25.4767 39.7577 24.9425 39.7577H20.8883V37.8655H24.9425ZM24.9425 36.8579H19.8569V40.7652H24.9425C26.0419 40.7652 26.9423 39.8867 26.9423 38.8116C26.9423 37.7375 26.0429 36.8579 24.9425 36.8579V36.8579Z"
      fill="rgba(255,255,255,0.5)" />
    <path
      d="M87.0189 37.7899C87.5531 37.7899 87.9873 38.2141 87.9873 38.736C87.9873 39.2579 87.5531 39.6821 87.0189 39.6821H82.9647V37.7899H87.0189ZM87.0189 36.7824H81.9333V40.6897H87.0189C88.1183 40.6897 89.0187 39.8111 89.0187 38.736C89.0187 37.662 88.1193 36.7824 87.0189 36.7824V36.7824Z"
      fill="rgba(255,255,255,0.5)" />
    <path
      d="M86.0321 40.6895L87.6245 42.9364C87.6245 42.9364 88.9054 43.0784 88.8673 42.9364C88.8291 42.7943 87.278 40.6724 87.278 40.6724L82.8679 40.6422V42.9374H81.9346V40.1968"
      fill="rgba(255,255,255,0.5)" />
  </g>
  <defs>
    <clipPath id="clip0_3070_2337">
      <rect width="98.75" height="10" fill="rgba(255,255,255,0.5)" transform="translate(4 35)" />
    </clipPath>
  </defs>
</svg>