<svg width="25" height="24" viewBox="0 0 25 24" fill="none" xmlns="http://www.w3.org/2000/svg">
<path d="M9.53317 15H6.43317C6.03317 15 5.73734 14.8208 5.54567 14.4625C5.35401 14.1042 5.37484 13.7583 5.60817 13.425L13.0832 2.675C13.2498 2.44167 13.4665 2.27917 13.7332 2.1875C13.9998 2.09583 14.2748 2.1 14.5582 2.2C14.8415 2.3 15.0498 2.475 15.1832 2.725C15.3165 2.975 15.3665 3.24167 15.3332 3.525L14.5332 10H18.4082C18.8415 10 19.1457 10.1917 19.3207 10.575C19.4957 10.9583 19.4415 11.3167 19.1582 11.65L10.9332 21.5C10.7498 21.7167 10.5248 21.8583 10.2582 21.925C9.99151 21.9917 9.73317 21.9667 9.48317 21.85C9.23317 21.7333 9.03734 21.5542 8.89567 21.3125C8.75401 21.0708 8.69984 20.8083 8.73317 20.525L9.53317 15Z" fill="white"/>
</svg>
