<svg width="119" height="80" viewBox="0 0 119 80" fill="none" xmlns="http://www.w3.org/2000/svg">
  <path
    d="M62.0126 35.446V44.5566C62.0126 44.7858 61.8267 44.9691 61.6001 44.9691H60.7674C60.5383 44.9691 60.3549 44.7832 60.3549 44.5566V35.446C60.3549 35.2168 60.5408 35.0335 60.7674 35.0335H61.6001C61.8292 35.0335 62.0126 35.2193 62.0126 35.446ZM35.4012 35.0335H34.5686C34.3394 35.0335 34.1561 35.2193 34.1561 35.446V44.5566C34.1561 44.7858 34.342 44.9691 34.5686 44.9691H35.4012C35.6304 44.9691 35.8137 44.7832 35.8137 44.5566V35.446C35.8137 35.2168 35.6278 35.0335 35.4012 35.0335ZM84.2086 35.0335H83.376C83.1468 35.0335 82.9635 35.2193 82.9635 35.446V44.5566C82.9635 44.7858 83.1494 44.9691 83.376 44.9691H84.2086C84.4378 44.9691 84.6211 44.7832 84.6211 44.5566V35.446C84.6211 35.2168 84.4352 35.0335 84.2086 35.0335ZM100.38 35.0335H98.9771C98.832 35.0335 98.7225 35.1073 98.6665 35.2346L96.7899 39.6652L95.3665 43.3115H95.2748L93.8896 39.739L91.957 35.255C91.9035 35.1098 91.7737 35.036 91.5751 35.036H90.2994C90.1364 35.036 90.0447 35.1633 90.116 35.3085L94.292 44.8061C94.3454 44.9156 94.4193 44.9691 94.5466 44.9691H96.0234C96.1508 44.9691 96.2424 44.9131 96.2959 44.7858L100.525 35.2906C100.581 35.1633 100.507 35.036 100.38 35.036V35.0335ZM26.0258 41.5342C26.9832 40.9078 27.5892 39.8383 27.5892 38.5906C27.5892 36.6045 26.0028 35.036 23.8334 35.036H19.4334C19.2042 35.036 19.0209 35.2219 19.0209 35.4485V44.5592C19.0209 44.7883 19.2068 44.9717 19.4334 44.9717H20.266C20.4952 44.9717 20.6785 44.7858 20.6785 44.5592V42.5781V40.2024V36.9992C20.6785 36.77 20.8644 36.5867 21.091 36.5867H23.8334C25.1651 36.5867 25.929 37.4448 25.929 38.5932C25.929 39.3214 25.6183 40.0064 24.6686 40.6226C23.5915 41.4629 24.2383 42.3872 24.4649 42.8098C24.8672 43.561 25.4554 44.717 25.4554 44.717C25.5292 44.8443 25.6565 44.9717 25.8195 44.9717H27.1512C27.3524 44.9717 27.444 44.8443 27.3524 44.6788L25.8984 42.0892C25.7915 41.8983 25.8424 41.6538 26.0258 41.5342ZM51.3614 35.0335C50.1137 35.0335 49.0443 35.6395 48.4179 36.5969C48.344 36.7089 48.2244 36.77 48.0996 36.7777C48.0945 36.7777 48.0894 36.7777 48.0843 36.7777C48.0792 36.7777 48.0741 36.7777 48.069 36.7777C47.9443 36.77 47.8246 36.7089 47.7508 36.5969C47.1244 35.6395 46.0549 35.0335 44.8072 35.0335C42.8211 35.0335 41.2526 36.6198 41.2526 38.7892V44.5566C41.2526 44.7858 41.4385 44.9691 41.6651 44.9691H42.3908C42.62 44.9691 42.8033 44.7832 42.8033 44.5566V41.5291L42.8008 38.7867C42.8008 37.455 43.6589 36.6911 44.8072 36.6911C45.5355 36.6911 46.2204 37.0017 46.8366 37.9515C47.2135 38.448 47.5343 38.5473 48.0792 38.5499C48.0792 38.5499 48.0843 38.5499 48.0869 38.5499C48.0894 38.5499 48.092 38.5499 48.0945 38.5499C48.6394 38.5499 48.9602 38.448 49.3371 37.9515C49.9533 37.0043 50.6383 36.6911 51.3665 36.6911C52.5149 36.6911 53.373 37.4575 53.373 38.7867V44.5541C53.3704 44.7832 53.5563 44.9666 53.7829 44.9666H54.5086C54.7378 44.9666 54.9211 44.7807 54.9211 44.5541V38.7892C54.9211 36.6198 53.3526 35.0335 51.3665 35.0335H51.3614ZM9.39844 35.0335H4.99844C4.76927 35.0335 4.58594 35.2193 4.58594 35.446V44.5566C4.58594 44.7858 4.77182 44.9691 4.99844 44.9691H5.83108C6.06024 44.9691 6.24358 44.7832 6.24358 44.5566V42.5756V40.1999V36.9967C6.24358 36.7675 6.42946 36.5842 6.65608 36.5842H9.39844C10.7302 36.5842 11.494 37.4423 11.494 38.5906C11.494 39.1203 11.3285 39.627 10.8753 40.1006L10.8524 40.1286C10.692 40.289 10.692 40.5513 10.8524 40.7117L11.3769 41.2541C11.5373 41.4145 11.7996 41.4145 11.96 41.2541L11.9855 41.2286C12.7112 40.5869 13.1517 39.6524 13.1517 38.5881C13.1517 36.602 11.5653 35.0335 9.39589 35.0335H9.39844ZM112.546 39.0261H110.061C109.832 39.0261 109.649 39.2119 109.649 39.4386V40.1439C109.649 40.373 109.835 40.5564 110.061 40.5564H113.96C114.189 40.5564 114.586 40.424 114.586 40.0089C114.586 36.8642 112.49 34.8858 109.59 34.8858C106.69 34.8858 104.431 37.0374 104.431 40.0089C104.431 42.9804 106.545 45.1142 109.682 45.1142C111.212 45.1142 112.615 44.6585 113.855 43.6196L113.883 43.5941C114.044 43.4337 114.044 43.1714 113.883 43.011L113.341 42.4865C113.18 42.3261 112.913 42.3261 112.753 42.4865L112.727 42.5068C111.757 43.258 110.848 43.5661 109.682 43.5661C107.943 43.5661 106.743 42.6545 106.3 41.3254C105.855 39.9936 106.272 38.6976 106.272 38.6976C106.71 37.3506 107.994 36.4365 109.59 36.4365C111.052 36.4365 112.254 37.3073 112.714 38.5321C112.9 39.0261 112.546 39.0261 112.546 39.0261ZM76.5315 35.0335H68.442C68.2128 35.0335 68.0295 35.2193 68.0295 35.446V36.1691C68.0295 36.3983 68.2153 36.5816 68.442 36.5816H76.5315C76.7607 36.5816 76.944 36.3957 76.944 36.1691V35.446C76.944 35.2168 76.7582 35.0335 76.5315 35.0335ZM76.5315 39.2247H68.442C68.2128 39.2247 68.0295 39.4105 68.0295 39.6372V40.3654C68.0295 40.5946 68.2153 40.7779 68.442 40.7779H71.2887C71.495 40.8008 71.6579 40.974 71.6579 41.1853V44.5566C71.6579 44.7858 71.8438 44.9691 72.0704 44.9691H72.9031C73.1322 44.9691 73.3156 44.7832 73.3156 44.5566V41.1853C73.3156 40.9714 73.4785 40.8008 73.6848 40.7779H76.5315C76.7607 40.7779 76.944 40.592 76.944 40.3654V39.6372C76.944 39.408 76.7582 39.2247 76.5315 39.2247Z"
    fill="rgba(255,255,255,0.5)" />
</svg>