<svg width="113" height="80" viewBox="0 0 113 80" fill="none" xmlns="http://www.w3.org/2000/svg">
  <g clip-path="url(#clip0_3070_2566)">
    <path
      d="M4.96094 53.1463V45.8901H9.00109L8.80888 45.1618C8.4119 43.7283 9.22596 42.237 10.628 41.8311C12.0299 41.4252 13.4885 42.2575 13.8855 43.691C14.0186 44.1714 14.0186 44.6801 13.8855 45.1618L13.6932 45.8901H17.7334V53.1463H4.96094V53.1463Z"
      fill="rgba(255,255,255,0.5)" />
    <path
      d="M31.001 35.5383C31.001 40.6763 26.7937 44.7096 21.4232 44.7096H18.9106V39.2376C19.177 39.3019 19.4483 39.334 19.7222 39.334C21.8038 39.334 23.491 37.6089 23.491 35.4805C23.491 33.352 21.8038 31.6269 19.7222 31.6269C19.4483 31.6269 19.177 31.6591 18.9106 31.7233V26.2526H21.4232C26.7937 26.2526 31.001 30.3309 31.001 35.5383Z"
      fill="rgba(255,255,255,0.5)" />
    <path
      d="M15.1091 44.7071C15.1153 44.6261 15.1178 44.5452 15.1178 44.4656C15.1178 42.3372 13.4307 40.6121 11.3491 40.6121C9.26742 40.6121 7.58025 42.3372 7.58025 44.4656C7.58025 44.5452 7.58025 44.6261 7.58905 44.7071H4.96094V26.25H17.7334V33.4908L18.5512 33.0733C18.9143 32.8832 19.315 32.783 19.7221 32.7791C21.1793 32.7791 22.3602 33.9866 22.3602 35.4766C22.3602 36.9666 21.1793 38.1741 19.7221 38.1741C19.315 38.1715 18.913 38.07 18.5512 37.8799L17.7334 37.4625V44.7032L15.1091 44.7071Z"
      fill="rgba(255,255,255,0.5)" />
    <path
      d="M40.1528 37.966V26.277H44.6653C45.5322 26.277 46.2708 26.4452 46.8814 26.7818C47.4718 27.0978 47.958 27.5846 48.2796 28.1806C48.61 28.8113 48.7771 29.5191 48.7633 30.2358C48.7771 30.9526 48.6075 31.6616 48.2721 32.291C47.9429 32.8858 47.448 33.3687 46.8512 33.6783C46.2306 34.0097 45.4819 34.1754 44.6038 34.1754H41.7282V32.1947H44.2131C44.6113 32.2101 45.007 32.1241 45.3651 31.9455C45.6565 31.7926 45.8952 31.5512 46.0472 31.2544C46.203 30.9385 46.2809 30.5891 46.2734 30.2358C46.2809 29.8826 46.203 29.5319 46.0472 29.2172C45.894 28.9231 45.654 28.6854 45.3626 28.5377C44.9995 28.363 44.6025 28.2795 44.2018 28.2949H42.5686V37.966H40.1528V37.966Z"
      fill="rgba(255,255,255,0.5)" />
    <path
      d="M55.792 34.2319V29.1967H58.1714V37.966H55.8875V36.3732H55.7983C55.6111 36.878 55.2745 37.3109 54.8348 37.6115C54.3498 37.9339 53.7795 38.097 53.2016 38.0803C52.6702 38.0919 52.1476 37.9531 51.6878 37.6808C51.2494 37.4098 50.8951 37.0154 50.669 36.544C50.4114 35.9943 50.2846 35.3893 50.2984 34.7804V29.1967H52.6715V34.3462C52.6715 34.86 52.8071 35.2698 53.0785 35.5742C53.3561 35.8787 53.7493 36.0431 54.1564 36.0251C54.4365 36.0264 54.7129 35.957 54.9604 35.8221C55.2142 35.6834 55.4239 35.4753 55.5659 35.2197C55.7292 34.9178 55.8071 34.5762 55.792 34.2319V34.2319Z"
      fill="rgba(255,255,255,0.5)" />
    <path
      d="M60.0205 37.966V36.5158L64.219 31.2005V31.1375H60.17V29.1967H67.087V30.7779L63.1461 35.9647V36.0277H67.2327V37.9686L60.0205 37.966Z"
      fill="rgba(255,255,255,0.5)" />
    <path
      d="M69.0142 37.966V36.5158L73.2113 31.2005V31.1375H69.1586V29.1967H76.0769V30.7779L72.1347 35.9647V36.0277H76.2264V37.9686L69.0142 37.966V37.966Z"
      fill="rgba(255,255,255,0.5)" />
    <path d="M80.4262 26.2744V37.9634H78.0481V26.2744H80.4262Z" fill="rgba(255,255,255,0.5)" />
    <path
      d="M86.2325 38.1368C85.3506 38.1368 84.5918 37.9531 83.9574 37.5858C83.328 37.2248 82.8179 36.6802 82.4913 36.0225C81.8079 34.5068 81.8079 32.7625 82.4913 31.2467C82.8154 30.5852 83.3192 30.0316 83.941 29.6539C84.6081 29.2609 85.3682 29.0631 86.1383 29.0823C86.6784 29.0772 87.2136 29.1723 87.7212 29.3598C88.2023 29.5396 88.6407 29.8235 89.0051 30.1909C89.387 30.5839 89.6797 31.0592 89.8618 31.5807C90.0792 32.2075 90.1834 32.8703 90.1709 33.5357V34.2037H82.9272V32.6969H87.9297C87.936 32.372 87.8593 32.0508 87.7073 31.7657C87.5616 31.4998 87.3493 31.2801 87.0905 31.1298C86.8116 30.9718 86.4963 30.8922 86.1772 30.8986C85.8405 30.8935 85.5101 30.9821 85.2199 31.1555C84.9486 31.3187 84.7237 31.5537 84.5692 31.835C84.4109 32.1241 84.328 32.449 84.3292 32.7804V34.2127C84.3192 34.6019 84.4008 34.9872 84.5667 35.3379C84.7149 35.6436 84.9486 35.8979 85.2388 36.0688C85.5541 36.246 85.9109 36.3347 86.2714 36.3257C86.5176 36.3282 86.7626 36.2897 86.9975 36.2114C87.2086 36.1407 87.4008 36.0238 87.5616 35.8684C87.7199 35.7117 87.843 35.5216 87.9196 35.3096L90.1194 35.4509C90.0151 35.975 89.7789 36.4618 89.4347 36.8639C89.0716 37.2801 88.6156 37.6012 88.1056 37.8003C87.5076 38.0341 86.8719 38.1484 86.2325 38.1368V38.1368Z"
      fill="rgba(255,255,255,0.5)" />
    <path
      d="M42.2193 41.8824L44.9831 50.7661H45.0887L47.8587 41.8824H50.5383L46.5962 53.5715H43.4806L39.5334 41.8824H42.2193V41.8824Z"
      fill="rgba(255,255,255,0.5)" />
    <path
      d="M54.7983 53.7462C53.9164 53.7462 53.1576 53.5625 52.5232 53.1951C51.8951 52.8354 51.385 52.2921 51.0584 51.6357C50.3738 50.1213 50.3738 48.3756 51.0584 46.8612C51.3825 46.1997 51.885 45.6461 52.5069 45.2684C53.174 44.8754 53.934 44.6775 54.7041 44.6968C55.2443 44.6917 55.7795 44.7867 56.287 44.9743C56.7682 45.1528 57.2066 45.4367 57.5709 45.8041C57.9528 46.1984 58.2455 46.6724 58.4277 47.1952C58.6438 47.8233 58.748 48.4848 58.7355 49.1502V49.8181H51.4931V48.3063H56.4955C56.5018 47.9813 56.4252 47.6602 56.2732 47.375C56.1287 47.1078 55.9151 46.8856 55.6564 46.7328C55.3775 46.5748 55.0621 46.4951 54.743 46.5015C54.4064 46.4951 54.076 46.5838 53.7858 46.7584C53.5132 46.9216 53.2895 47.1566 53.135 47.4379C52.9767 47.727 52.8938 48.0519 52.8951 48.3833V49.8156C52.885 50.2048 52.9667 50.5901 53.1325 50.9408C53.282 51.2465 53.5157 51.5008 53.8046 51.6717C54.1212 51.8489 54.478 51.9376 54.8385 51.9286C55.0848 51.9312 55.3297 51.8926 55.5634 51.8143C55.7744 51.7436 55.9667 51.6267 56.1275 51.4713C56.287 51.3159 56.4089 51.1245 56.4855 50.9125L58.6852 51.0603C58.5809 51.5843 58.3448 52.0712 58.0005 52.4732C57.6375 52.8894 57.1815 53.2105 56.6727 53.4096C56.0747 53.6434 55.4378 53.7577 54.7983 53.7462Z"
      fill="rgba(255,255,255,0.5)" />
    <path
      d="M62.6662 48.5054V53.5753H60.2869V44.806H62.5481V46.3474H62.6486C62.8296 45.8477 63.165 45.4225 63.6034 45.1348C64.0896 44.824 64.6549 44.6673 65.2278 44.6865C65.773 44.6737 66.3107 44.8111 66.7855 45.086C67.2315 45.3545 67.5895 45.7514 67.8182 46.2254C68.077 46.7738 68.2026 47.3776 68.1875 47.9864V53.5753H65.8144V48.4244C65.8144 47.8875 65.68 47.4675 65.4124 47.1656C65.1448 46.8638 64.7705 46.7122 64.2918 46.7122C63.9966 46.7058 63.7052 46.779 63.4464 46.9241C63.2014 47.0667 63.0029 47.2799 62.876 47.5381C62.7328 47.8387 62.6612 48.1701 62.6662 48.5054Z"
      fill="rgba(255,255,255,0.5)" />
    <path
      d="M74.6259 44.806V46.6325H69.4614V44.806H74.6259ZM70.6335 42.7045H73.0116V50.8804C73.0028 51.0602 73.0368 51.2401 73.1121 51.4032C73.1737 51.5201 73.2742 51.6113 73.3948 51.6601C73.5292 51.7115 73.6724 51.7372 73.8156 51.7346C73.9287 51.7346 74.0405 51.723 74.1511 51.7025L74.4023 51.6537L74.7792 53.4636C74.6536 53.5021 74.4928 53.547 74.2767 53.5984C74.0179 53.6549 73.7541 53.6858 73.489 53.6922C72.9765 53.7256 72.4614 53.646 71.9815 53.4584C71.5694 53.2953 71.2177 53.0037 70.9765 52.6248C70.724 52.1945 70.6021 51.6986 70.6247 51.1977L70.6335 42.7045Z"
      fill="rgba(255,255,255,0.5)" />
    <path
      d="M81.6723 49.8374V44.8021H84.0504V53.5753H81.7666V51.9825H81.6774C81.4902 52.4873 81.1535 52.9202 80.7138 53.2208C80.2289 53.5432 79.6585 53.7063 79.0807 53.6896C78.5518 53.6999 78.0304 53.5612 77.5731 53.2889C77.1334 53.0178 76.7804 52.6235 76.5543 52.1534C76.298 51.6036 76.1711 50.9986 76.1837 50.3897V44.806H78.5505V49.9556C78.5505 50.4694 78.6862 50.8791 78.9588 51.1836C79.2352 51.488 79.6296 51.6537 80.0354 51.6344C80.3156 51.6357 80.5919 51.5663 80.8394 51.4315C81.0932 51.2927 81.303 51.0846 81.445 50.829C81.6083 50.5259 81.6874 50.1829 81.6723 49.8374V49.8374Z"
      fill="rgba(255,255,255,0.5)" />
    <path
      d="M85.9487 53.5753V44.806H88.254V46.3358H88.3444C88.465 45.8464 88.7414 45.411 89.1309 45.1001C89.4989 44.8201 89.9462 44.6724 90.4047 44.6801C90.5329 44.6801 90.661 44.6878 90.7891 44.7032C90.911 44.7161 91.0328 44.7366 91.1522 44.7662V46.9241C91.0002 46.8817 90.8457 46.8509 90.6886 46.8329C90.509 46.8072 90.3281 46.7944 90.1472 46.7931C89.8218 46.7867 89.4989 46.8663 89.2125 47.0243C88.9424 47.1733 88.7188 47.3955 88.5643 47.6666C88.4022 47.9543 88.3206 48.2819 88.3268 48.6133V53.5753H85.9487Z"
      fill="rgba(255,255,255,0.5)" />
    <path
      d="M95.8806 53.7462C94.9987 53.7462 94.2399 53.5625 93.6055 53.1951C92.9774 52.8354 92.4673 52.2921 92.1407 51.6357C91.456 50.1213 91.456 48.3756 92.1407 46.8612C92.4648 46.1997 92.9673 45.6461 93.5892 45.2684C94.2562 44.8754 95.0163 44.6775 95.7864 44.6968C96.3266 44.6917 96.8617 44.7867 97.3693 44.9743C97.8504 45.1528 98.2889 45.4367 98.6532 45.8041C99.0351 46.1984 99.3278 46.6724 99.51 47.1952C99.726 47.8233 99.8303 48.4848 99.8177 49.1502V49.8181H92.5754V48.3063H97.5828C97.5891 47.9813 97.5112 47.6602 97.3592 47.375C97.2148 47.1078 97.0012 46.8856 96.7424 46.7328C96.4635 46.5748 96.1482 46.4938 95.8291 46.5015C95.4924 46.4951 95.162 46.585 94.8718 46.7584C94.5992 46.9216 94.3756 47.1566 94.2211 47.4379C94.064 47.727 93.9811 48.0519 93.9811 48.3833V49.8156C93.9711 50.2048 94.0527 50.5901 94.2186 50.9408C94.3681 51.2465 94.6017 51.5008 94.8907 51.6717C95.2072 51.8489 95.564 51.9376 95.9246 51.9286C96.1708 51.9312 96.4158 51.8926 96.6494 51.8143C96.8605 51.7436 97.0527 51.6267 97.2135 51.4713C97.373 51.3159 97.4949 51.1245 97.5715 50.9125L99.7713 51.0603C99.667 51.5843 99.4308 52.0712 99.0866 52.4732C98.7235 52.8894 98.2675 53.2105 97.7587 53.4096C97.1595 53.6434 96.5225 53.7577 95.8806 53.7462V53.7462Z"
      fill="rgba(255,255,255,0.5)" />
    <path
      d="M108.505 47.3069L106.328 47.4431C106.29 47.2543 106.209 47.0783 106.088 46.9293C105.957 46.7687 105.791 46.6428 105.606 46.5581C105.381 46.4604 105.138 46.4116 104.893 46.418C104.567 46.4078 104.244 46.49 103.961 46.6557C103.731 46.7777 103.585 47.0205 103.584 47.2864C103.584 47.4932 103.677 47.6884 103.835 47.8169C103.999 47.962 104.28 48.0776 104.678 48.165L106.231 48.4848C107.064 48.6608 107.685 48.9434 108.095 49.33C108.507 49.7244 108.732 50.2831 108.71 50.8599C108.719 51.4071 108.545 51.9414 108.216 52.373C107.861 52.8264 107.394 53.1758 106.864 53.3865C106.236 53.6383 105.565 53.7616 104.891 53.7487C103.755 53.7487 102.852 53.506 102.18 53.0204C101.525 52.5644 101.094 51.8412 100.999 51.0371L103.338 50.9087C103.393 51.2388 103.579 51.5304 103.852 51.7166C104.489 52.0763 105.259 52.0866 105.905 51.7449C106.137 51.6177 106.285 51.3724 106.293 51.1026C106.291 50.8868 106.19 50.6852 106.019 50.558C105.77 50.3872 105.489 50.2741 105.192 50.2292L103.707 49.9273C102.869 49.7565 102.248 49.4585 101.839 49.0359C101.428 48.6056 101.207 48.0224 101.227 47.4212C101.215 46.8985 101.373 46.3859 101.677 45.9646C102.005 45.5356 102.445 45.2106 102.945 45.0231C103.558 44.7906 104.209 44.6775 104.863 44.6917C105.946 44.6917 106.799 44.9254 107.423 45.3943C108.033 45.8464 108.426 46.5414 108.505 47.3069V47.3069Z"
      fill="rgba(255,255,255,0.5)" />
  </g>
  <defs>
    <clipPath id="clip0_3070_2566">
      <rect width="103.75" height="27.5" fill="rgba(255,255,255,0.5)"
        transform="translate(4.96094 26.25)" />
    </clipPath>
  </defs>
</svg>