<svg width="127" height="80" viewBox="0 0 127 80" fill="none" xmlns="http://www.w3.org/2000/svg">
  <g clip-path="url(#clip0_3070_2427)">
    <path fill-rule="evenodd" clip-rule="evenodd"
      d="M44.7247 43.8087L43.2688 41.2717H41.1408V43.8087H39.8867V36.1848H43.6639C44.1234 36.1805 44.5787 36.3077 44.9738 36.5448C45.3689 36.784 45.691 37.1225 45.91 37.5341C46.1269 37.9458 46.2235 38.4071 46.1977 38.8684C46.172 39.3296 46.0217 39.7823 45.7575 40.1617C45.4848 40.5669 45.1005 40.8816 44.6495 41.0713L46.1977 43.8065H44.7268L44.7247 43.8087ZM43.6574 37.4781H41.1386V40.0108H43.6617C43.8292 40.0108 43.9903 39.9763 44.1427 39.9095C44.2952 39.8426 44.4305 39.7478 44.5421 39.6249C44.7139 39.4482 44.8363 39.224 44.8814 38.9761C44.9265 38.7326 44.9008 38.4782 44.8106 38.2454C44.7139 38.017 44.5572 37.8187 44.351 37.6764C44.1427 37.5341 43.9065 37.4587 43.6574 37.4587V37.4781V37.4781ZM57.089 36.1848L53.3011 43.8087H54.7076L57.0847 39.0322L59.4554 43.8087H60.8619L57.089 36.1848V36.1848ZM73.0287 36.1848H71.4268L69.273 38.9977L67.13 36.1848H65.5216L68.6761 40.25V43.8087H69.9301V40.1897L73.0309 36.1848H73.0287ZM79.4557 36.1848H81.9681C82.9687 36.1891 83.9243 36.5965 84.6286 37.3121C85.3373 38.0234 85.7367 38.9912 85.7409 39.9978C85.7367 41.0087 85.3373 41.9722 84.6286 42.6878C83.92 43.4035 82.9644 43.8044 81.9638 43.8087H79.4514V36.1848H79.4557V36.1848ZM81.9681 42.5154C82.6359 42.5154 83.2737 42.246 83.7439 41.7696C84.2142 41.2933 84.4826 40.6488 84.4826 39.9784C84.4719 39.3081 84.2099 38.6636 83.7396 38.1916C83.2694 37.7195 82.6316 37.4458 81.9702 37.4393H80.7011V42.5154H81.9702H81.9681ZM94.1285 36.1848H92.8744V43.8087H94.1285V36.1848ZM107.549 40.6272C107.554 41.0475 107.478 41.4657 107.317 41.8515C107.161 42.2374 106.922 42.5865 106.62 42.8775C106.179 43.3237 105.619 43.6233 105.007 43.7462C104.395 43.869 103.764 43.8065 103.186 43.563C102.61 43.3237 102.119 42.9142 101.775 42.3904C101.432 41.8666 101.249 41.2545 101.249 40.6251V36.1891H102.503V40.6251C102.503 41.1316 102.701 41.6144 103.059 41.9701C103.414 42.3257 103.895 42.5283 104.395 42.5283C104.895 42.5283 105.376 42.3257 105.731 41.9701C106.085 41.6144 106.282 41.1273 106.282 40.6251V36.1891H107.547V40.6315H107.551L107.549 40.6272ZM115.928 43.8108V39.252L118.456 41.7955L120.974 39.252V43.8108H122.248V36.1848L118.456 39.9978L114.678 36.1848V43.8087H115.928V43.8108Z"
      fill="rgba(255,255,255,0.5)" />
    <path
      d="M30.5673 35.9477V47.2811L18.072 54.5601L5.57016 47.2811V32.7232L18.0762 25.4356L27.6791 31.0333L29.1307 30.1905L18.0762 23.75L4.125 31.8761V48.1239L18.0762 56.25L32.0275 48.1239V35.105L30.5652 35.9477H30.5673Z"
      fill="rgba(255,255,255,0.5)" />
    <path
      d="M14.5783 47.2919H12.4889V40.2155H19.457C20.1141 40.2112 20.7454 39.9418 21.2114 39.4633C21.6773 38.9912 21.935 38.3511 21.9393 37.6872C21.9436 37.3574 21.8792 37.0319 21.7525 36.728C21.6258 36.4241 21.439 36.1503 21.2071 35.9219C20.9795 35.6891 20.7068 35.5015 20.4083 35.3744C20.1098 35.2472 19.7855 35.1825 19.457 35.1869H12.4889V33.0357H19.4613C20.681 33.04 21.8534 33.5379 22.7124 34.4066C23.5777 35.2795 24.063 36.4564 24.0716 37.6915C24.0759 38.6356 23.7925 39.5538 23.2578 40.3255C22.7618 41.0605 22.0639 41.6403 21.25 41.9852C20.4405 42.2438 19.6009 42.371 18.757 42.3667H14.5761V47.2962L14.5783 47.2919Z"
      fill="rgba(255,255,255,0.5)" />
    <path
      d="M24.0222 47.1152H21.5849L19.7039 43.8065C20.4468 43.7613 21.1812 43.6082 21.8834 43.3539L24.0222 47.1152V47.1152Z"
      fill="rgba(255,255,255,0.5)" />
    <path
      d="M29.1093 33.5918L30.5501 34.398L31.991 33.5918V31.8804L30.5501 31.0376L29.1093 31.8804V33.5918Z"
      fill="rgba(255,255,255,0.5)" />
  </g>
  <defs>
    <clipPath id="clip0_3070_2427">
      <rect width="118.125" height="32.5" fill="rgba(255,255,255,0.5)"
        transform="translate(4.125 23.75)" />
    </clipPath>
  </defs>
</svg>