<svg width="25" height="24" viewBox="0 0 25 24" fill="none" xmlns="http://www.w3.org/2000/svg">
<path d="M13.0332 20.4C14.6499 19.9 15.9999 18.9125 17.0832 17.4375C18.1665 15.9625 18.7999 14.3167 18.9832 12.5H13.0332V4.62499L7.0332 6.87499V12.05C7.0332 12.1667 7.04987 12.3167 7.0832 12.5H13.0332V20.4ZM13.0332 22.4C12.9165 22.4 12.8082 22.3917 12.7082 22.375C12.6082 22.3583 12.5082 22.3333 12.4082 22.3C10.1582 21.55 8.36654 20.1625 7.0332 18.1375C5.69987 16.1125 5.0332 13.9333 5.0332 11.6V6.87499C5.0332 6.45833 5.15404 6.08333 5.3957 5.74999C5.63737 5.41666 5.94987 5.17499 6.3332 5.02499L12.3332 2.77499C12.5665 2.69166 12.7999 2.64999 13.0332 2.64999C13.2665 2.64999 13.4999 2.69166 13.7332 2.77499L19.7332 5.02499C20.1165 5.17499 20.429 5.41666 20.6707 5.74999C20.9124 6.08333 21.0332 6.45833 21.0332 6.87499V11.6C21.0332 13.9333 20.3665 16.1125 19.0332 18.1375C17.6999 20.1625 15.9082 21.55 13.6582 22.3C13.5582 22.3333 13.4582 22.3583 13.3582 22.375C13.2582 22.3917 13.1499 22.4 13.0332 22.4Z" fill="white"/>
</svg>
