<svg width="125" height="80" viewBox="0 0 125 80" fill="none" xmlns="http://www.w3.org/2000/svg">
  <g clip-path="url(#clip0_3070_2369)">
    <path
      d="M26.5961 37.4558C26.4897 37.4748 26.4308 37.4952 26.3718 37.4952C25.1667 37.499 23.9602 37.5295 22.7551 37.4952C21.6615 37.4634 20.5513 36.5265 20.3641 35.4486C20.2025 34.5206 20.1551 33.5876 20.2538 32.652C20.3064 32.1436 20.3269 31.6199 20.4756 31.1368C20.7436 30.2724 21.4141 29.7678 22.2679 29.5186C22.9205 29.328 23.6038 29.3241 24.2449 29.5339C25.0949 29.8135 25.7141 30.3805 26.0077 31.2461C26.2884 32.0737 26.182 32.9317 26.2025 33.7808C26.2205 34.5092 26.191 35.2274 25.9295 35.924C25.8795 36.0562 25.9359 36.2571 26.0038 36.3969C26.1769 36.7503 26.3846 37.0858 26.5949 37.457L26.5961 37.4558ZM24.6884 33.43L24.6436 33.4262C24.6436 33.0461 24.6615 32.6648 24.6372 32.2859C24.6205 32.0292 24.5897 31.7546 24.482 31.5258C24.2128 30.9563 23.7474 30.7046 23.0923 30.7529C22.5449 30.7936 22.0231 31.0809 21.9384 31.6059C21.8179 32.347 21.791 33.1046 21.7551 33.8571C21.7384 34.1914 21.7859 34.5308 21.8243 34.8651C21.8859 35.4016 22.0692 35.8808 22.641 36.0638C22.8846 36.1414 23.1577 36.1465 23.4179 36.149C23.9641 36.1541 24.5025 35.6583 24.55 35.1219C24.6 34.5575 24.6423 33.9931 24.6884 33.4274V33.43Z"
      fill="rgba(255,255,255,0.5)" />
    <path
      d="M42.9321 33.463C42.9321 33.8749 42.941 34.2868 42.9321 34.6986C42.8974 36.1579 42.1026 37.1736 40.6923 37.471C39.6269 37.696 38.5987 37.4875 37.7808 36.6791C37.2718 36.1757 37.0397 35.5388 37.0115 34.8499C36.9744 33.9639 36.9744 33.0753 37.0077 32.1893C37.0551 30.9398 37.7269 29.8212 39.1449 29.5034C40.3026 29.2441 41.3577 29.4118 42.2128 30.3042C42.6859 30.7987 42.8795 31.4127 42.9269 32.0686C42.9603 32.5313 42.9333 32.9978 42.9333 33.4618L42.9321 33.463ZM41.4808 33.7084C41.4372 32.9914 41.4487 32.4677 41.359 31.9631C41.3051 31.6618 41.1474 31.3364 40.9372 31.1127C40.4821 30.6283 39.8667 30.6423 39.3167 30.8839C38.7962 31.1114 38.5692 31.6135 38.5615 32.1766C38.5487 33.0321 38.5321 33.8889 38.5667 34.7431C38.5872 35.2376 38.7295 35.7054 39.2128 35.999C39.5295 36.1922 39.8628 36.1566 40.1987 36.1541C40.709 36.149 41.1936 35.76 41.2756 35.2566C41.3705 34.6795 41.4308 34.0961 41.4808 33.7096V33.7084Z"
      fill="rgba(255,255,255,0.5)" />
    <path
      d="M12.7782 37.4952C12.7782 37.3286 12.7782 37.2142 12.7782 37.0998C12.7782 34.6694 12.7833 32.2389 12.7717 29.8072C12.7705 29.4996 12.8615 29.4169 13.1666 29.4207C14.6717 29.4347 16.1769 29.4258 17.6833 29.4258C18.0935 29.4258 18.1038 29.4385 18.1064 29.8606C18.1064 30.0614 18.1064 30.2623 18.1179 30.4631C18.1333 30.7034 18.0525 30.7923 17.7871 30.7872C16.7423 30.7695 15.6961 30.7872 14.6499 30.7758C14.4307 30.7733 14.3282 30.8394 14.3294 31.0567C14.332 31.5423 14.3346 32.0292 14.3294 32.5148C14.3282 32.7575 14.4807 32.7804 14.6705 32.7779C15.5128 32.769 16.3564 32.7728 17.1987 32.7512C17.4705 32.7436 17.5666 32.8313 17.5448 33.0944C17.5282 33.3041 17.5282 33.5177 17.5448 33.7274C17.5679 34.0262 17.4576 34.1418 17.1435 34.1355C16.3435 34.119 15.5423 34.1291 14.741 34.1291C14.6243 34.1291 14.5076 34.1291 14.3294 34.1291C14.3294 34.5016 14.323 34.855 14.332 35.2083C14.3397 35.5109 14.2576 35.9088 14.4179 36.0867C14.5538 36.2393 14.9769 36.149 15.2743 36.1503C16.1179 36.1554 16.9615 36.1592 17.8051 36.1477C18.0384 36.1439 18.1371 36.2113 18.1217 36.4515C18.1064 36.7045 18.1461 36.9625 18.1089 37.2104C18.0935 37.3159 17.9435 37.4825 17.8538 37.4825C16.1794 37.499 14.5051 37.4939 12.7782 37.4939V37.4952Z"
      fill="rgba(255,255,255,0.5)" />
    <path
      d="M30.191 32.2605C30.191 33.0842 30.1845 33.9079 30.1948 34.7329C30.1999 35.1194 30.3397 35.4575 30.591 35.7664C31.1076 36.3994 32.6063 36.3499 32.964 35.3812C33.0499 35.1499 33.0999 34.8931 33.1025 34.6478C33.1153 33.0321 33.1166 31.4152 33.1025 29.7996C33.0999 29.5046 33.1948 29.4068 33.482 29.4246C33.7794 29.4424 34.0794 29.4322 34.3781 29.4335C34.5756 29.4335 34.664 29.5288 34.664 29.7284C34.6615 31.4292 34.7243 33.1325 34.6422 34.8295C34.5769 36.1681 33.9192 37.1354 32.3628 37.4761C31.3063 37.7075 30.2679 37.5117 29.4551 36.7032C29.0615 36.3117 28.7551 35.8439 28.7371 35.2744C28.6897 33.6957 28.6692 32.1143 28.641 30.5343C28.6358 30.2597 28.6192 29.9826 28.6499 29.7118C28.6615 29.6127 28.7922 29.4525 28.8769 29.4474C29.2589 29.4233 29.6448 29.4322 30.0269 29.4614C30.0884 29.4665 30.1833 29.6343 30.1845 29.7271C30.1974 30.5724 30.1922 31.4177 30.1922 32.2618L30.191 32.2605Z"
      fill="rgba(255,255,255,0.5)" />
    <path
      d="M55.9742 37.4812H54.4473C54.3025 37.0566 54.1678 36.6397 54.0127 36.2304C53.9845 36.1566 53.8717 36.0664 53.7973 36.0651C52.9332 36.0537 52.0678 36.0499 51.2037 36.0677C51.1076 36.0702 50.9704 36.2011 50.9281 36.3028C50.7973 36.6206 50.7178 36.9587 50.5883 37.2765C50.5499 37.3706 50.4178 37.4825 50.323 37.4875C49.8884 37.5104 49.4512 37.4977 48.9589 37.4977C49.0025 37.3096 49.0217 37.1507 49.0755 37.0045C49.5294 35.7727 49.9922 34.5435 50.4486 33.3118C50.8935 32.108 51.3422 30.9055 51.7691 29.6953C51.8409 29.4919 51.9435 29.4258 52.1332 29.4271C52.2294 29.4271 52.3255 29.4271 52.4217 29.4271C53.2268 29.436 53.0563 29.3597 53.3114 30.0398C54.1948 32.4016 55.0576 34.7711 55.9255 37.1392C55.9601 37.2333 55.955 37.3401 55.9742 37.4812ZM53.5191 34.6859C53.1973 33.7389 52.8858 32.8198 52.5742 31.8995L52.4794 31.9046C52.4217 32.0444 52.355 32.1804 52.3063 32.3241C52.0563 33.0652 51.8166 33.8088 51.5627 34.5473C51.5025 34.7228 51.5589 34.7876 51.7242 34.7876C52.2242 34.7901 52.7242 34.794 53.2242 34.7838C53.3204 34.7825 53.4166 34.7215 53.5191 34.6859V34.6859Z"
      fill="rgba(255,255,255,0.5)" />
    <path
      d="M102.203 37.4914C101.676 37.4914 101.221 37.5015 100.767 37.4825C100.681 37.4786 100.559 37.3693 100.523 37.2816C100.403 36.9816 100.309 36.6715 100.213 36.3626C100.147 36.1503 100.044 36.0435 99.7859 36.0499C99.0282 36.0702 98.2693 36.0804 97.5141 36.0473C97.1936 36.0333 97.0885 36.1744 97.0129 36.4261C96.9257 36.7134 96.8321 37.0007 96.7206 37.2803C96.6872 37.3642 96.5898 37.4799 96.5167 37.4825C96.0513 37.5003 95.5847 37.4914 95.0629 37.4914C95.209 37.0668 95.3295 36.6956 95.4654 36.3282C96.0411 34.766 96.6231 33.2063 97.2 31.644C97.4347 31.0084 97.6667 30.3716 97.8936 29.7322C97.9693 29.5199 98.0821 29.4106 98.3347 29.4195C99.3513 29.4525 99.1398 29.2568 99.5218 30.2648C100.037 31.63 100.517 33.008 101.022 34.377C101.396 35.3914 101.787 36.3994 102.201 37.4901L102.203 37.4914ZM97.6065 34.705C97.7282 34.7418 97.8167 34.7914 97.9065 34.7914C98.4065 34.7965 98.9065 34.7952 99.4077 34.7851C99.5988 34.7812 99.6641 34.6897 99.5949 34.4927C99.3257 33.7274 99.0706 32.9571 98.8077 32.1893C98.7718 32.0864 98.7218 31.9885 98.6783 31.8881L98.5975 31.9021C98.2718 32.8236 97.9475 33.7452 97.6077 34.7062L97.6065 34.705Z"
      fill="rgba(255,255,255,0.5)" />
    <path
      d="M75.3077 37.499C74.8308 37.499 74.3949 37.5066 73.959 37.4914C73.8808 37.4888 73.768 37.4037 73.7372 37.3312C73.6039 37.0032 73.477 36.6702 73.3821 36.3283C73.3308 36.1439 73.2565 36.055 73.0629 36.055C72.2308 36.0575 71.3988 36.0473 70.5667 36.0664C70.4603 36.0689 70.3103 36.1961 70.2629 36.3003C70.1129 36.6333 70.009 36.9855 69.8719 37.3249C69.8436 37.3948 69.7539 37.485 69.6898 37.4863C69.2449 37.5003 68.7988 37.4939 68.259 37.4939C68.3757 37.1443 68.4693 36.8444 68.5757 36.5494C69.0719 35.1677 69.5667 33.7859 70.0731 32.408C70.4103 31.4928 70.759 30.5813 71.1219 29.675C71.1629 29.5733 71.3193 29.4996 71.4398 29.4526C71.5321 29.417 71.6501 29.4449 71.7565 29.4424C72.4039 29.4309 72.5218 29.572 72.7013 30.2025C72.8924 30.8724 73.1667 31.5195 73.409 32.1741C74.036 33.8724 74.6642 35.5706 75.2898 37.2689C75.3103 37.3236 75.2988 37.3897 75.3052 37.4926L75.3077 37.499ZM71.8949 31.925L71.7834 31.9084C71.7129 32.1055 71.6411 32.3038 71.5706 32.5008C71.3347 33.158 71.0937 33.8139 70.8654 34.4736C70.7949 34.677 70.8321 34.8169 71.1103 34.808C71.5783 34.7927 72.0488 34.808 72.518 34.8029C72.8039 34.8003 72.8616 34.7164 72.7731 34.4571C72.7501 34.3885 72.7193 34.3211 72.6962 34.2525C72.4295 33.477 72.1629 32.7016 71.8962 31.925H71.8949Z"
      fill="rgba(255,255,255,0.5)" />
    <path
      d="M77.1692 33.4326C77.1692 32.2288 77.1781 31.0237 77.1627 29.8199C77.1589 29.525 77.2307 29.4131 77.5512 29.4208C78.4691 29.4411 79.3884 29.4004 80.3038 29.436C81.3281 29.4754 82.2217 29.8021 82.7076 30.7936C83.0794 31.5525 83.0909 32.3177 82.7012 33.0792C82.2179 34.0236 81.3999 34.4037 80.373 34.4215C79.9243 34.4291 79.4768 34.4317 79.0281 34.419C78.7935 34.4126 78.7115 34.4889 78.7153 34.7279C78.7281 35.5198 78.7115 36.313 78.7204 37.1049C78.7243 37.4011 78.6204 37.5333 78.3063 37.5041C78.0743 37.4812 77.8371 37.5003 77.6025 37.499C77.1692 37.499 77.1679 37.499 77.1679 37.0795C77.1679 35.8643 77.1679 34.6491 77.1679 33.4351L77.1692 33.4326ZM78.7256 33.0728C79.2717 33.0728 79.7717 33.0754 80.2717 33.0728C80.8474 33.0703 81.2563 32.7652 81.4217 32.2224C81.5704 31.7343 81.2204 30.9741 80.7256 30.8902C80.1435 30.7911 79.5422 30.8025 78.9486 30.7885C78.8756 30.7873 78.7384 30.9258 78.7358 31.0021C78.7191 31.6758 78.7256 32.3495 78.7256 33.0741V33.0728Z"
      fill="rgba(255,255,255,0.5)" />
    <path
      d="M10.1768 30.2521C9.84991 30.5839 9.61145 30.8343 9.36273 31.0733C9.23453 31.1966 9.12171 31.18 8.94863 31.0796C8.68453 30.9271 8.37427 30.8483 8.07684 30.7644C7.66017 30.6487 7.25248 30.6983 6.83966 30.8368C6.52299 30.9423 6.22299 31.2983 6.23581 31.7393C6.24735 32.1537 6.45761 32.4753 6.8653 32.5809C7.2294 32.6749 7.60504 32.7436 7.98068 32.7779C8.54863 32.8287 9.0794 32.9647 9.56017 33.2762C10.0525 33.5952 10.2756 34.0897 10.3332 34.6249C10.3897 35.1486 10.3871 35.6749 10.1127 36.191C9.8294 36.7248 9.41401 37.0986 8.88325 37.2689C7.51273 37.7062 6.15632 37.6782 4.88325 36.9041C4.83837 36.8761 4.79222 36.8481 4.75119 36.8151C4.42555 36.5583 4.42043 36.5049 4.71401 36.2037C4.90632 36.0066 5.07684 35.7613 5.31017 35.6367C5.61273 35.4753 5.76402 35.8566 6.01273 35.9469C6.7435 36.2113 7.48453 36.2621 8.22171 36.0524C8.72812 35.9088 8.90504 35.5109 8.87043 35.0889C8.82812 34.5855 8.55504 34.3236 8.00889 34.2105C7.24222 34.0516 6.43581 34.0757 5.71402 33.6741C4.94863 33.2444 4.5435 32.1283 4.77555 31.4292C4.88837 31.0898 4.99094 30.7339 5.18068 30.4364C5.63325 29.7347 6.34863 29.464 7.15632 29.4195C7.80119 29.3839 8.46017 29.3534 9.06786 29.6191C9.44735 29.7843 9.79094 30.0284 10.1781 30.2521H10.1768Z"
      fill="rgba(255,255,255,0.5)" />
    <path
      d="M66.9372 31.9021C66.4526 31.9021 65.9795 31.9148 65.509 31.8881C65.4346 31.8843 65.3475 31.7101 65.3039 31.6008C64.8936 30.5508 63.4013 30.4733 62.8744 31.3008C62.718 31.5462 62.6052 31.8589 62.5936 32.1449C62.5577 33.0309 62.568 33.9194 62.5846 34.8067C62.5975 35.5236 63.168 36.1948 63.9462 36.1757C64.627 36.1579 65.0782 35.9228 65.3231 35.2859C65.3577 35.1944 65.5231 35.1041 65.6346 35.0965C66.0064 35.0685 66.3808 35.0711 66.7539 35.0813C66.8103 35.0825 66.9193 35.2033 66.9103 35.249C66.7064 36.2266 66.1744 36.9702 65.2154 37.3249C63.7975 37.8486 62.1936 37.4888 61.3821 36.1274C61.1577 35.7512 61.0654 35.2579 61.0411 34.8118C60.9898 33.9054 61.018 32.9953 61.0282 32.0864C61.0423 30.8546 61.9295 29.778 63.1487 29.5072C64.3052 29.2517 65.3603 29.4119 66.2257 30.2852C66.5462 30.608 66.777 31.1381 66.9398 31.9008L66.9372 31.9021Z"
      fill="rgba(255,255,255,0.5)" />
    <path
      d="M90.8859 30.7644H88.7487C88.7487 30.3678 88.7257 30.0004 88.7654 29.6394C88.7744 29.5568 88.9962 29.4398 89.1218 29.436C89.8256 29.4169 90.5308 29.4271 91.2359 29.4271C92.4 29.4271 93.5628 29.4271 94.7269 29.4246C94.9757 29.4246 95.1346 29.4525 94.9872 29.7627C94.8667 30.0169 94.7705 30.2864 94.7039 30.5585C94.6564 30.7529 94.5474 30.7758 94.3846 30.7745C93.8718 30.7707 93.359 30.786 92.8474 30.7669C92.5397 30.7555 92.4359 30.8635 92.4372 31.1686C92.4462 33.1338 92.4423 35.1003 92.4423 37.0655C92.4423 37.1901 92.4423 37.3147 92.4423 37.4926C91.9654 37.4926 91.5218 37.5066 91.0808 37.4787C91.0103 37.4748 90.9 37.2892 90.8962 37.1837C90.8757 36.7096 90.8872 36.2329 90.8872 35.7575C90.8872 34.2359 90.8872 32.7131 90.8872 31.1915C90.8872 31.0669 90.8872 30.9411 90.8872 30.7644H90.8859Z"
      fill="rgba(255,255,255,0.5)" />
    <path
      d="M109.36 36.1528C109.36 36.5532 109.365 36.9003 109.359 37.2473C109.355 37.4863 109.179 37.4952 108.997 37.4952C107.973 37.4952 106.947 37.4964 105.923 37.4977C105.432 37.4977 104.941 37.4875 104.45 37.5015C104.206 37.5079 104.108 37.4405 104.109 37.1825C104.117 34.71 104.115 32.2364 104.109 29.764C104.109 29.5161 104.202 29.4169 104.446 29.4233C104.723 29.4309 105.001 29.436 105.278 29.4258C105.563 29.4157 105.672 29.5224 105.67 29.8161C105.659 31.7927 105.664 33.7681 105.663 35.7448C105.663 36.1541 105.661 36.1541 106.081 36.1541C107.041 36.1541 108.002 36.1541 108.963 36.1541C109.079 36.1541 109.195 36.1541 109.36 36.1541V36.1528Z"
      fill="rgba(255,255,255,0.5)" />
    <path
      d="M85.0474 33.4732C85.0474 32.258 85.0551 31.0428 85.0422 29.8275C85.0384 29.525 85.1294 29.3992 85.4435 29.4246C85.7089 29.4462 85.9768 29.4411 86.2435 29.4271C86.5089 29.4131 86.6076 29.525 86.6038 29.7805C86.5961 30.4148 86.6012 31.0478 86.6012 31.6822C86.6012 33.4783 86.5986 35.2745 86.5974 37.0706C86.5974 37.4761 86.5781 37.4926 86.1589 37.4939C85.9025 37.4939 85.6461 37.4812 85.391 37.5003C85.1179 37.5193 85.0435 37.4049 85.0448 37.1494C85.0551 35.924 85.0486 34.6986 85.0486 33.472L85.0474 33.4732Z"
      fill="rgba(255,255,255,0.5)" />
    <path
      d="M45.364 33.4745C45.364 32.2605 45.364 31.0466 45.364 29.8339C45.364 29.4487 45.391 29.4259 45.7871 29.4271C46.0435 29.4271 46.2986 29.4335 46.5551 29.4246C46.8127 29.4157 46.9127 29.5212 46.9115 29.7818C46.9025 31.5233 46.9025 33.2635 46.9012 35.005C46.9012 35.7118 46.8974 36.4185 46.9115 37.1253C46.9166 37.3973 46.8153 37.5117 46.5384 37.499C46.2615 37.4863 45.9833 37.4838 45.7076 37.499C45.4384 37.5143 45.3576 37.4037 45.3589 37.1456C45.3692 35.9215 45.3627 34.6974 45.3627 33.4732L45.364 33.4745Z"
      fill="rgba(255,255,255,0.5)" />
    <path
      d="M30.4166 44.498C30.0077 44.498 29.6718 44.498 29.3346 44.498C28.909 44.498 28.482 44.5006 28.0564 44.4955C27.9038 44.4929 27.7551 44.4764 27.759 44.2578C27.7628 44.0277 27.9205 44.048 28.0705 44.048C28.8064 44.048 29.5436 44.048 30.2795 44.048C30.3961 44.048 30.5115 44.048 30.6731 44.048V42.5315H31.1641C31.1641 42.9447 31.1679 43.3425 31.1641 43.7404C31.1615 43.9743 31.2782 44.0518 31.5025 44.0493C32.2602 44.0429 33.0179 44.0467 33.7756 44.0467C33.891 44.0467 34.0077 44.0467 34.1154 44.0467C34.2256 44.4205 34.2051 44.4675 33.8615 44.4726C33.2128 44.4828 32.5628 44.4688 31.9141 44.4751C31.7987 44.4751 31.6846 44.5298 31.5692 44.559C31.6102 44.6722 31.632 44.7967 31.6936 44.8984C32.3641 45.9993 33.1769 46.9641 34.3628 47.5526C34.15 47.9594 34.0525 47.9912 33.7013 47.7471C32.8654 47.1674 32.1949 46.4314 31.6449 45.5849C31.532 45.4107 31.4218 45.234 31.2654 44.9861C31.2205 45.1374 31.1692 45.2315 31.1679 45.3268C31.1602 45.8861 31.1692 46.4467 31.1628 47.006C31.1602 47.2386 31.2602 47.3276 31.491 47.3213C31.8525 47.3124 32.2128 47.3187 32.5666 47.3187C32.6666 47.7102 32.6064 47.784 32.2423 47.7713C31.9769 47.7611 31.7077 47.7763 31.4449 47.7496C31.2179 47.7268 31.1641 47.831 31.1641 48.0191C31.1654 48.3776 31.1641 48.7361 31.1641 49.0882C30.7474 49.2127 30.6833 49.1708 30.6859 48.7895C30.6859 48.5365 30.6884 48.2823 30.6949 48.0293C30.7013 47.8043 30.5705 47.7331 30.3718 47.7357C30.0654 47.7407 29.759 47.7674 29.4551 47.7496C29.3731 47.7446 29.2564 47.6225 29.2295 47.5323C29.182 47.3734 29.2949 47.3136 29.4513 47.3187C29.6538 47.3251 29.8564 47.3187 30.059 47.3187C30.25 47.3187 30.4397 47.3187 30.6654 47.3187V45.0738C30.1359 45.9115 29.5166 46.6514 28.791 47.3022C28.6025 47.4713 28.3923 47.6162 28.1897 47.7713C27.95 47.9543 27.7487 47.934 27.5769 47.62C28.8154 46.8916 29.7269 45.8556 30.4154 44.4955L30.4166 44.498Z"
      fill="rgba(255,255,255,0.5)" />
    <path
      d="M60.3923 47.3759C60.4102 47.1738 60.4295 47.0543 60.4295 46.9361C60.4282 45.7844 60.4179 44.6328 60.4205 43.4811C60.4205 43.0502 60.4346 43.0502 60.9256 43.1188V43.4493C60.9256 45.0141 60.9295 46.5776 60.9179 48.1424C60.9179 48.2848 60.8538 48.5047 60.7551 48.5517C60.5705 48.6382 60.4282 48.5149 60.3025 48.3242C59.4179 46.978 58.5128 45.6459 57.6115 44.3099C57.5807 44.2641 57.5231 44.2349 57.4218 44.1523C57.4218 44.3289 57.4218 44.4395 57.4218 44.5501C57.4218 45.787 57.4192 47.0238 57.4243 48.2606C57.4243 48.4513 57.4154 48.5886 57.1602 48.5784C56.9218 48.5683 56.8474 48.4602 56.8474 48.2416C56.8525 46.6348 56.8487 45.0281 56.8602 43.4213C56.8602 43.3107 56.9487 43.1099 57.0038 43.1074C57.191 43.0985 57.3923 42.9993 57.5589 43.2561C58.4231 44.587 59.3141 45.8988 60.1987 47.2158C60.2256 47.2552 60.2743 47.2806 60.3923 47.3759V47.3759Z"
      fill="rgba(255,255,255,0.5)" />
    <path
      d="M113.372 37.4011C113.67 37.1189 113.958 36.8227 114.273 36.5609C114.374 36.477 114.551 36.4503 114.692 36.4503C116.603 36.4439 118.512 36.449 120.422 36.4427C120.672 36.4427 120.767 36.5253 120.747 36.7744C120.729 37.002 120.744 37.2333 120.744 37.4825H113.428C113.409 37.4558 113.39 37.4291 113.37 37.4011H113.372Z"
      fill="rgba(255,255,255,0.5)" />
    <path
      d="M62.2679 48.5289C62.35 48.2632 62.4154 48.0039 62.5103 47.756C63.0769 46.2789 63.6564 44.8069 64.2179 43.3285C64.3013 43.1086 64.4128 43.0057 64.65 42.9917C64.8974 42.9777 64.9449 43.1417 65.009 43.312C65.6295 44.9531 66.2526 46.5929 66.8679 48.2352C66.9038 48.3306 66.8923 48.539 66.8679 48.5454C66.6859 48.5873 66.4744 48.6344 66.3782 48.3967C66.2423 48.0585 66.1051 47.7191 65.9923 47.3734C65.9333 47.1903 65.8372 47.123 65.6487 47.1242C64.9449 47.1319 64.241 47.1293 63.5372 47.128C63.3833 47.128 63.2974 47.1585 63.2462 47.3365C63.1577 47.6441 62.9744 47.9276 62.9038 48.2378C62.8179 48.6115 62.6013 48.6102 62.2679 48.5301V48.5289ZM64.6269 43.8205C64.5679 43.8942 64.5423 43.9133 64.532 43.94C64.2359 44.7052 63.9385 45.4692 63.6487 46.237C63.5154 46.5916 63.5603 46.6437 63.9577 46.645C64.3949 46.645 64.8308 46.6437 65.2679 46.645C65.6782 46.645 65.7141 46.5929 65.5667 46.2077C65.3744 45.7018 65.1885 45.1921 64.9923 44.6874C64.8846 44.4103 64.7615 44.1408 64.6256 43.8205H64.6269Z"
      fill="rgba(255,255,255,0.5)" />
    <path
      d="M112.605 29.4157C112.855 29.4157 113.078 29.422 113.301 29.4144C113.546 29.4042 113.647 29.511 113.645 29.7538C113.637 30.3131 113.642 30.8724 113.642 31.4318C113.642 32.7614 113.64 34.0897 113.645 35.4194C113.646 35.7143 113.56 35.9342 113.294 36.1033C113.123 36.2113 113.001 36.3956 112.855 36.5444C112.792 36.6079 112.724 36.6677 112.605 36.7795V29.4157V29.4157Z"
      fill="rgba(255,255,255,0.5)" />
    <path
      d="M48.3103 43.1035H48.7706C48.7706 43.3057 48.7706 43.5027 48.7706 43.6997C48.7706 44.2171 48.7796 44.7357 48.768 45.2531C48.7629 45.4641 48.8719 45.5505 49.0514 45.5505C49.7872 45.5543 50.5231 45.5404 51.259 45.5454C51.5257 45.5467 51.6014 45.4336 51.5962 45.1794C51.5808 44.4955 51.5911 43.8103 51.5911 43.1061H52.0616C52.068 43.218 52.0783 43.3298 52.0783 43.4417C52.0783 45.0268 52.0783 46.612 52.0783 48.1984C52.0783 48.6064 52.068 48.614 51.5898 48.5301C51.5898 47.9721 51.5898 47.4064 51.5898 46.8395C51.5898 46.3242 51.3257 46.0675 50.7975 46.0692C50.2526 46.0692 49.7078 46.0844 49.1642 46.0615C48.8462 46.0488 48.7565 46.1658 48.7655 46.4658C48.7834 47.0886 48.7655 47.7128 48.7731 48.3369C48.7757 48.5187 48.7052 48.5772 48.5283 48.5759C48.359 48.5759 48.2731 48.5314 48.2744 48.3445C48.2796 46.6425 48.2783 44.9416 48.2796 43.2396C48.2796 43.2002 48.2962 43.1595 48.309 43.1035H48.3103Z"
      fill="rgba(255,255,255,0.5)" />
    <path
      d="M21.8655 45.4272C22.3719 45.1539 22.8693 44.9111 23.3347 44.6188C23.5206 44.5018 23.6667 44.287 23.7719 44.0874C23.9039 43.8345 24.0514 43.7455 24.3167 43.8929C24.3501 44.6289 24.977 44.8209 25.4937 45.0916C25.7962 45.2505 26.1411 45.3281 26.4667 45.4412C26.3667 45.7857 26.2231 45.8683 25.9014 45.7628C25.3014 45.5658 24.7462 45.2925 24.3103 44.8247C24.1655 44.6696 24.0398 44.6099 23.8667 44.8044C23.559 45.1514 23.1655 45.3688 22.7193 45.501C22.6578 45.5188 22.6078 45.5747 22.5667 45.6713H25.1975V47.8818H24.7244C24.7244 47.4268 24.7103 46.9857 24.7296 46.5471C24.7424 46.2535 24.6283 46.1569 24.3373 46.1632C23.7078 46.1785 23.077 46.1759 22.4475 46.1632C22.2039 46.1581 22.1014 46.2281 22.1116 46.4861C22.1296 46.9386 22.1167 47.3924 22.1167 47.8717H21.6308C21.6308 47.1878 21.6155 46.5141 21.6424 45.8404C21.6488 45.6853 21.8026 45.5353 21.8642 45.4272H21.8655Z"
      fill="rgba(255,255,255,0.5)" />
    <path
      d="M9.30126 48.0445C9.78715 48.0445 10.2333 48.0395 10.6782 48.0471C10.8384 48.0496 11.0397 48.0115 11.0295 48.2861C11.0192 48.5479 10.8538 48.5047 10.6731 48.5047C9.67177 48.4996 8.67049 48.5072 7.6692 48.5098C7.52049 48.5098 7.36408 48.5289 7.22433 48.492C7.14485 48.4717 7.03459 48.3547 7.03715 48.2848C7.03972 48.2111 7.15895 48.0865 7.23202 48.0827C7.59356 48.0662 7.95638 48.0751 8.31792 48.089C8.58459 48.0992 8.70254 48.0102 8.69997 47.7268C8.68972 46.4594 8.691 45.1921 8.69997 43.926C8.70126 43.7073 8.6192 43.6552 8.4192 43.6603C8.03844 43.6718 7.65767 43.6629 7.28459 43.6629C7.20767 43.2396 7.24741 43.1849 7.62177 43.1836C8.52818 43.1811 9.43459 43.1836 10.3423 43.1836C10.5102 43.1836 10.6923 43.1506 10.6897 43.4239C10.6859 43.6921 10.5115 43.6616 10.3397 43.6616C10.0013 43.6616 9.66279 43.6616 9.29997 43.6616V48.0433L9.30126 48.0445Z"
      fill="rgba(255,255,255,0.5)" />
    <path
      d="M13.7577 44.0506V42.5277H14.2333V44.0506C14.5436 44.0506 14.8179 44.062 15.091 44.0467C15.3718 44.0315 15.4641 44.1395 15.3679 44.4408C15.0833 44.4408 14.7871 44.4484 14.491 44.4383C14.2974 44.4319 14.2436 44.5082 14.2307 44.6976C14.2051 45.0675 14.282 45.3611 14.591 45.6115C14.841 45.8149 15.05 46.0768 15.2436 46.3361C15.2961 46.4073 15.2282 46.5662 15.2166 46.6844C15.1154 46.6475 14.9833 46.6399 14.9192 46.57C14.7128 46.3488 14.532 46.1048 14.2628 45.8925C14.2551 45.9764 14.241 46.0615 14.2397 46.1454C14.2371 47.0225 14.2397 47.8984 14.2333 48.7755C14.2333 48.9318 14.3256 49.1505 14.0077 49.1543C13.7038 49.1581 13.7602 48.9598 13.7602 48.7894C13.7602 47.8285 13.7641 46.8675 13.7641 45.9065C13.7641 45.8264 13.7448 45.7463 13.7307 45.637C13.35 46.3539 12.9871 47.0391 12.6141 47.7446C12.3012 47.5094 12.2923 47.3238 12.482 47.0899C13.0487 46.3882 13.3641 45.5594 13.6525 44.7217C13.7115 44.5489 13.6628 44.4332 13.4436 44.4421C13.1987 44.4535 12.9512 44.4726 12.7102 44.4472C12.6038 44.4357 12.5077 44.3226 12.4064 44.2565C12.5064 44.1878 12.6025 44.0671 12.7064 44.0595C13.0436 44.034 13.3833 44.0506 13.7589 44.0506H13.7577Z"
      fill="rgba(255,255,255,0.5)" />
    <path
      d="M42.641 45.7387C42.5525 44.9912 42.8564 44.2921 43.3679 43.6946C43.7076 43.2968 44.191 43.0629 44.7205 42.9993C45.373 42.9218 45.9846 43.0413 46.5153 43.4645C46.6384 43.5624 46.7307 43.6362 46.6179 43.7925C46.5128 43.9387 46.4076 43.9972 46.2166 43.8993C45.941 43.7569 45.6525 43.6285 45.3551 43.5434C44.741 43.3679 44.214 43.5955 43.8051 44.0277C43.014 44.8628 43.0064 46.7187 43.791 47.5857C44.3487 48.2022 45.5781 48.2759 46.1346 47.7776C46.2217 47.6988 46.3615 47.6238 46.4653 47.6365C46.5538 47.6467 46.6538 47.7763 46.6935 47.8755C46.7128 47.9238 46.623 48.0407 46.5564 48.0928C45.5846 48.8492 44.4512 48.8695 43.5076 48.0776C42.9858 47.639 42.7243 47.0225 42.6435 46.345C42.623 46.1683 42.641 45.9865 42.641 45.7387V45.7387Z"
      fill="rgba(255,255,255,0.5)" />
    <path
      d="M114.637 34.6998C114.628 34.5308 114.618 34.4303 114.618 34.3299C114.618 32.8325 114.618 31.3351 114.618 29.8389C114.618 29.4334 114.637 29.4169 115.056 29.4156C115.476 29.4139 115.686 29.6173 115.686 30.0258C115.686 31.1851 115.683 32.3456 115.688 33.5049C115.688 33.6842 115.654 33.8087 115.491 33.927C115.296 34.0655 115.151 34.2714 114.977 34.4392C114.89 34.5231 114.786 34.5892 114.638 34.7011L114.637 34.6998Z"
      fill="rgba(255,255,255,0.5)" />
    <path
      d="M120.744 35.4651H115.35C115.726 35.1117 116.031 34.799 116.367 34.5257C116.459 34.4507 116.648 34.4812 116.792 34.48C117.932 34.4711 119.073 34.4647 120.213 34.4609C120.339 34.4609 120.472 34.452 120.589 34.4863C120.653 34.5054 120.731 34.6058 120.736 34.6745C120.754 34.9262 120.742 35.1791 120.742 35.4664L120.744 35.4651Z"
      fill="rgba(255,255,255,0.5)" />
    <path
      d="M5.06657 47.1128C4.76785 46.6564 4.77298 46.6615 5.14606 46.2662C5.35118 46.0488 5.53708 45.8137 5.73067 45.5861L5.67682 45.4946C5.56016 45.5048 5.44477 45.5264 5.32811 45.5238C5.19606 45.5213 5.00247 45.5429 4.94606 45.4705C4.85759 45.356 4.78965 45.1412 4.84093 45.023C5.16144 44.287 5.52811 43.5701 5.85631 42.8366C5.94349 42.6421 6.0499 42.6497 6.20247 42.7069C6.39221 42.7781 6.39221 42.918 6.31913 43.068C6.0858 43.5472 5.84734 44.0226 5.61272 44.5018C5.53965 44.6506 5.47426 44.8006 5.40118 44.9569C5.83708 45.0497 6.18195 44.8984 6.35888 44.5616C6.4217 44.4408 6.48323 44.3175 6.55247 44.2006C6.63452 44.062 6.71785 44.034 6.88965 44.1154C7.07298 44.2018 7.0858 44.3099 7.00631 44.4332C6.65888 44.9785 6.29734 45.5162 5.93836 46.0552C5.87426 46.1518 5.80631 46.2446 5.73965 46.3399L5.79349 46.406C6.15888 46.3259 6.52426 46.2459 6.88836 46.1632C7.02554 46.1315 7.19477 46.0285 7.21272 46.2815C7.22682 46.4772 7.164 46.6043 6.92554 46.6539C6.30118 46.7861 5.68452 46.9564 5.06529 47.1128H5.06657Z"
      fill="rgba(255,255,255,0.5)" />
    <path d="M118.724 29.4335H120.717V31.4063H118.724V29.4335Z" fill="rgba(255,255,255,0.5)" />
    <path
      d="M54.2743 43.1023H54.7666C54.7769 43.1989 54.7936 43.279 54.7936 43.3603C54.7948 44.9861 54.7961 46.6119 54.7936 48.2365C54.7936 48.5314 54.6936 48.6229 54.4077 48.5619C54.3333 48.5466 54.2243 48.4373 54.2243 48.3712C54.2192 46.6297 54.2269 44.8895 54.2333 43.148C54.2333 43.1404 54.2461 43.1328 54.2731 43.1023H54.2743Z"
      fill="rgba(255,255,255,0.5)" />
    <path
      d="M38.5565 45.7755C38.5565 47.2552 38.5565 48.7348 38.5565 50.2144C38.5565 50.2881 38.5757 50.3695 38.5514 50.4343C38.5232 50.5055 38.4552 50.5614 38.4052 50.625C38.3578 50.5576 38.3014 50.4928 38.268 50.4191C38.2475 50.3746 38.2642 50.3148 38.2642 50.2627C38.2642 47.2818 38.2642 44.301 38.2642 41.3214C38.2642 41.2794 38.2501 41.2286 38.268 41.1955C38.3104 41.118 38.368 41.0481 38.4193 40.9756C38.4655 41.0532 38.5232 41.1269 38.5539 41.2108C38.5745 41.2667 38.5578 41.3366 38.5578 41.4002C38.5578 42.8582 38.5578 44.3175 38.5578 45.7755H38.5565Z"
      fill="rgba(255,255,255,0.5)" />
    <path
      d="M23.2256 42.6154L23.5551 42.7374C23.5667 42.8417 23.5782 42.9446 23.5936 43.0794H25.9628C26.1 43.5675 25.8744 43.9412 25.6628 44.3086C25.6372 44.3518 25.4141 44.3429 25.3449 44.2845C25.2795 44.2311 25.2654 44.0734 25.2872 43.973C25.3115 43.8561 25.3987 43.7531 25.4962 43.5726C24.7333 43.5726 24.0641 43.5701 23.3962 43.5777C23.3359 43.5777 23.2654 43.6425 23.2179 43.6934C22.9256 44.0073 22.6397 44.3264 22.3603 44.634C21.909 44.362 21.8987 44.3048 22.2397 44.001C22.6218 43.659 22.9346 43.2739 23.1038 42.7845C23.1231 42.7286 23.1744 42.6841 23.2256 42.6154V42.6154Z"
      fill="rgba(255,255,255,0.5)" />
    <path
      d="M117.727 29.4157C117.727 30.1949 117.728 30.922 117.724 31.6478C117.724 31.7038 117.696 31.7737 117.658 31.8131C117.413 32.066 117.164 32.3152 116.909 32.558C116.86 32.605 116.778 32.619 116.66 32.6698C116.66 32.4436 116.66 32.2593 116.66 32.0737C116.66 31.2817 116.667 30.4898 116.656 29.6991C116.654 29.4767 116.73 29.3979 116.951 29.4106C117.194 29.4246 117.438 29.4144 117.727 29.4144V29.4157Z"
      fill="rgba(255,255,255,0.5)" />
    <path
      d="M120.745 33.4389H117.442C117.769 33.1109 118.065 32.8059 118.373 32.5109C118.427 32.4601 118.527 32.4334 118.605 32.4347C119.233 32.4436 119.862 32.4677 120.489 32.4754C120.68 32.4779 120.758 32.5376 120.746 32.7321C120.733 32.9609 120.744 33.191 120.744 33.4389H120.745Z"
      fill="rgba(255,255,255,0.5)" />
    <path
      d="M23.2281 46.4734H23.6397C23.6371 47.6568 23.2974 48.5111 22.0089 48.7704C21.6781 48.8365 21.3461 48.9 21.0128 48.9585C20.6756 49.017 20.532 48.8365 20.4833 48.5238C20.8897 48.4767 21.2858 48.4386 21.6807 48.3839C22.3948 48.2848 23.0499 47.8437 23.1012 47.0912C23.114 46.8954 23.1794 46.7022 23.2281 46.4747V46.4734Z"
      fill="rgba(255,255,255,0.5)" />
    <path
      d="M15.414 48.8683C16.0371 48.5301 16.6678 48.2505 17.2255 47.8691C17.6896 47.5513 18.0691 47.1141 18.4858 46.7302C18.5896 46.6348 18.6537 46.5026 18.855 46.6196C19.0307 46.7213 19.0396 46.8052 18.9319 46.9336C18.0717 47.9632 16.9678 48.6496 15.7255 49.1339C15.5589 49.1988 15.5025 49.1378 15.4127 48.8683H15.414Z"
      fill="rgba(255,255,255,0.5)" />
    <path
      d="M18.764 44.6963C18.4063 45.0484 18.1025 45.4043 17.741 45.6865C17.3102 46.0234 16.832 46.2992 16.3717 46.598C16.0474 46.8077 15.982 46.7874 15.7794 46.4009C16.041 46.2598 16.3115 46.1289 16.5666 45.9738C17.164 45.6103 17.7525 45.2327 18.1743 44.6594C18.3756 44.3861 18.5345 44.615 18.764 44.6976V44.6963Z"
      fill="rgba(255,255,255,0.5)" />
    <path
      d="M18.4936 42.7578C17.9051 43.3705 17.2398 43.8802 16.5167 44.3213C16.4269 44.376 16.3436 44.4383 16.2551 44.4942C15.959 44.6785 15.8949 44.6569 15.709 44.3162C16.1154 44.0607 16.5359 43.823 16.9269 43.5434C17.2269 43.3285 17.509 43.0819 17.7615 42.815C17.9962 42.5658 18.2115 42.5391 18.4949 42.7578H18.4936Z"
      fill="rgba(255,255,255,0.5)" />
    <path
      d="M7.31534 47.1827V47.6696C6.56405 47.934 5.81277 48.1984 5.06534 48.4628C4.80892 48.0344 4.80636 48.0268 5.2679 47.8666C5.92944 47.6378 6.5961 47.423 7.31534 47.184V47.1827Z"
      fill="rgba(255,255,255,0.5)" />
    <path
      d="M23.5756 48.1335C23.6602 47.8119 23.814 47.7471 24.114 47.8691C24.6563 48.0903 25.2127 48.2772 25.7679 48.4615C25.9666 48.5276 25.9653 48.6611 25.8833 48.7729C25.8217 48.8581 25.6525 48.9496 25.5704 48.9229C24.9653 48.7208 24.3692 48.4933 23.773 48.267C23.6986 48.239 23.6384 48.1767 23.5756 48.1335V48.1335Z"
      fill="rgba(255,255,255,0.5)" />
    <path
      d="M20.6665 45.7995C20.5845 45.7283 20.4704 45.6635 20.4101 45.5644C20.3806 45.5173 20.4345 45.394 20.4845 45.3305C20.7447 45.0012 21.0076 44.6745 21.287 44.3631C21.3473 44.2957 21.5024 44.2449 21.5755 44.2767C21.6435 44.3059 21.7217 44.494 21.6896 44.5423C21.414 44.9491 21.114 45.3406 20.8178 45.7334C20.796 45.7627 20.7435 45.7677 20.6653 45.7995H20.6665Z"
      fill="rgba(255,255,255,0.5)" />
    <path
      d="M21.4359 43.8141C21.1166 43.5294 20.8769 43.3298 20.6577 43.1099C20.5987 43.0514 20.5551 42.8747 20.5871 42.8493C20.6705 42.7807 20.8423 42.698 20.9012 42.7362C21.1551 42.904 21.4077 43.0921 21.6012 43.3209C21.6551 43.3857 21.5064 43.6184 21.4371 43.8129L21.4359 43.8141Z"
      fill="rgba(255,255,255,0.5)" />
  </g>
  <defs>
    <clipPath id="clip0_3070_2369">
      <rect width="116.25" height="21.25" fill="rgba(255,255,255,0.5)"
        transform="translate(4.5 29.375)" />
    </clipPath>
  </defs>
</svg>