<svg width="129" height="80" viewBox="0 0 129 80" fill="none" xmlns="http://www.w3.org/2000/svg">
  <mask id="mask0_3070_2548" style="mask-type:luminance" maskUnits="userSpaceOnUse" x="4" y="15"
    width="121" height="50">
    <path d="M124.961 15.4663H4.96094V64.5337H124.961V15.4663Z" fill="rgba(255,255,255,1)" />
  </mask>
  <g mask="url(#mask0_3070_2548)">
    <mask id="mask1_3070_2548" style="mask-type:luminance" maskUnits="userSpaceOnUse" x="-56" y="15"
      width="181" height="50">
      <path d="M124.961 15.4663H-55.1252V64.5337H124.961V15.4663Z" fill="rgba(255,255,255,1)" />
    </mask>
    <g mask="url(#mask1_3070_2548)">
      <path fill-rule="evenodd" clip-rule="evenodd"
        d="M17.1957 24.0316C19.7087 24.0316 22.2237 24.0522 24.7368 24.0179C25.3961 24.0093 25.637 24.1483 25.6457 24.8757C25.6801 27.8542 25.7094 27.8525 22.7194 27.8525C19.4179 27.8525 16.1146 27.8731 12.8149 27.8405C11.8217 27.8405 11.2174 28.0978 11.2397 29.213C11.2622 30.3282 11.5239 30.5667 12.789 30.5702C16.2403 30.5702 19.6916 30.5702 23.1445 30.5702C24.933 30.5702 25.6113 31.2393 25.6146 32.9945C25.6146 36.2474 25.6146 39.5005 25.6146 42.7534C25.6146 44.3713 24.9073 45.0782 23.2753 45.0816C18.2835 45.0937 13.2916 45.0816 8.29984 45.0988C7.64571 45.0988 7.39266 44.97 7.38229 44.2409C7.33756 41.2642 7.30836 41.2642 10.3172 41.2642C13.5808 41.2642 16.845 41.2642 20.1098 41.2642C21.5145 41.2642 21.771 41.0154 21.7796 39.6634C21.7796 38.3921 21.7503 37.1191 21.7915 35.8494C21.8261 34.7892 21.3457 34.3636 20.3095 34.3687C16.8203 34.3859 13.3312 34.3687 9.84216 34.3687C8.03988 34.3687 7.40976 33.7391 7.40302 31.9462C7.40302 30.076 7.39266 28.2076 7.40302 26.3375C7.41321 24.7213 8.11036 24.0368 9.75251 24.0299C12.2433 24.0248 14.7203 24.0316 17.1957 24.0316Z"
        fill="rgba(255,255,255,0.5)" />
      <path fill-rule="evenodd" clip-rule="evenodd"
        d="M76.1702 34.3755H72.0131C71.4607 34.3755 70.896 34.4098 70.8753 35.1339C70.8547 35.8579 71.409 35.9197 71.9701 35.9197C74.6657 35.9197 77.3626 35.9197 80.0605 35.9197C80.6267 35.9197 81.1913 35.8648 81.2119 35.1733C81.2326 34.4819 80.668 34.3755 80.1035 34.3755H76.1702ZM76.0548 30.5564C78.2685 30.5564 80.4821 30.5461 82.6958 30.5564C84.3844 30.5667 85.073 31.2649 85.0816 32.9584C85.0816 34.379 85.0816 35.7995 85.0816 37.2202C85.0816 39.0748 84.4344 39.7303 82.6012 39.7337C79.1859 39.7337 75.7726 39.7251 72.3591 39.744C71.7756 39.744 70.9012 39.478 70.896 40.4628C70.896 41.506 71.7998 41.2503 72.4245 41.2572C74.4505 41.2813 76.4766 41.2899 78.5009 41.2572C79.1705 41.2434 79.3977 41.4288 79.4098 42.1272C79.4614 45.0884 79.4872 45.0884 76.5557 45.0884C74.146 45.0884 71.7533 45.0987 69.3537 45.0884C67.7046 45.0781 67.0006 44.4022 66.992 42.7893C66.9692 39.4987 66.9692 36.2091 66.992 32.9205C67.0023 31.2341 67.6995 30.5735 69.4192 30.5649C71.6293 30.5478 73.8465 30.5564 76.0548 30.5564Z"
        fill="rgba(255,255,255,0.5)" />
      <path fill-rule="evenodd" clip-rule="evenodd"
        d="M36.4263 34.3755C35.0768 34.3755 33.7284 34.3755 32.3811 34.3755C31.8063 34.3755 31.2761 34.4888 31.2915 35.1923C31.3053 35.8374 31.808 35.918 32.3398 35.918C35.0745 35.918 37.8092 35.918 40.5437 35.918C41.1135 35.918 41.6471 35.8476 41.6281 35.1202C41.611 34.4664 41.098 34.3807 40.5833 34.379C39.2062 34.379 37.812 34.379 36.4263 34.379V34.3755ZM43.0861 30.5598C44.8076 30.5598 45.4788 31.2324 45.4961 32.9206C45.504 34.4167 45.504 35.9123 45.4961 37.4072C45.484 39.0611 44.8316 39.7268 43.186 39.732C39.659 39.7423 36.1285 39.732 32.6067 39.732C32.0042 39.732 31.271 39.648 31.3088 40.535C31.3397 41.3139 32.0299 41.2589 32.5929 41.2607C34.7308 41.2607 36.8704 41.2848 39.0083 41.2503C39.6503 41.2402 39.8191 41.4425 39.8329 42.074C39.9034 45.0815 39.9241 45.0815 36.9255 45.0815C34.5622 45.0815 32.197 45.0902 29.8337 45.0815C28.1122 45.0729 27.4358 44.3953 27.4324 42.7105C27.4242 39.4197 27.4242 36.1296 27.4324 32.84C27.4324 31.2958 28.1433 30.5753 29.6976 30.5598C31.9439 30.5409 40.8726 30.5478 43.0861 30.5598Z"
        fill="rgba(255,255,255,0.5)" />
      <path fill-rule="evenodd" clip-rule="evenodd"
        d="M106.817 24.0315C108.123 24.0315 109.204 24.0589 110.284 24.0195C110.79 24.0006 111.01 24.2751 111.253 24.6268C112.444 26.3494 113.644 28.0651 114.852 29.774C115.615 30.8497 116.152 30.8531 116.918 29.7842C118.088 28.1372 119.266 26.4969 120.379 24.8087C120.78 24.2031 121.215 23.9611 121.928 24.0109C122.859 24.0744 123.796 24.0263 124.93 24.0263C124.414 24.7812 123.991 25.4178 123.554 26.0457C122.507 27.5504 121.488 29.0705 120.391 30.5426C119.885 31.2289 119.842 31.8328 120.151 32.6152C121.605 36.2919 123.01 39.9928 124.429 43.6814C124.588 44.0932 124.723 44.5152 124.923 45.078C123.68 45.078 122.536 45.0625 121.395 45.078C120.804 45.0901 120.78 44.6268 120.641 44.2699C119.577 41.5249 118.519 38.774 117.463 36.0174C117.179 35.2763 116.931 34.5041 115.914 34.5024C114.897 34.5006 114.628 35.2144 114.337 35.9797C113.294 38.7351 112.21 41.4699 111.18 44.2391C110.953 44.8499 110.664 45.1485 109.975 45.097C109.228 45.0343 108.475 45.0343 107.727 45.097C106.886 45.1672 106.903 44.8448 107.153 44.2083C108.648 40.3856 110.099 36.5475 111.609 32.7301C111.953 31.8723 111.9 31.2186 111.341 30.4585C109.822 28.4151 108.409 26.3117 106.817 24.0315Z"
        fill="rgba(255,255,255,0.5)" />
      <path fill-rule="evenodd" clip-rule="evenodd"
        d="M95.8895 30.5666C98.1015 30.5666 100.312 30.5666 102.524 30.5666C104.245 30.5666 104.915 31.2238 104.92 32.9292C104.928 36.6643 104.908 40.3993 104.937 44.1344C104.937 44.831 104.799 45.1005 104.021 45.1039C101.081 45.1158 101.081 45.1468 101.081 42.242C101.081 40.0768 101.055 37.9099 101.093 35.7446C101.109 34.7856 100.699 34.3721 99.7642 34.3721C97.1788 34.3721 94.5928 34.3721 92.0062 34.3721C91.0544 34.3721 90.6773 34.8027 90.686 35.7446C90.7169 38.5464 90.6739 41.3481 90.7134 44.1517C90.7238 44.8808 90.5224 45.0987 89.7771 45.1039C86.8508 45.1192 86.8508 45.1468 86.8508 42.2267C86.8508 39.128 86.8508 36.0278 86.8508 32.9274C86.8508 31.2255 87.5188 30.5769 89.2487 30.5684C91.4657 30.5598 93.6777 30.5666 95.8895 30.5666Z"
        fill="rgba(255,255,255,0.5)" />
      <path fill-rule="evenodd" clip-rule="evenodd"
        d="M65.2399 30.5563C65.2312 30.7231 65.2065 30.8885 65.1658 31.0505C63.4858 35.4393 61.8034 39.8285 60.1189 44.2184C59.8847 44.8344 59.4717 45.0884 58.8364 45.0867C57.1477 45.0867 55.4609 45.0763 53.774 45.0867C53.187 45.0867 52.7326 44.9014 52.5175 44.3403C50.7652 39.7851 49.0214 35.2282 47.2261 30.546C48.4758 30.546 49.5911 30.5786 50.7031 30.534C51.3521 30.5066 51.3917 30.9732 51.55 31.3713C52.6379 34.1902 53.7292 37.0091 54.7965 39.8349C55.0753 40.5744 55.3973 41.2554 56.3112 41.2486C57.2253 41.2417 57.5335 40.5298 57.8088 39.8056C58.8675 37.0143 59.9571 34.2348 60.9864 31.4348C61.229 30.7742 61.5424 30.4877 62.2739 30.5375C63.2344 30.6078 64.2069 30.5563 65.2399 30.5563Z"
        fill="rgba(255,255,255,0.5)" />
      <path fill-rule="evenodd" clip-rule="evenodd"
        d="M118.907 52.0834C120.59 52.0834 121.992 52.0834 123.395 52.0834C124.797 52.0834 124.93 52.2189 124.944 53.6276C124.956 55.8854 124.956 55.8854 122.661 55.8854C121.348 55.8854 120.035 55.906 118.724 55.8854C118.208 55.8733 117.496 56.1908 117.48 55.1339C117.463 54.1165 118.106 54.3259 118.669 54.3225C119.873 54.3121 121.07 54.3309 122.269 54.3104C122.614 54.3104 123.201 54.4819 123.22 54.0153C123.239 53.5143 122.652 53.6875 122.315 53.6825C121.111 53.6601 119.914 53.6464 118.715 53.6825C117.876 53.7064 117.499 53.4251 117.487 52.5243C117.451 49.8651 117.422 49.8666 120.07 49.8666C121.382 49.8666 122.697 49.8873 124.008 49.8565C124.63 49.8427 124.974 49.9405 124.965 50.6937C124.965 51.3989 124.711 51.5962 124.044 51.5755C122.77 51.5344 121.495 51.5532 120.22 51.5755C119.868 51.5669 119.47 51.4245 118.907 52.0834Z"
        fill="rgba(255,255,255,0.5)" />
      <path fill-rule="evenodd" clip-rule="evenodd"
        d="M27.8042 52.0782C28.3671 52.0782 28.9283 52.0782 29.4911 52.0782C29.684 52.0782 29.8871 52.0163 29.8802 51.7813C29.8733 51.5463 29.6907 51.4656 29.4895 51.4656C28.4032 51.4656 27.3153 51.4553 26.2292 51.4656C25.9986 51.4656 25.7644 51.5582 25.7903 51.8466C25.8143 52.0902 26.0503 52.0799 26.2309 52.0816C26.7559 52.0816 27.2792 52.0816 27.8042 52.0816V52.0782ZM28.4928 53.6583C27.8558 53.6583 27.219 53.648 26.5821 53.6583C26.3083 53.6583 25.8711 53.5622 25.8936 54.0014C25.9193 54.4081 26.3463 54.2931 26.6251 54.3C27.2241 54.3155 27.8301 54.3394 28.4222 54.3C29.0677 54.2537 29.2639 54.5042 29.257 55.1338C29.257 55.7308 29.0368 55.9111 28.4618 55.8939C27.3773 55.8596 26.2895 55.8767 25.2016 55.8939C24.4563 55.8939 24.0913 55.5508 24.0913 54.8061C24.0913 53.5364 24.0913 52.2668 24.0913 50.9956C24.0913 50.2663 24.4269 49.8699 25.1688 49.8682C26.9315 49.8682 28.6925 49.8682 30.4533 49.8682C31.2313 49.8682 31.5963 50.2561 31.6583 51.0281C31.8649 53.4302 31.6583 53.6669 29.2743 53.6669L28.4928 53.6583Z"
        fill="rgba(255,255,255,0.5)" />
      <path fill-rule="evenodd" clip-rule="evenodd"
        d="M104.381 52.0714C104.942 52.0714 105.503 52.0714 106.065 52.0714C106.263 52.0714 106.462 51.9925 106.433 51.7642C106.391 51.6285 106.282 51.5239 106.144 51.4881C104.985 51.4686 103.826 51.4686 102.668 51.4881C102.5 51.4801 102.358 51.6094 102.35 51.777C102.348 51.8043 102.351 51.8319 102.357 51.8586C102.386 52.0423 102.551 52.0748 102.701 52.0765C103.262 52.0765 103.823 52.0765 104.385 52.0765L104.381 52.0714ZM104.381 49.8582C105.242 49.8582 106.102 49.8582 106.963 49.8582C107.824 49.8582 108.209 50.2629 108.204 51.0917C108.204 51.1294 108.204 51.1671 108.204 51.2033C108.304 53.5813 108.23 53.6584 105.868 53.6584C104.93 53.6584 103.994 53.6584 103.056 53.6584C102.803 53.6584 102.453 53.619 102.434 53.9673C102.415 54.3155 102.768 54.2983 103.021 54.3104C103.694 54.3207 104.373 54.3481 105.044 54.3104C105.655 54.2744 105.808 54.5402 105.805 55.0996C105.801 55.659 105.684 55.9265 105.058 55.906C103.935 55.8664 102.81 55.894 101.684 55.894C100.995 55.894 100.651 55.5233 100.651 54.8508C100.641 53.5434 100.641 52.2361 100.651 50.9287C100.651 50.1841 101.073 49.8599 101.798 49.865C102.66 49.8633 103.522 49.8582 104.385 49.8582H104.381Z"
        fill="rgba(255,255,255,0.5)" />
      <path fill-rule="evenodd" clip-rule="evenodd"
        d="M44.6679 49.8582C45.5286 49.8582 46.3893 49.8582 47.2499 49.8582C47.9178 49.8582 48.3275 50.1721 48.3344 50.8635C48.3481 52.3185 48.3206 53.7803 48.3481 55.2317C48.3619 55.9283 47.9213 55.8699 47.4565 55.8923C46.9177 55.918 46.5959 55.7945 46.6286 55.1632C46.6629 54.3053 46.5976 53.4474 46.6476 52.5896C46.6906 51.8313 46.4461 51.5482 45.6388 51.5362C42.4939 51.4898 42.4835 51.4623 42.487 54.6878C42.487 55.4171 42.5248 56.033 41.4542 55.9078C40.9103 55.8443 40.7519 55.6556 40.7657 55.1529C40.7828 53.8094 40.7657 52.4643 40.7657 51.1209C40.7657 50.2545 41.1512 49.8102 42.0721 49.8496C42.9449 49.8873 43.8073 49.8565 44.6679 49.8582Z"
        fill="rgba(255,255,255,0.5)" />
      <path fill-rule="evenodd" clip-rule="evenodd"
        d="M74.5004 55.8854C73.6398 55.8854 72.7791 55.8681 71.9184 55.8854C71.1369 55.906 70.7136 55.5834 70.7136 54.7787C70.7136 53.3598 70.7324 51.941 70.7032 50.5255C70.6894 49.8392 71.1008 49.8581 71.5828 49.8392C72.0992 49.8254 72.4435 49.9096 72.4245 50.5547C72.3901 51.4863 72.4366 52.4214 72.4107 53.353C72.3936 53.9963 72.6086 54.3343 73.3092 54.3069C74.1321 54.2744 74.9566 54.2845 75.7812 54.3069C76.3612 54.319 76.5833 54.0427 76.5747 53.4902C76.5626 52.5569 76.6004 51.6235 76.5643 50.6919C76.5402 50.0759 76.7364 49.8153 77.3905 49.834C77.9534 49.853 78.3132 49.9113 78.2908 50.6146C78.2512 51.9873 78.2787 53.3753 78.2804 54.7565C78.2804 55.5508 77.8811 55.9026 77.0875 55.8819C76.2218 55.8681 75.3611 55.8854 74.5004 55.8854Z"
        fill="rgba(255,255,255,0.5)" />
      <path fill-rule="evenodd" clip-rule="evenodd"
        d="M11.1571 55.8597C9.97115 56.2028 9.52188 55.6006 9.24136 54.5747C8.79727 52.9566 8.22052 51.3765 7.74551 49.7705C7.65258 49.4601 7.13957 48.9453 7.79197 48.784C8.33072 48.652 9.05533 48.4495 9.31702 49.4C9.68027 50.7279 10.1484 52.0302 10.5925 53.3359C10.694 53.6343 10.689 54.0993 11.1089 54.1234C11.6012 54.1525 11.615 53.6808 11.7287 53.3308C12.1263 52.0886 12.5892 50.8634 12.9335 49.6042C13.1314 48.8613 13.5258 48.6726 14.2228 48.7207C14.7254 48.7566 14.8855 48.8784 14.7118 49.4069C14.0633 51.3514 13.4361 53.3037 12.8302 55.2644C12.5153 56.2492 11.7149 55.7447 11.1571 55.8597Z"
        fill="rgba(255,255,255,0.5)" />
      <path fill-rule="evenodd" clip-rule="evenodd"
        d="M59.0877 55.8749C58.4887 55.971 58.2754 55.7035 58.3011 55.1269C58.3339 54.3446 58.3236 53.5605 58.3011 52.7782C58.2873 52.2892 58.4837 51.7316 57.7848 51.457C57.4629 51.3318 57.5988 50.9252 57.5988 50.6404C57.5988 49.9541 58.5267 48.7531 59.0465 48.7359C59.4683 48.7273 59.883 48.6947 59.9158 49.3125C59.9416 49.8118 60.3306 49.8854 60.7299 49.8529C61.3497 49.7997 61.477 50.1204 61.4804 50.6626C61.4804 51.2323 61.3927 51.6166 60.699 51.5599C60.0328 51.5067 59.8813 51.9203 59.8899 52.4831C59.9037 53.3408 59.8676 54.1987 59.9003 55.0566C59.9312 55.6673 59.7453 55.9934 59.0877 55.8749Z"
        fill="rgba(255,255,255,0.5)" />
      <path fill-rule="evenodd" clip-rule="evenodd"
        d="M87.3694 53.0855V50.9563C87.3694 50.3506 87.6242 49.9114 88.2593 49.877C89.12 49.8324 89.9806 49.8583 90.8413 49.8651C91.5041 49.8651 91.3457 50.3797 91.3577 50.7623C91.3697 51.145 91.4025 51.5138 90.8413 51.5584C90.2801 51.603 89.5967 51.2926 89.237 51.7609C88.8222 52.3047 89.12 53.0614 89.0649 53.7237C89.0364 54.1338 89.0364 54.5455 89.0649 54.9556C89.1114 55.5783 88.977 55.918 88.2232 55.9096C87.5174 55.9096 87.297 55.6591 87.3452 54.9898C87.4038 54.3585 87.3677 53.7203 87.3694 53.0855Z"
        fill="rgba(255,255,255,0.5)" />
    </g>
  </g>
</svg>