<svg width="103" height="80" viewBox="0 0 103 80" fill="none" xmlns="http://www.w3.org/2000/svg">
  <g clip-path="url(#clip0_3070_2698)">
    <path
      d="M70.9373 31.875V33.6288H61.6799V36.3747H68.6987V38.1226H61.6842V40.8844H70.9071V42.6231H59.8395V42.0081C59.8395 38.7846 59.8395 35.5611 59.8378 32.3375C59.8378 32.1834 59.8188 32.03 59.8093 31.8758C63.5186 31.8758 67.2288 31.8758 70.9381 31.8758L70.9373 31.875Z"
      fill="rgba(255,255,255,0.5)" />
    <path
      d="M82.4349 31.875C83.1208 32.0644 83.7403 32.3543 84.1797 32.9316C84.502 33.3548 84.72 33.8207 84.7303 34.3486C84.7407 34.8957 84.776 35.4563 84.6795 35.9901C84.4555 37.226 83.3319 38.1033 82.042 38.1302C81.8887 38.1335 81.7353 38.1302 81.488 38.1302C82.5969 39.6627 83.6498 41.1174 84.7519 42.6407C83.9867 42.6407 83.3052 42.6508 82.6254 42.6298C82.5263 42.6265 82.4125 42.4866 82.3393 42.386C81.3717 41.0629 80.4067 39.739 79.4528 38.4067C79.3115 38.2089 79.1676 38.1218 78.9152 38.1251C77.7873 38.1385 76.6586 38.131 75.4756 38.131V42.6257H73.6653V31.875H82.4358H82.4349ZM75.485 36.3428C75.5583 36.3596 75.5936 36.3747 75.6289 36.3747C77.7503 36.3764 79.8716 36.3847 81.9921 36.3747C82.5194 36.3722 82.8994 35.9817 82.9373 35.4588C82.9536 35.2334 82.9442 35.0063 82.9433 34.7793C82.9407 33.9933 82.5823 33.6414 81.781 33.6414C79.819 33.6414 77.8571 33.6414 75.896 33.6414H75.4842V36.3428H75.485Z"
      fill="rgba(255,255,255,0.5)" />
    <path
      d="M98.5749 40.4755C98.3518 41.2221 97.9761 41.8899 97.2455 42.2427C96.7991 42.4581 96.2744 42.6148 95.7807 42.6273C93.954 42.6717 92.1248 42.6541 90.2973 42.6407C88.711 42.629 87.5297 41.4894 87.5134 39.9451C87.4944 38.1796 87.4978 36.4132 87.5099 34.6477C87.5194 33.2819 88.2966 32.3132 89.6373 31.9437C89.695 31.9278 89.7484 31.8984 89.8044 31.8758C91.9663 31.8758 94.1281 31.8758 96.2899 31.8758C96.8491 32.0459 97.4298 32.2177 97.79 32.6895C98.1019 33.0984 98.3164 33.5777 98.5749 34.026V40.4755ZM93.0752 33.6397C92.1791 33.6397 91.283 33.6372 90.3869 33.6397C89.7277 33.6422 89.3245 33.9807 89.3185 34.6133C89.3012 36.3797 89.3012 38.1461 89.3185 39.9124C89.3245 40.5191 89.7338 40.8861 90.3593 40.8886C92.1515 40.897 93.9428 40.8978 95.735 40.8886C96.3916 40.8853 96.7862 40.4898 96.7888 39.8479C96.7948 38.1176 96.7957 36.3864 96.7888 34.6561C96.7862 34.0125 96.389 33.6422 95.7264 33.6397C94.8424 33.6355 93.9592 33.6388 93.0752 33.6388V33.6397Z"
      fill="rgba(255,255,255,0.5)" />
    <path
      d="M57.0815 31.875C57.0815 32.3644 57.0996 32.8554 57.0694 33.3431C57.0591 33.5098 56.9712 33.7151 56.8462 33.8249C54.3053 36.058 51.754 38.2801 49.2045 40.504C49.0881 40.6054 48.9623 40.6967 48.8408 40.7931C48.8572 40.8241 48.8736 40.8551 48.8908 40.8861H57.0565V42.619H46.0052C46.0052 42.0626 45.9906 41.5171 46.0173 40.9741C46.0225 40.861 46.1672 40.7395 46.2723 40.6481C48.8176 38.4201 51.3671 36.1962 53.915 33.9707C54.0115 33.886 54.1028 33.7972 54.2639 33.6489H46.0268V31.875H57.0815V31.875Z"
      fill="rgba(255,255,255,0.5)" />
    <path
      d="M40.9415 31.875C41.3275 32.0485 41.7462 32.1758 42.0952 32.4029C43.7047 33.4503 43.6849 36.2959 41.7117 37.1389C41.648 37.1657 41.5903 37.2068 41.511 37.252C41.7652 37.4028 42.0056 37.5185 42.2141 37.6727C43.1963 38.4008 43.4548 39.5614 43.1041 40.7445C42.7655 41.8833 41.723 42.6324 40.5244 42.6382C37.9826 42.65 35.44 42.6433 32.8982 42.6441C32.3996 42.6441 32.1505 42.3978 32.1511 41.9051C32.1511 38.7159 32.1511 35.5276 32.152 32.3384C32.152 32.1834 32.1649 32.0292 32.1718 31.8742C35.0953 31.8742 38.0188 31.8742 40.9423 31.8742L40.9415 31.875ZM32.7517 37.5495C32.7327 37.6266 32.7164 37.6601 32.7164 37.6944C32.7138 39.0804 32.7181 40.4655 32.7086 41.8514C32.7069 42.1095 32.8585 42.1028 33.042 42.1028C35.5106 42.1011 37.98 42.1145 40.4477 42.086C40.8337 42.0819 41.2568 41.9562 41.5963 41.771C42.5208 41.2657 42.8991 40.1781 42.588 39.1156C42.3071 38.1561 41.4576 37.5378 40.3883 37.5352C37.9438 37.5302 35.5003 37.5336 33.0558 37.5344C32.9593 37.5344 32.8628 37.5445 32.7517 37.5503V37.5495ZM32.7319 36.9747C32.9223 36.9747 33.0688 36.9747 33.2152 36.9747C35.5726 36.9747 37.9301 36.9738 40.2875 36.9747C41.978 36.9747 43.0499 35.5988 42.5932 34.0092C42.3054 33.0087 41.4515 32.4197 40.2539 32.4172C37.8715 32.4121 35.4899 32.4155 33.1075 32.4172C32.9886 32.4172 32.8697 32.4289 32.7319 32.4356V36.9747Z"
      fill="rgba(255,255,255,0.5)" />
    <path
      d="M14.9988 31.875V32.4163C14.8178 32.4163 14.6739 32.4163 14.5301 32.4163C12.0865 32.4163 9.64204 32.4121 7.19846 32.418C6.00425 32.4213 5.16071 33.0129 4.8712 34.026C4.4223 35.5963 5.49244 36.9746 7.16141 36.9746C9.00357 36.9746 10.8457 36.9679 12.6879 36.9772C14.0665 36.9839 15.1746 37.7866 15.4589 39.0611C15.9759 41.3738 14.2742 42.6835 12.6328 42.6541C10.153 42.6106 7.6715 42.6433 5.19087 42.6441C5.0711 42.6441 4.95047 42.6441 4.804 42.6441V42.1212C4.94961 42.1145 5.09092 42.102 5.23309 42.102C7.72578 42.1003 10.2193 42.1053 12.712 42.0978C13.9424 42.0944 14.8489 41.2749 14.9764 40.0792C15.1082 38.8424 14.375 37.8134 13.1799 37.5746C12.9895 37.5369 12.7896 37.5344 12.594 37.5335C10.813 37.5302 9.03287 37.531 7.25188 37.531C5.68975 37.531 4.74368 36.8498 4.29391 35.4035C4.28357 35.3725 4.25773 35.3449 4.23877 35.3155C4.23877 34.9091 4.23877 34.5028 4.23877 34.0972C4.40162 33.7411 4.52655 33.3615 4.73593 33.033C5.14348 32.3903 5.80607 32.0836 6.52381 31.875H14.9988Z"
      fill="rgba(255,255,255,0.5)" />
    <path
      d="M18.8313 31.875C18.8434 32.0166 18.8649 32.1582 18.8649 32.2998C18.8666 34.77 18.8649 37.2411 18.8666 39.7113C18.8666 41.2204 19.7601 42.0978 21.3042 42.1003C23.0102 42.1028 24.7162 42.1028 26.4222 42.1003C27.9085 42.0986 28.827 41.2137 28.8322 39.7499C28.8417 37.2671 28.8348 34.7851 28.8357 32.3023C28.8357 32.1599 28.8477 32.0174 28.8546 31.8742H29.3707C29.3725 34.6318 29.394 37.3894 29.369 40.1471C29.3569 41.4986 28.0981 42.624 26.6445 42.6391C25.2203 42.6541 23.7969 42.6433 22.3726 42.6424C21.8694 42.6424 21.3653 42.6575 20.863 42.6307C19.5025 42.5586 18.3307 41.4324 18.3178 40.1102C18.2919 37.3651 18.3135 34.6192 18.316 31.8733H18.8322L18.8313 31.875Z"
      fill="rgba(255,255,255,0.5)" />
    <path
      d="M97.2481 48.0731C96.8018 47.8711 96.5192 47.5636 96.5493 47.0332C96.738 46.9511 96.8569 46.9251 96.9026 47.2092C96.9793 47.6834 97.5505 47.9457 97.9753 47.6993C98.1063 47.6239 98.1795 47.4203 98.183 47.2737C98.1856 47.1471 98.0494 46.9888 97.9228 46.915C97.7737 46.8287 97.6108 46.8095 97.4316 46.7743C96.8854 46.6687 96.6183 46.3821 96.6622 45.943C96.7036 45.5308 97.0672 45.276 97.5979 45.2752C98.0675 45.2752 98.3915 45.4956 98.6026 45.9037C98.6663 46.0394 98.4242 46.2363 98.2588 46.0679C98.1252 45.7696 97.9184 45.5559 97.5393 45.5869C97.2834 45.6079 97.0336 45.6866 97.0198 45.9858C97 46.4039 97.361 46.414 97.6496 46.4894C97.6617 46.4927 97.9607 46.5589 98.0856 46.6184C98.5113 46.8245 98.6388 47.422 98.3441 47.7857C98.0494 48.1493 97.4747 48.1744 97.2472 48.0714L97.2481 48.0731Z"
      fill="rgba(255,255,255,0.5)" />
    <path
      d="M86.1935 48.073C85.7204 47.8845 85.5541 47.525 85.5636 47.0491C85.5748 46.4919 85.5662 45.9338 85.5662 45.3891C85.8342 45.2844 85.91 45.3665 85.9057 45.5961C85.8962 46.0846 85.8988 46.5723 85.9057 47.0608C85.9117 47.5384 86.128 47.7823 86.5261 47.7773C86.9293 47.7722 87.1249 47.5401 87.1301 47.0474C87.1352 46.5589 87.1163 45.912 87.1361 45.4252C87.1395 45.3297 87.4006 45.3422 87.4377 45.3615C87.4377 46.0578 87.4773 46.7575 87.4144 47.4488C87.3946 47.6692 87.0766 48.2448 86.1935 48.073V48.073Z"
      fill="rgba(255,255,255,0.5)" />
    <path
      d="M79.9121 47.9842C79.491 48.0485 79.2207 47.8946 79.1013 47.5225C78.9031 46.9008 78.7092 46.2774 78.4249 45.6623C78.4249 46.0226 78.4249 46.3821 78.4249 46.7424C78.4249 47.1002 78.4335 47.6466 78.4154 48.0043C78.412 48.0739 78.0923 48.0798 78.0914 48.0152C78.0811 47.205 78.0845 46.207 78.0845 45.4034C78.6799 45.2392 78.7376 45.2693 78.9074 45.8081C79.1038 46.4332 79.2994 47.0575 79.5838 47.6784C79.5838 47.3818 79.5838 47.0843 79.5838 46.7877C79.5838 46.3938 79.5932 45.9992 79.5838 45.6054C79.5786 45.3825 79.6544 45.2878 79.9121 45.3699V47.9842V47.9842Z"
      fill="rgba(255,255,255,0.5)" />
    <path
      d="M91.0883 47.9717C90.816 48.0672 90.6988 48.0144 90.716 47.7748C90.716 47.763 90.716 47.7505 90.716 47.7387C90.6942 47.1276 90.3424 46.8703 89.6605 46.967V47.9834C89.6304 48.0069 89.3392 47.9842 89.309 48.0077C89.309 48.0077 89.3228 47.9189 89.3211 47.8485C89.3038 47.0282 89.3099 46.207 89.3099 45.3523C89.7476 45.3523 90.1525 45.3171 90.548 45.3607C91.0736 45.4193 91.3416 46.0612 91.0538 46.5061C91.003 46.5857 90.9332 46.6536 90.872 46.7265C90.9116 46.7265 90.8324 46.7265 90.872 46.7265C91.1451 46.7416 91.0564 47.5619 91.0883 47.9708V47.9717ZM89.6717 46.6058C90.0509 46.5765 90.4644 46.7583 90.7281 46.3972C90.8194 46.2723 90.8091 45.9715 90.7143 45.8442C90.4455 45.483 90.0345 45.6891 89.6717 45.6405V46.6058Z"
      fill="rgba(255,255,255,0.5)" />
    <path
      d="M93.0193 45.3397C93.5259 45.3397 94.0145 45.3355 94.5021 45.3456C94.5599 45.3464 94.5556 45.628 94.4935 45.6305C94.1273 45.6456 93.7612 45.638 93.3657 45.638V46.5187C93.7086 46.5187 94.0481 46.5078 94.3858 46.5262C94.478 46.5313 94.4806 46.8237 94.3884 46.8287C94.0584 46.8472 93.7275 46.8363 93.3665 46.8363V47.7186C93.7146 47.7186 94.0782 47.7077 94.4401 47.7262C94.5271 47.7304 94.528 48.0152 94.4444 48.0169C93.98 48.0295 93.5147 48.0228 93.0193 48.0228V45.3397V45.3397Z"
      fill="rgba(255,255,255,0.5)" />
    <path
      d="M74.8984 46.8354V47.7186C75.2654 47.7186 75.6299 47.7144 75.9944 47.7203C76.2192 47.7236 76.2192 47.7303 76.2098 48.0052H74.5537V45.3405C75.0647 45.3405 75.5635 45.3364 76.0624 45.3472C76.1184 45.3481 76.0995 45.6305 76.0331 45.633C75.6661 45.6472 75.299 45.6397 74.9035 45.6397V46.5204C75.212 46.5204 75.5161 46.5044 75.8169 46.5279C75.9427 46.5379 75.953 46.8212 75.8341 46.8295C75.5308 46.8497 75.2258 46.8363 74.8992 46.8363L74.8984 46.8354Z"
      fill="rgba(255,255,255,0.5)" />
    <path
      d="M70.4884 45.3858C70.771 45.2786 70.8667 45.3749 70.9253 45.5903C71.1234 46.326 71.3001 46.9444 71.5844 47.6859C71.7223 47.2108 71.8972 46.8505 72.0342 46.3763C72.11 46.1123 72.1979 45.85 72.253 45.5819C72.3021 45.3414 72.4262 45.2936 72.6795 45.385C72.4366 46.2229 72.2056 47.0608 71.9368 47.887C71.9101 47.9692 71.6516 48.0136 71.5008 48.0127C71.4026 48.0127 71.2432 47.9172 71.2165 47.8326C70.9614 47.024 70.7288 46.2078 70.4875 45.3858H70.4884Z"
      fill="rgba(255,255,255,0.5)" />
    <path
      d="M82.9174 45.6389C82.9174 46.3721 82.914 47.06 82.92 47.7479C82.9217 47.9591 82.8666 48.0764 82.5866 47.9851V45.6573H81.8352C81.8085 45.6263 81.7749 45.3523 81.8447 45.3498C82.3703 45.3313 83.0087 45.3339 83.5352 45.3447C83.6016 45.3464 83.6041 45.6229 83.5335 45.6313C83.3534 45.6514 83.1699 45.638 82.9183 45.638L82.9174 45.6389Z"
      fill="rgba(255,255,255,0.5)" />
    <path d="M92.1687 38.2123V36.3144H93.923V38.2123H92.1687V38.2123Z" fill="rgba(255,255,255,0.5)" />
  </g>
  <defs>
    <clipPath id="clip0_3070_2698">
      <rect width="94.375" height="16.25" fill="rgba(255,255,255,0.5)"
        transform="translate(4.23877 31.875)" />
    </clipPath>
  </defs>
</svg>